{"glyphs":{"0":{"ha":729,"x_min":0,"x_max":0,"o":"m 658 424 b 364 -15 658 171 519 -15 b 69 425 211 -15 69 167 b 364 864 69 678 208 864 b 658 424 517 864 658 682 m 563 439 b 364 779 563 643 465 779 b 165 439 261 779 165 642 b 364 69 165 233 256 69 b 563 439 472 69 563 233 "},"1":{"ha":729,"x_min":0,"x_max":0,"o":"m 614 42 b 558 0 614 0 579 0 l 210 0 b 154 42 189 0 154 0 b 210 85 154 85 188 85 l 336 85 l 336 671 b 192 610 275 618 218 610 b 146 651 171 610 146 617 b 197 694 146 690 175 693 b 349 831 224 697 296 713 b 390 864 356 847 364 864 b 432 807 432 864 432 829 l 432 85 l 558 85 b 614 42 581 85 614 85 "},"2":{"ha":729,"x_min":0,"x_max":0,"o":"m 656 57 b 600 0 656 13 646 0 l 129 0 b 72 43 107 0 72 0 b 93 81 72 63 81 69 l 400 339 b 560 593 492 415 560 496 b 339 779 560 715 453 779 b 176 672 263 779 197 736 b 196 628 189 663 196 644 b 135 565 196 589 164 565 b 72 632 111 565 72 581 b 346 864 72 750 182 864 b 656 593 515 864 656 760 b 504 315 656 482 592 393 b 229 85 444 260 311 156 l 560 85 b 608 150 560 124 560 150 b 656 93 656 150 656 119 l 656 57 "},"3":{"ha":729,"x_min":0,"x_max":0,"o":"m 667 242 b 367 -15 667 113 549 -15 b 61 189 196 -15 61 65 b 124 254 61 233 92 254 b 185 193 158 254 185 226 b 168 150 185 165 175 157 b 367 69 204 85 311 69 b 571 242 493 69 571 157 b 363 415 571 322 500 415 l 299 415 b 243 458 276 415 243 415 b 343 504 243 499 264 499 b 472 546 393 507 428 510 b 531 667 510 576 531 625 b 367 779 531 729 461 779 b 213 736 354 779 256 779 b 225 699 217 732 225 718 b 164 636 225 660 193 636 b 101 701 136 636 101 656 b 365 864 101 797 199 864 b 626 668 525 864 626 771 b 510 464 626 593 588 514 b 667 242 601 422 667 340 "},"4":{"ha":729,"x_min":0,"x_max":0,"o":"m 688 276 b 632 235 688 235 653 235 l 524 235 l 524 85 l 610 85 b 665 42 632 85 665 85 b 610 0 665 0 631 0 l 360 0 b 304 42 339 0 304 0 b 360 85 304 85 338 85 l 446 85 l 446 235 l 96 235 b 40 290 53 235 40 244 b 53 339 40 318 40 321 l 369 836 b 428 865 388 864 394 865 l 467 865 b 524 808 514 865 524 854 l 524 319 l 632 319 b 688 276 654 319 688 319 m 446 804 l 138 319 l 446 319 "},"5":{"ha":729,"x_min":0,"x_max":0,"o":"m 656 264 b 344 -15 656 110 518 -15 b 72 197 189 -15 72 82 b 135 264 72 251 114 264 b 196 201 164 264 196 242 b 178 157 196 174 185 164 b 344 69 217 81 306 69 b 560 264 461 69 560 153 b 383 456 560 354 497 456 b 208 386 303 456 246 431 b 167 365 197 372 192 365 b 122 422 122 365 122 397 l 122 792 b 178 849 122 836 132 849 l 551 849 b 607 806 574 849 607 849 b 551 764 607 764 572 764 l 218 764 l 218 500 b 385 540 275 531 336 540 b 656 264 549 540 656 404 "},"6":{"ha":729,"x_min":0,"x_max":0,"o":"m 654 268 b 367 -15 654 101 518 -15 b 74 415 229 -15 74 86 b 446 864 74 696 260 864 b 631 721 581 864 631 789 b 568 656 631 679 603 656 b 507 717 532 656 507 683 b 521 757 507 742 514 750 b 444 779 514 764 492 779 b 172 469 322 779 192 665 b 379 550 235 526 307 550 b 654 268 532 550 654 426 m 558 268 b 372 464 558 371 485 464 b 183 308 267 464 183 394 b 194 222 183 289 181 256 b 367 69 222 138 276 69 b 558 268 467 69 558 149 "},"7":{"ha":729,"x_min":0,"x_max":0,"o":"m 667 806 b 636 758 667 786 664 783 b 332 40 551 676 339 435 b 285 -15 332 0 308 -15 b 236 50 236 -15 236 31 b 524 764 236 203 283 508 l 157 764 b 108 699 157 725 157 699 b 61 756 61 699 61 729 l 61 814 b 108 871 61 840 61 871 b 153 849 119 871 144 871 l 611 849 b 667 806 633 849 667 849 "},"8":{"ha":729,"x_min":0,"x_max":0,"o":"m 667 242 b 364 -15 667 107 539 -15 b 61 242 190 -15 61 107 b 254 457 61 346 150 428 b 81 642 144 493 81 563 b 364 864 81 754 197 864 b 647 642 529 864 647 756 b 474 457 647 563 585 494 b 667 242 576 428 667 346 m 551 640 b 364 779 551 713 472 779 b 176 640 254 779 176 713 b 364 500 176 563 263 500 b 551 640 465 500 551 561 m 571 243 b 364 415 571 328 492 415 b 157 243 238 415 157 328 b 364 69 157 147 249 69 b 571 243 479 69 571 147 "},"9":{"ha":729,"x_min":0,"x_max":0,"o":"m 654 433 b 300 -15 654 158 483 -15 b 97 128 122 -15 97 83 b 160 193 97 169 125 193 b 221 132 196 193 221 165 b 208 93 221 108 214 100 b 300 69 238 71 288 69 b 556 379 433 69 542 207 b 349 299 493 322 421 299 b 74 581 196 299 74 422 b 368 864 74 749 214 864 b 654 433 500 864 654 768 m 546 540 b 489 719 546 639 533 665 b 368 779 467 747 428 779 b 169 581 268 779 169 701 b 356 385 169 478 243 385 b 546 540 471 385 546 464 "}," ":{"ha":729,"x_min":0,"x_max":0,"o":""},"!":{"ha":729,"x_min":0,"x_max":0,"o":"m 433 785 b 426 563 433 711 428 635 l 421 322 b 364 256 418 267 414 256 b 308 292 346 256 310 256 l 304 460 l 294 785 b 364 864 294 858 351 864 b 433 785 376 864 433 858 m 433 69 b 364 0 433 31 403 0 b 294 69 325 0 294 31 b 364 139 294 108 325 139 b 433 69 403 139 433 108 "},"\"":{"ha":729,"x_min":0,"x_max":0,"o":"m 531 504 b 488 456 529 481 522 456 b 443 506 449 456 444 485 l 425 788 b 488 864 421 849 461 864 b 549 788 506 864 553 853 m 285 504 b 242 456 283 481 276 456 b 197 506 203 456 199 485 l 179 788 b 242 864 175 849 215 864 b 303 788 260 864 307 853 "},"#":{"ha":729,"x_min":0,"x_max":0,"o":"m 679 275 b 614 226 679 226 631 226 l 508 226 l 486 57 b 436 0 483 40 479 0 b 388 49 407 0 388 24 b 410 226 388 49 388 56 l 267 226 l 244 57 b 194 0 242 40 238 0 b 146 49 165 0 146 24 b 168 226 146 49 146 56 l 114 226 b 49 275 97 226 49 226 b 114 324 49 324 97 324 l 182 324 l 207 526 l 114 526 b 49 575 97 526 49 526 b 114 624 49 624 97 624 l 221 624 l 242 792 b 292 849 243 808 249 849 b 339 783 313 849 346 835 l 319 624 l 463 624 l 483 792 b 533 849 485 808 490 849 b 581 783 554 849 588 835 l 561 624 l 614 624 b 679 575 631 624 679 624 b 614 526 679 526 631 526 l 547 526 l 522 324 l 614 324 b 679 275 631 324 679 324 m 306 526 l 281 324 l 424 324 l 449 526 "},"$":{"ha":729,"x_min":0,"x_max":0,"o":"m 647 238 b 407 -6 647 140 576 21 l 407 -58 b 365 -115 407 -81 407 -115 b 322 -58 322 -115 322 -81 l 322 -7 b 81 231 161 8 81 115 b 143 300 81 294 131 300 b 204 238 171 300 204 276 b 182 189 204 206 190 194 b 322 79 203 118 260 88 l 322 401 b 81 628 89 444 81 594 b 322 854 81 731 169 836 l 322 907 b 365 964 322 929 322 964 b 407 907 407 964 407 929 l 407 856 b 647 635 571 842 647 742 b 585 567 647 583 614 567 b 524 628 547 567 524 596 b 544 674 524 646 531 663 b 407 769 522 744 453 764 l 407 481 b 647 238 608 443 647 306 m 322 769 b 169 633 236 756 169 700 b 322 499 169 563 243 513 m 558 232 b 407 383 558 303 499 365 l 407 81 b 558 232 496 96 558 161 "},"%":{"ha":729,"x_min":0,"x_max":0,"o":"m 290 778 b 169 593 290 674 238 593 b 49 779 103 593 49 671 b 169 964 49 883 101 964 b 290 778 236 964 290 886 m 607 915 b 599 885 607 906 604 899 l 218 -75 b 169 -115 213 -90 203 -115 b 121 -67 143 -115 121 -93 b 129 -36 121 -57 124 -50 l 508 921 b 558 964 515 938 525 964 b 607 915 586 964 607 940 m 679 69 b 558 -115 679 -33 628 -115 b 438 69 489 -115 438 -33 b 558 254 438 172 489 254 b 679 69 628 254 679 172 m 213 779 b 169 878 213 836 188 878 b 126 779 151 878 126 836 b 169 679 126 718 153 679 b 213 779 186 679 213 718 m 601 69 b 558 168 601 131 575 168 b 515 69 542 168 515 131 b 558 -29 515 8 542 -29 b 601 69 575 -29 601 8 "},"&":{"ha":729,"x_min":0,"x_max":0,"o":"m 681 556 b 625 514 681 514 646 514 l 582 514 l 499 297 b 428 150 485 263 457 199 b 544 69 440 133 493 69 b 599 149 567 69 593 88 b 638 192 599 156 601 192 b 676 146 638 192 676 192 b 544 -15 676 79 636 -15 b 382 82 464 -15 404 56 b 210 -15 339 29 282 -15 b 39 190 104 -15 39 85 b 88 336 39 254 61 303 b 182 438 90 338 171 426 b 143 663 153 525 143 603 b 288 864 143 801 218 864 b 415 674 386 864 415 758 b 275 414 415 642 415 560 b 378 222 303 339 360 251 b 499 514 415 296 461 415 b 442 557 475 514 442 514 b 497 599 442 599 476 599 l 625 599 b 681 556 647 599 681 599 m 338 674 b 288 779 338 686 335 779 b 221 663 257 779 221 743 b 243 506 221 651 222 578 b 338 674 313 583 338 633 m 332 150 b 271 250 308 183 301 196 b 215 350 251 282 225 328 b 135 194 150 278 135 261 b 211 69 135 157 149 69 b 332 150 231 69 281 76 "},"'":{"ha":729,"x_min":0,"x_max":0,"o":"m 407 507 b 364 456 406 485 404 456 b 321 507 324 456 322 485 l 304 774 l 301 801 b 364 864 301 836 329 864 b 425 785 397 864 429 843 "},"(":{"ha":729,"x_min":0,"x_max":0,"o":"m 607 -75 b 564 -114 607 -86 600 -114 b 353 65 531 -114 426 -36 b 240 425 304 135 240 260 b 564 964 240 781 524 964 b 607 925 600 964 607 936 b 575 883 607 904 597 899 b 336 425 389 757 336 564 b 572 -32 336 269 400 85 b 607 -75 597 -49 607 -54 "},")":{"ha":729,"x_min":0,"x_max":0,"o":"m 489 425 b 165 -114 489 69 206 -114 b 122 -75 131 -114 122 -86 b 154 -33 122 -54 133 -47 b 393 425 342 93 393 286 b 144 890 393 515 372 739 b 122 925 138 894 122 904 b 165 964 122 936 131 964 b 376 785 199 964 303 886 b 489 425 425 715 489 590 "},"*":{"ha":729,"x_min":0,"x_max":0,"o":"m 633 297 b 588 251 633 276 615 251 b 536 274 576 251 574 251 b 406 351 439 332 490 304 b 410 183 408 315 410 224 b 364 125 410 171 410 125 b 318 183 318 125 318 171 b 322 351 318 224 319 315 l 150 251 b 94 297 94 251 94 292 b 129 343 94 325 113 333 l 279 425 l 128 507 b 94 551 110 517 94 525 b 140 597 94 572 113 597 b 172 585 150 597 153 597 l 322 497 b 318 665 319 533 318 625 b 364 724 318 678 318 724 b 410 665 410 724 410 678 b 406 497 410 625 408 533 l 578 597 b 633 551 633 597 633 557 b 599 506 633 525 615 515 l 449 424 b 614 335 485 404 579 358 b 633 297 617 333 633 321 "},"+":{"ha":729,"x_min":0,"x_max":0,"o":"m 675 425 b 610 376 675 376 626 376 l 413 376 l 413 178 b 364 113 413 161 413 113 b 315 178 315 113 315 161 l 315 376 l 118 376 b 53 425 101 376 53 376 b 118 474 53 474 101 474 l 315 474 l 315 672 b 364 738 315 689 315 738 b 413 672 413 738 413 689 l 413 474 l 610 474 b 675 425 626 474 675 474 "},",":{"ha":729,"x_min":0,"x_max":0,"o":"m 481 35 b 294 -193 481 -118 339 -193 b 250 -149 271 -193 250 -169 b 289 -110 250 -121 275 -114 b 392 4 306 -104 371 -82 b 364 0 382 1 372 0 b 278 88 318 0 278 35 b 365 174 278 132 310 174 b 481 35 426 174 481 119 "},"-":{"ha":729,"x_min":0,"x_max":0,"o":"m 650 425 b 585 376 650 376 601 376 l 143 376 b 78 425 126 376 78 376 b 143 474 78 474 126 474 l 585 474 b 650 425 601 474 650 474 "},".":{"ha":729,"x_min":0,"x_max":0,"o":"m 451 86 b 364 0 451 43 417 0 b 278 88 319 0 278 36 b 365 174 278 131 313 174 b 451 86 410 174 451 138 "},"/":{"ha":729,"x_min":0,"x_max":0,"o":"m 647 915 b 636 882 647 904 646 904 l 178 -76 b 129 -115 169 -94 160 -115 b 81 -67 101 -115 81 -92 b 92 -33 81 -56 82 -56 l 550 925 b 599 964 558 943 568 964 b 647 915 626 964 647 940 "},":":{"ha":729,"x_min":0,"x_max":0,"o":"m 451 511 b 364 425 451 468 417 425 b 278 513 319 425 278 461 b 365 599 278 556 313 599 b 451 511 410 599 451 563 m 451 86 b 364 0 451 43 417 0 b 278 88 319 0 278 36 b 365 174 278 131 313 174 b 451 86 410 174 451 138 "},";":{"ha":729,"x_min":0,"x_max":0,"o":"m 451 511 b 364 425 451 468 417 425 b 278 513 319 425 278 461 b 365 599 278 556 313 599 b 451 511 410 599 451 563 m 458 38 b 294 -193 458 -118 325 -193 b 250 -149 271 -193 250 -169 b 278 -112 250 -126 269 -117 b 369 0 299 -101 351 -75 b 278 88 301 0 278 49 b 364 174 278 135 314 174 b 458 38 417 174 458 129 "},"<":{"ha":729,"x_min":0,"x_max":0,"o":"m 650 126 b 601 78 650 94 624 78 b 565 92 589 78 585 79 l 103 382 b 78 425 89 392 78 407 b 108 471 78 451 96 463 l 565 758 b 601 772 585 771 589 772 b 650 724 624 772 650 756 b 617 676 650 697 632 686 l 218 425 l 617 174 b 650 126 632 164 650 153 "},"=":{"ha":729,"x_min":0,"x_max":0,"o":"m 675 531 b 613 482 675 482 629 482 l 115 482 b 53 531 99 482 53 482 b 124 579 53 579 104 579 l 604 579 b 675 531 624 579 675 579 m 675 319 b 604 271 675 271 624 271 l 124 271 b 53 319 104 271 53 271 b 115 368 53 368 99 368 l 613 368 b 675 319 629 368 675 368 "},">":{"ha":729,"x_min":0,"x_max":0,"o":"m 650 425 b 619 379 650 399 632 388 l 163 92 b 126 78 143 79 139 78 b 78 126 104 78 78 94 b 111 174 78 153 96 164 l 510 425 l 111 676 b 78 724 96 686 78 697 b 126 772 78 756 104 772 b 163 758 139 772 143 771 l 625 468 b 650 425 639 458 650 443 "},"?":{"ha":729,"x_min":0,"x_max":0,"o":"m 642 685 b 550 550 642 613 590 572 b 399 335 421 479 399 400 l 399 311 b 343 256 399 264 385 256 b 288 328 288 256 288 274 b 489 618 288 383 288 507 b 546 685 515 632 546 649 b 350 772 546 728 492 772 b 196 724 296 772 231 763 b 210 685 203 715 210 701 b 149 622 210 646 178 622 b 86 688 119 622 86 643 b 350 857 86 765 154 857 b 642 685 607 857 642 736 m 413 69 b 343 0 413 31 382 0 b 274 69 304 0 274 31 b 343 139 274 108 304 139 b 413 69 382 139 413 108 "},"@":{"ha":729,"x_min":0,"x_max":0,"o":"m 667 111 b 425 -8 667 71 550 -8 b 61 425 231 -8 61 176 b 422 857 61 675 233 857 b 667 446 667 857 667 536 b 465 147 667 206 533 147 b 265 425 363 147 265 260 b 467 701 265 582 356 701 b 556 674 513 701 551 676 b 422 772 524 758 461 772 b 139 424 279 772 139 631 b 424 76 139 226 274 76 b 572 136 471 76 524 92 b 614 150 586 150 590 150 b 667 111 628 150 667 150 m 589 424 b 465 617 589 536 528 617 b 343 424 407 617 343 540 b 467 232 343 315 401 232 b 589 424 526 232 589 311 "},"A":{"ha":729,"x_min":0,"x_max":0,"o":"m 690 42 b 631 0 690 0 654 0 l 489 0 b 431 42 464 0 431 0 b 508 85 431 85 458 85 l 476 229 l 251 229 l 219 85 b 297 42 269 85 297 85 b 239 0 297 0 264 0 l 97 0 b 38 42 74 0 38 0 b 61 82 38 60 46 74 b 121 85 69 85 101 85 l 289 813 b 364 865 301 865 324 865 b 439 811 407 865 426 864 l 607 85 b 667 81 628 85 658 85 b 690 42 683 74 690 60 m 364 750 l 272 314 l 456 314 "},"B":{"ha":729,"x_min":0,"x_max":0,"o":"m 669 232 b 429 0 669 124 586 0 l 88 0 b 32 42 68 0 32 0 b 89 85 32 85 67 85 l 126 85 l 126 764 l 89 764 b 32 807 67 764 32 764 b 88 849 32 849 68 849 l 401 849 b 640 633 556 849 640 735 b 490 444 640 547 579 475 b 669 232 603 418 669 328 m 544 632 b 396 764 544 678 514 764 l 222 764 l 222 483 l 365 483 b 544 632 500 483 544 575 m 574 235 b 414 399 574 297 532 399 l 222 399 l 222 85 l 399 85 b 574 235 519 85 574 167 "},"C":{"ha":729,"x_min":0,"x_max":0,"o":"m 672 233 b 392 -15 672 108 553 -15 b 56 425 211 -15 56 171 b 390 864 56 678 211 864 b 571 797 461 864 525 836 b 592 840 589 832 589 835 b 631 864 599 850 606 864 b 672 807 672 864 672 829 l 672 614 b 624 557 672 586 672 557 b 575 603 582 557 579 579 b 396 779 556 715 479 779 b 151 425 272 779 151 632 b 397 69 151 217 271 69 b 576 239 454 69 567 103 b 624 279 579 279 611 279 b 672 233 639 279 672 279 "},"D":{"ha":729,"x_min":0,"x_max":0,"o":"m 674 418 b 369 0 674 194 551 0 l 83 0 b 26 42 63 0 26 0 b 83 85 26 85 61 85 l 114 85 l 114 764 l 83 764 b 26 806 63 764 26 764 b 83 849 26 849 61 849 l 369 849 b 674 418 554 849 674 640 m 578 418 b 343 764 578 579 500 764 l 210 764 l 210 85 l 343 85 b 578 418 497 85 578 256 "},"E":{"ha":729,"x_min":0,"x_max":0,"o":"m 697 57 b 642 0 697 13 688 0 l 93 0 b 36 42 72 0 36 0 b 93 85 36 85 71 85 l 135 85 l 135 764 l 93 764 b 36 807 72 764 36 764 b 93 849 36 849 72 849 l 611 849 b 667 792 658 849 667 835 l 667 690 b 618 633 667 663 667 633 b 571 690 571 633 571 664 l 571 764 l 231 764 l 231 482 l 413 482 b 461 561 413 539 413 561 b 508 504 508 561 508 531 l 508 375 b 461 318 508 349 508 318 b 413 397 413 318 413 340 l 231 397 l 231 85 l 601 85 l 601 181 b 650 238 601 208 601 238 b 697 181 697 238 697 207 l 697 57 "},"F":{"ha":729,"x_min":0,"x_max":0,"o":"m 681 690 b 632 633 681 663 681 633 b 585 690 585 633 585 664 l 585 764 l 238 764 l 238 467 l 426 467 b 475 546 426 524 426 546 b 522 489 522 546 522 515 l 522 360 b 475 303 522 333 522 303 b 426 382 426 303 426 325 l 238 382 l 238 85 l 310 85 b 365 42 332 85 365 85 b 310 0 365 0 331 0 l 96 0 b 39 42 75 0 39 0 b 96 85 39 85 74 85 l 142 85 l 142 764 l 96 764 b 39 806 75 764 39 764 b 96 849 39 849 74 849 l 625 849 b 681 792 672 849 681 835 l 681 690 "},"G":{"ha":729,"x_min":0,"x_max":0,"o":"m 689 333 b 624 290 689 290 657 290 l 624 57 b 576 0 624 31 624 0 b 528 58 528 0 528 28 b 363 -15 500 26 442 -15 b 53 425 197 -15 53 169 b 363 864 53 676 196 864 b 525 801 421 864 476 843 b 582 864 546 849 553 864 b 624 807 624 864 624 829 l 624 614 b 575 557 624 586 624 557 b 528 597 539 557 531 574 b 368 779 504 747 417 779 b 149 424 260 779 149 636 b 367 69 149 219 254 69 b 525 290 440 69 508 135 l 467 290 b 411 333 444 290 411 290 b 467 375 411 375 446 375 l 632 375 b 689 333 653 375 689 375 "},"H":{"ha":729,"x_min":0,"x_max":0,"o":"m 697 42 b 642 0 697 0 663 0 l 476 0 b 421 43 454 0 421 0 b 476 85 421 85 456 85 l 511 85 l 511 399 l 217 399 l 217 85 l 251 85 b 307 42 274 85 307 85 b 251 0 307 0 272 0 l 86 0 b 31 42 65 0 31 0 b 86 85 31 85 64 85 l 121 85 l 121 764 l 86 764 b 31 806 65 764 31 764 b 86 849 31 849 64 849 l 251 849 b 307 806 274 849 307 849 b 251 764 307 764 272 764 l 217 764 l 217 483 l 511 483 l 511 764 l 476 764 b 421 807 454 764 421 764 b 476 849 421 849 456 849 l 642 849 b 697 806 664 849 697 849 b 642 764 697 764 663 764 l 607 764 l 607 85 l 642 85 b 697 42 664 85 697 85 "},"I":{"ha":729,"x_min":0,"x_max":0,"o":"m 619 42 b 563 0 619 0 583 0 l 167 0 b 110 43 146 0 110 0 b 167 85 110 85 146 85 l 317 85 l 317 764 l 167 764 b 110 807 146 764 110 764 b 167 849 110 849 146 849 l 563 849 b 619 806 583 849 619 849 b 563 764 619 764 583 764 l 413 764 l 413 85 l 563 85 b 619 42 583 85 619 85 "},"J":{"ha":729,"x_min":0,"x_max":0,"o":"m 664 807 b 607 764 664 764 629 764 l 565 764 l 565 186 b 329 -15 565 60 453 -15 b 99 138 190 -15 99 50 b 161 203 99 182 129 203 b 222 142 196 203 222 175 b 211 106 222 119 217 113 b 329 69 251 69 318 69 b 469 194 356 69 469 76 l 469 764 l 356 764 b 299 807 335 764 299 764 b 356 849 299 849 335 849 l 607 849 b 664 807 628 849 664 849 "},"K":{"ha":729,"x_min":0,"x_max":0,"o":"m 688 42 b 631 0 688 0 651 0 l 526 0 b 469 43 504 0 469 0 b 525 85 469 85 506 85 l 331 432 l 201 269 l 201 85 l 232 85 b 289 42 254 85 289 85 b 232 0 289 0 253 0 l 93 0 b 36 43 71 0 36 0 b 93 85 36 85 72 85 l 124 85 l 124 764 l 93 764 b 36 807 71 764 36 764 b 93 849 36 849 72 849 l 232 849 b 289 806 254 849 289 849 b 232 764 289 764 253 764 l 201 764 l 201 394 l 494 764 b 438 806 475 764 438 764 b 494 849 438 849 474 849 l 617 849 b 674 807 636 849 674 849 b 594 764 674 764 644 764 l 383 497 l 606 101 b 615 85 607 99 613 90 b 688 42 656 85 688 85 "},"L":{"ha":729,"x_min":0,"x_max":0,"o":"m 678 57 b 622 0 678 13 668 0 l 100 0 b 44 42 79 0 44 0 b 100 85 44 85 78 85 l 151 85 l 151 764 l 100 764 b 44 806 79 764 44 764 b 100 849 44 849 78 849 l 325 849 b 382 806 346 849 382 849 b 325 764 382 764 344 764 l 247 764 l 247 85 l 582 85 l 582 181 b 631 238 582 210 582 238 b 678 181 678 238 678 208 l 678 57 "},"M":{"ha":729,"x_min":0,"x_max":0,"o":"m 704 42 b 649 0 704 0 669 0 l 535 0 b 479 42 514 0 479 0 b 553 85 479 85 508 85 l 553 747 l 551 747 b 413 314 535 674 417 322 b 364 283 401 294 382 283 b 322 304 347 283 331 293 b 286 399 315 314 297 367 b 176 747 281 417 192 683 l 175 747 l 175 85 b 249 42 219 85 249 85 b 193 0 249 0 214 0 l 79 0 b 24 42 58 0 24 0 b 97 85 24 85 53 85 l 97 764 b 24 807 53 764 24 764 b 79 849 24 849 58 849 l 157 849 b 225 815 176 849 211 849 b 364 382 228 807 350 447 l 365 382 b 403 513 374 422 386 463 l 496 793 b 571 849 508 829 514 849 l 649 849 b 704 807 669 849 704 849 b 631 764 704 764 675 764 l 631 85 b 704 42 675 85 704 85 "},"N":{"ha":729,"x_min":0,"x_max":0,"o":"m 689 806 b 633 764 689 764 654 764 l 599 764 l 599 57 b 540 0 599 4 582 0 b 464 50 504 0 482 1 l 208 744 l 207 744 l 207 85 l 242 85 b 297 42 264 85 297 85 b 242 0 297 0 263 0 l 94 0 b 39 43 72 0 39 0 b 94 85 39 85 74 85 l 129 85 l 129 764 l 94 764 b 39 807 72 764 39 764 b 94 849 39 849 74 849 l 189 849 b 264 799 226 849 247 844 l 519 104 l 521 104 l 521 764 l 486 764 b 431 806 465 764 431 764 b 486 849 431 849 464 849 l 633 849 b 689 806 656 849 689 849 "},"O":{"ha":729,"x_min":0,"x_max":0,"o":"m 650 424 b 364 -15 650 22 619 -15 b 78 424 107 -15 78 22 b 364 864 78 826 107 864 b 650 424 621 864 650 825 m 554 436 b 538 690 554 521 554 625 b 364 779 517 767 468 779 b 189 681 250 779 207 763 b 174 436 174 617 174 522 b 190 168 174 360 174 239 b 364 69 207 99 242 69 b 539 176 488 69 524 99 b 554 436 554 251 554 350 "},"P":{"ha":729,"x_min":0,"x_max":0,"o":"m 667 594 b 404 340 667 465 565 340 l 231 340 l 231 85 l 272 85 b 329 42 293 85 329 85 b 272 0 329 0 293 0 l 93 0 b 36 42 72 0 36 0 b 93 85 36 85 71 85 l 135 85 l 135 764 l 93 764 b 36 807 72 764 36 764 b 93 849 36 849 72 849 l 404 849 b 667 594 564 849 667 724 m 571 594 b 378 764 571 668 511 764 l 231 764 l 231 425 l 378 425 b 571 594 511 425 571 521 "},"Q":{"ha":729,"x_min":0,"x_max":0,"o":"m 650 424 b 642 192 650 360 650 267 b 543 6 629 79 604 31 b 589 -78 553 -12 578 -60 b 632 -167 604 -108 632 -158 b 588 -193 632 -193 608 -193 l 575 -193 b 526 -176 553 -193 538 -193 l 442 -14 b 364 -15 426 -15 382 -15 b 78 424 107 -15 78 22 b 364 864 78 826 107 864 b 650 424 621 864 650 825 m 554 425 b 542 665 554 500 554 594 b 364 779 526 756 488 779 b 188 675 236 779 206 751 b 174 424 174 608 174 501 b 186 183 174 349 174 254 b 353 69 200 108 228 69 l 397 69 l 333 193 b 328 211 329 200 328 204 b 372 238 328 238 353 238 l 388 238 b 429 215 415 238 417 236 l 496 94 b 554 425 526 115 554 135 "},"R":{"ha":729,"x_min":0,"x_max":0,"o":"m 725 129 b 604 -15 725 76 692 -15 b 494 49 557 -15 518 7 b 468 225 468 93 468 135 b 438 343 468 283 468 314 b 325 382 393 382 351 382 l 217 382 l 217 85 l 251 85 b 307 42 274 85 307 85 b 251 0 307 0 272 0 l 86 0 b 31 42 65 0 31 0 b 86 85 31 85 64 85 l 121 85 l 121 764 l 86 764 b 31 806 65 764 31 764 b 86 849 31 849 64 849 l 332 849 b 601 615 496 849 601 735 b 483 422 601 558 575 474 b 551 338 503 407 535 378 b 564 207 564 306 564 294 b 603 69 564 133 564 69 b 629 132 626 69 629 121 b 676 174 631 174 663 174 b 725 129 692 174 725 174 m 506 615 b 317 764 506 682 444 764 l 217 764 l 217 467 l 317 467 b 506 615 443 467 506 547 "},"S":{"ha":729,"x_min":0,"x_max":0,"o":"m 656 231 b 394 -15 656 107 556 -15 b 165 49 306 -15 221 7 b 114 -15 153 4 144 -15 b 72 42 72 -15 72 19 l 72 225 b 121 282 72 253 72 282 b 168 233 165 282 167 257 b 233 113 169 208 175 150 b 396 69 289 75 357 69 b 565 224 506 69 565 151 b 411 381 565 344 450 372 l 251 418 b 72 636 136 451 72 543 b 331 864 72 754 176 864 b 525 799 393 864 468 847 b 576 864 536 840 543 864 b 618 807 618 864 618 829 l 618 624 b 569 567 618 596 618 567 b 522 606 542 567 526 575 b 329 779 514 649 493 779 b 163 642 231 779 163 713 b 274 511 163 576 215 528 l 386 486 b 589 396 494 461 532 451 b 656 231 606 378 656 319 "},"T":{"ha":729,"x_min":0,"x_max":0,"o":"m 692 690 b 643 633 692 663 692 633 b 596 690 596 633 596 664 l 596 764 l 413 764 l 413 85 l 485 85 b 540 42 507 85 540 85 b 485 0 540 0 506 0 l 244 0 b 189 43 222 0 189 0 b 244 85 189 85 224 85 l 317 85 l 317 764 l 132 764 l 132 690 b 83 633 132 663 132 633 b 36 690 36 633 36 664 l 36 792 b 93 849 36 838 47 849 l 636 849 b 692 792 683 849 692 835 l 692 690 "},"U":{"ha":729,"x_min":0,"x_max":0,"o":"m 722 807 b 665 764 722 764 688 764 l 624 764 l 624 283 b 364 -15 624 113 503 -15 b 104 283 225 -15 104 113 l 104 764 l 63 764 b 6 807 42 764 6 764 b 63 849 6 849 42 849 l 242 849 b 299 807 263 849 299 849 b 242 764 299 764 263 764 l 200 764 l 200 290 b 364 69 200 142 290 69 b 528 290 436 69 528 142 l 528 764 l 486 764 b 429 807 465 764 429 764 b 486 849 429 849 465 849 l 665 849 b 722 807 686 849 722 849 "},"V":{"ha":729,"x_min":0,"x_max":0,"o":"m 703 807 b 624 764 703 764 674 764 l 440 40 b 364 -11 428 -11 401 -11 b 288 42 324 -11 301 -11 l 104 764 b 25 807 54 764 25 764 b 82 849 25 849 61 849 l 224 849 b 281 807 244 849 281 849 b 203 764 281 764 251 764 l 338 224 b 363 100 350 172 356 149 l 364 100 b 418 339 374 160 400 265 l 525 764 b 447 807 476 764 447 764 b 504 849 447 849 483 849 l 646 849 b 703 807 667 849 703 849 "},"W":{"ha":729,"x_min":0,"x_max":0,"o":"m 713 806 b 660 764 713 764 675 764 l 560 38 b 503 -11 553 -11 519 -11 b 447 24 493 -11 457 -11 b 365 407 446 26 371 344 l 364 407 b 279 17 358 351 283 26 b 225 -11 265 -11 238 -11 b 168 38 208 -11 175 -11 l 68 764 l 67 764 b 15 806 54 764 15 764 b 72 849 15 849 51 849 l 182 849 b 238 806 204 849 238 849 b 182 764 238 764 203 764 l 147 764 l 219 214 b 231 106 229 139 231 113 l 232 106 b 308 479 239 192 304 469 b 364 510 322 510 350 510 b 421 478 376 510 408 510 b 496 106 422 469 488 194 l 497 106 b 519 301 499 144 508 217 l 581 764 l 546 764 b 490 806 525 764 490 764 b 546 849 490 849 524 849 l 656 849 b 713 806 676 849 713 849 "},"X":{"ha":729,"x_min":0,"x_max":0,"o":"m 689 42 b 632 0 689 0 653 0 l 488 0 b 432 42 467 0 432 0 b 494 85 432 85 463 85 l 357 354 l 229 85 b 294 42 261 85 294 85 b 238 0 294 0 258 0 l 93 0 b 38 42 72 0 38 0 b 93 85 38 85 71 85 l 124 85 l 308 451 l 142 764 l 110 764 b 53 807 89 764 53 764 b 110 849 53 849 89 849 l 254 849 b 310 807 275 849 310 849 b 250 764 310 764 278 764 l 357 561 l 456 764 b 392 807 424 764 392 764 b 447 849 392 849 426 849 l 592 849 b 649 806 613 849 649 849 b 592 764 649 764 613 764 l 561 764 l 404 453 l 600 85 l 632 85 b 689 42 653 85 689 85 "},"Y":{"ha":729,"x_min":0,"x_max":0,"o":"m 701 806 b 646 764 701 764 667 764 l 617 764 l 413 339 l 413 85 l 447 85 b 503 42 469 85 503 85 b 447 0 503 0 468 0 l 282 0 b 226 43 260 0 226 0 b 282 85 226 85 261 85 l 317 85 l 317 339 l 111 764 l 82 764 b 26 807 60 764 26 764 b 82 849 26 849 61 849 l 226 849 b 282 807 247 849 282 849 b 218 764 282 764 251 764 b 364 436 232 735 344 507 l 510 764 b 446 807 476 764 446 764 b 501 849 446 849 481 849 l 646 849 b 701 806 668 849 701 849 "},"Z":{"ha":729,"x_min":0,"x_max":0,"o":"m 668 57 b 613 0 668 13 658 0 l 124 0 b 67 47 97 0 67 0 b 81 90 67 61 67 69 l 538 764 l 179 764 l 179 690 b 131 633 179 663 179 633 b 83 690 83 633 83 664 l 83 792 b 140 849 83 838 94 849 l 604 849 b 661 801 631 849 661 849 b 647 758 661 788 661 779 l 190 85 l 572 85 l 572 185 b 621 242 572 213 572 242 b 668 185 668 242 668 211 l 668 57 "},"[":{"ha":729,"x_min":0,"x_max":0,"o":"m 671 -74 b 615 -115 671 -115 636 -115 l 364 -115 b 308 -58 317 -115 308 -101 l 308 907 b 364 964 308 951 318 964 l 615 964 b 671 921 638 964 671 964 b 615 879 671 879 636 879 l 404 879 l 404 -31 l 615 -31 b 671 -74 638 -31 671 -31 "},"\\":{"ha":729,"x_min":0,"x_max":0,"o":"m 647 -67 b 599 -115 647 -92 626 -115 b 550 -78 568 -115 557 -92 l 90 882 b 81 915 86 890 81 904 b 129 964 81 940 101 964 b 178 926 160 964 171 940 l 638 -33 b 647 -67 642 -42 647 -56 "},"]":{"ha":729,"x_min":0,"x_max":0,"o":"m 419 -58 b 364 -115 419 -103 410 -115 l 113 -115 b 57 -72 90 -115 57 -115 b 113 -31 57 -31 92 -31 l 324 -31 l 324 879 l 113 879 b 57 922 90 879 57 879 b 113 964 57 964 92 964 l 364 964 b 419 907 411 964 419 950 l 419 -58 "},"^":{"ha":729,"x_min":0,"x_max":0,"o":"m 607 754 b 574 679 656 731 622 658 l 364 769 l 154 679 b 122 754 107 658 74 731 l 349 864 b 381 864 358 868 371 868 l 607 754 "},"_":{"ha":729,"x_min":0,"x_max":0,"o":"m 650 -183 b 585 -232 650 -232 601 -232 l 143 -232 b 78 -183 126 -232 78 -232 b 143 -135 78 -135 126 -135 l 585 -135 b 650 -183 601 -135 650 -135 "},"`":{"ha":729,"x_min":0,"x_max":0,"o":"m 511 733 b 465 678 511 722 501 678 b 440 685 456 678 449 681 l 256 767 b 217 815 222 782 217 800 b 265 864 217 843 238 864 b 292 857 265 864 276 864 l 476 774 b 511 733 496 765 511 758 "},"a":{"ha":729,"x_min":0,"x_max":0,"o":"m 728 43 b 658 0 728 0 697 0 b 508 44 606 0 539 1 b 306 -8 443 1 357 -8 b 76 178 164 -8 76 82 b 493 385 76 311 247 381 b 315 526 493 483 421 526 b 265 525 303 526 285 526 b 236 510 238 522 236 521 b 175 446 235 458 196 446 b 113 510 142 446 113 468 b 314 611 113 611 254 611 b 589 396 514 611 589 494 l 589 96 b 672 85 600 92 614 85 b 728 43 693 85 728 85 m 493 303 b 172 178 292 297 172 246 b 315 76 172 124 229 76 b 439 100 326 76 389 76 b 493 186 493 125 493 154 "},"b":{"ha":729,"x_min":0,"x_max":0,"o":"m 678 300 b 392 -8 678 124 543 -8 b 231 63 347 -8 288 4 b 183 0 231 28 231 0 b 135 57 135 0 135 29 l 135 764 l 72 764 b 17 806 53 764 17 764 b 74 849 17 849 51 849 l 175 849 b 231 792 222 849 231 835 l 231 539 b 407 607 278 582 340 607 b 678 300 554 607 678 471 m 582 300 b 399 522 582 421 501 522 b 231 367 311 522 231 449 l 231 265 b 388 76 231 199 279 76 b 582 300 485 76 582 167 "},"c":{"ha":729,"x_min":0,"x_max":0,"o":"m 647 151 b 407 -8 647 128 600 -8 b 101 300 232 -8 101 133 b 424 611 101 422 185 611 b 631 510 486 611 631 611 b 568 446 631 469 601 446 b 507 514 535 446 508 465 b 424 526 507 526 453 526 b 197 300 236 526 197 367 b 415 76 197 174 297 76 b 553 160 518 76 544 142 b 599 190 563 188 576 190 b 647 151 607 190 647 190 "},"d":{"ha":729,"x_min":0,"x_max":0,"o":"m 711 43 b 654 0 711 0 676 0 l 553 0 b 497 69 497 0 497 19 b 322 -8 458 29 400 -8 b 50 299 175 -8 50 126 b 335 607 50 475 183 607 b 497 544 394 607 451 585 l 497 764 l 435 764 b 379 806 415 764 379 764 b 436 849 379 849 414 849 l 538 849 b 593 792 585 849 593 835 l 593 85 l 656 85 b 711 43 675 85 711 85 m 497 368 b 340 522 497 444 429 522 b 146 299 243 522 146 432 b 328 76 146 175 229 76 b 497 269 435 76 497 192 "},"e":{"ha":729,"x_min":0,"x_max":0,"o":"m 644 151 b 396 -8 644 117 579 -8 b 76 301 217 -8 76 132 b 375 611 76 472 210 611 b 644 317 556 611 644 475 b 589 265 644 265 618 265 l 175 265 b 406 76 197 146 301 76 b 550 160 444 76 519 89 b 596 190 560 186 571 190 b 644 151 604 190 644 190 m 546 349 b 375 526 533 492 447 526 b 176 349 278 526 196 450 l 546 349 "},"f":{"ha":729,"x_min":0,"x_max":0,"o":"m 607 774 b 547 713 607 735 575 713 b 486 772 499 713 486 767 b 351 664 444 772 351 772 l 351 599 l 521 599 b 576 556 543 599 576 599 b 521 514 576 514 542 514 l 351 514 l 351 85 l 492 85 b 549 42 513 85 549 85 b 492 0 549 0 513 0 l 115 0 b 58 43 94 0 58 0 b 115 85 58 85 94 85 l 256 85 l 256 514 l 115 514 b 60 556 94 514 60 514 b 117 599 60 599 94 599 l 256 599 l 256 672 b 474 857 256 793 363 857 b 607 774 496 857 607 857 "},"g":{"ha":729,"x_min":0,"x_max":0,"o":"m 707 539 b 651 482 707 499 675 482 b 597 529 638 482 606 492 b 517 506 579 528 546 522 b 553 385 540 467 553 426 b 324 161 553 261 451 161 b 199 196 256 161 203 193 b 190 157 193 182 190 163 b 207 107 190 157 192 126 b 253 88 224 88 232 88 b 293 85 264 85 282 85 l 390 85 b 592 44 515 85 574 54 b 688 -114 663 7 688 -62 b 364 -318 688 -232 542 -318 b 40 -114 186 -318 40 -233 b 143 58 40 -99 40 -4 b 111 158 131 75 111 110 b 139 253 111 200 124 231 b 94 385 118 279 94 325 b 324 607 94 503 193 607 b 458 565 388 607 436 581 b 606 614 522 613 590 614 b 707 539 681 614 707 571 m 457 385 b 324 524 457 458 399 524 b 190 383 251 524 190 463 b 324 244 190 310 249 244 b 457 385 396 244 457 306 m 607 -114 b 326 6 607 6 450 6 b 178 -17 225 6 213 6 b 121 -114 133 -44 121 -89 b 364 -235 121 -175 225 -235 b 607 -114 503 -235 607 -175 "},"h":{"ha":729,"x_min":0,"x_max":0,"o":"m 711 42 b 656 0 711 0 675 0 l 443 0 b 386 42 424 0 386 0 b 443 85 386 85 421 85 l 497 85 l 497 400 b 404 522 497 483 478 522 b 231 331 333 522 231 469 l 231 85 l 292 85 b 349 42 314 85 349 85 b 293 0 349 0 313 0 l 72 0 b 17 42 53 0 17 0 b 74 85 17 85 51 85 l 135 85 l 135 764 l 72 764 b 17 806 53 764 17 764 b 74 849 17 849 51 849 l 175 849 b 231 792 222 849 231 835 l 231 533 b 413 607 257 560 319 607 b 593 407 522 607 593 547 l 593 85 l 654 85 b 711 42 676 85 711 85 "},"i":{"ha":729,"x_min":0,"x_max":0,"o":"m 632 42 b 575 0 632 0 596 0 l 165 0 b 108 42 144 0 108 0 b 165 85 108 85 143 85 l 333 85 l 333 514 l 176 514 b 119 557 156 514 119 514 b 176 599 119 599 156 599 l 374 599 b 429 542 421 599 429 585 l 429 85 l 575 85 b 632 42 596 85 632 85 m 435 771 b 365 701 435 732 404 701 b 296 771 326 701 296 732 b 365 840 296 810 326 840 b 435 771 404 840 435 810 "},"j":{"ha":729,"x_min":0,"x_max":0,"o":"m 511 -61 b 260 -317 511 -150 461 -317 b 67 -211 203 -317 67 -317 b 129 -147 67 -171 97 -147 b 190 -210 158 -147 190 -171 b 189 -226 190 -219 190 -222 b 267 -232 210 -229 226 -232 b 379 -179 299 -232 342 -232 b 415 -54 415 -131 415 -78 l 415 514 l 235 514 b 179 556 214 514 179 514 b 236 599 179 599 214 599 l 456 599 b 511 542 503 599 511 585 l 511 -61 m 513 771 b 443 701 513 732 482 701 b 374 771 404 701 374 732 b 443 840 374 810 404 840 b 513 771 482 840 513 810 "},"k":{"ha":729,"x_min":0,"x_max":0,"o":"m 706 42 b 649 0 706 0 669 0 l 485 0 b 429 42 464 0 429 0 b 507 85 429 85 457 85 l 342 300 l 231 197 l 231 85 l 299 85 b 354 42 321 85 354 85 b 299 0 354 0 319 0 l 85 0 b 29 43 63 0 29 0 b 85 85 29 85 64 85 l 153 85 l 153 764 l 85 764 b 29 807 63 764 29 764 b 85 849 29 849 64 849 l 175 849 b 231 792 222 849 231 835 l 231 303 l 456 514 l 404 514 b 349 556 383 514 349 514 b 404 599 349 599 382 599 l 618 599 b 675 556 639 599 675 599 b 618 514 675 514 639 514 l 569 514 l 399 354 l 606 85 l 649 85 b 706 42 669 85 706 85 "},"l":{"ha":729,"x_min":0,"x_max":0,"o":"m 649 42 b 593 0 649 0 614 0 l 136 0 b 81 42 117 0 81 0 b 138 85 81 85 115 85 l 317 85 l 317 764 l 136 764 b 81 806 117 764 81 764 b 138 849 81 849 115 849 l 357 849 b 413 792 404 849 413 835 l 413 85 l 593 85 b 649 42 615 85 649 85 "},"m":{"ha":729,"x_min":0,"x_max":0,"o":"m 717 42 b 660 0 717 0 681 0 l 556 0 b 499 42 536 0 499 0 b 560 85 499 85 533 85 l 560 408 b 508 522 560 499 540 522 b 394 333 451 522 394 457 l 394 85 b 474 42 444 85 474 85 b 417 0 474 0 438 0 l 313 0 b 256 42 293 0 256 0 b 317 85 256 85 290 85 l 317 408 b 265 522 317 499 297 522 b 151 333 208 522 151 457 l 151 85 b 231 42 201 85 231 85 b 174 0 231 0 194 0 l 51 0 b -6 42 32 0 -6 0 b 74 85 -6 85 24 85 l 74 514 b -6 557 24 514 -6 514 b 51 599 -6 599 31 599 l 96 599 b 151 557 121 599 149 599 b 271 607 185 588 226 607 b 376 535 317 607 356 582 b 514 607 415 589 472 607 b 638 421 638 607 638 449 l 638 85 b 717 42 688 85 717 85 "},"n":{"ha":729,"x_min":0,"x_max":0,"o":"m 711 42 b 656 0 711 0 675 0 l 443 0 b 386 42 424 0 386 0 b 443 85 386 85 421 85 l 497 85 l 497 400 b 404 522 497 483 478 522 b 231 331 333 522 231 469 l 231 85 l 292 85 b 349 42 314 85 349 85 b 293 0 349 0 313 0 l 72 0 b 17 42 53 0 17 0 b 74 85 17 85 51 85 l 135 85 l 135 514 l 72 514 b 17 556 53 514 17 514 b 74 599 17 599 51 599 l 175 599 b 231 533 231 599 231 578 b 413 607 257 560 319 607 b 593 407 522 607 593 547 l 593 85 l 654 85 b 711 42 676 85 711 85 "},"o":{"ha":729,"x_min":0,"x_max":0,"o":"m 649 300 b 364 -8 649 125 517 -8 b 79 300 211 -8 79 124 b 364 611 79 474 208 611 b 649 300 519 611 649 474 m 553 310 b 364 526 553 436 464 526 b 175 310 265 526 175 436 b 364 76 175 181 261 76 b 553 310 467 76 553 181 "},"p":{"ha":729,"x_min":0,"x_max":0,"o":"m 678 300 b 392 -8 678 124 543 -8 b 231 63 347 -8 288 4 l 231 -224 l 292 -224 b 349 -267 314 -224 349 -224 b 293 -308 349 -308 313 -308 l 72 -308 b 17 -267 53 -308 17 -308 b 74 -224 17 -224 51 -224 l 135 -224 l 135 514 l 72 514 b 17 556 53 514 17 514 b 74 599 17 599 51 599 l 175 599 b 231 539 228 599 231 579 b 407 607 278 582 340 607 b 678 300 554 607 678 471 m 582 300 b 399 522 582 421 501 522 b 231 367 311 522 231 449 l 231 265 b 388 76 231 199 279 76 b 582 300 485 76 582 167 "},"q":{"ha":729,"x_min":0,"x_max":0,"o":"m 746 -267 b 690 -308 746 -308 711 -308 l 458 -308 b 403 -265 436 -308 403 -308 b 458 -224 403 -224 438 -224 l 526 -224 l 526 75 b 339 -8 497 43 433 -8 b 56 299 186 -8 56 126 b 353 607 56 475 197 607 b 526 531 432 607 489 571 b 575 607 526 583 526 607 b 622 550 622 607 622 576 l 622 -224 l 690 -224 b 746 -267 713 -224 746 -224 m 526 324 b 360 522 526 415 464 522 b 151 299 249 522 151 426 b 344 76 151 174 242 76 b 526 269 458 76 526 190 "},"r":{"ha":729,"x_min":0,"x_max":0,"o":"m 676 521 b 618 461 676 483 649 461 b 558 522 583 461 560 489 b 308 258 390 522 308 389 l 308 85 l 463 85 b 519 42 483 85 519 85 b 463 0 519 0 483 0 l 100 0 b 44 43 78 0 44 0 b 100 85 44 85 79 85 l 213 85 l 213 514 l 100 514 b 44 557 78 514 44 514 b 100 599 44 599 79 599 l 253 599 b 308 542 300 599 308 585 l 308 494 b 544 607 385 582 474 607 b 676 521 660 607 676 549 "},"s":{"ha":729,"x_min":0,"x_max":0,"o":"m 638 174 b 374 -8 638 107 593 -8 b 193 44 335 -8 261 -6 b 142 -8 176 -7 154 -8 b 100 49 100 -8 100 26 l 100 183 b 149 240 100 211 100 240 b 197 200 185 240 190 225 b 375 76 232 92 310 76 b 553 174 501 76 553 122 b 374 276 553 247 442 265 b 100 447 246 296 100 319 b 364 611 100 497 132 611 b 513 582 390 611 451 611 b 554 611 515 592 521 611 b 596 554 596 611 596 576 l 596 458 b 547 401 596 431 596 401 b 500 449 504 401 501 425 b 361 526 496 485 476 526 b 185 447 229 526 185 483 b 319 371 185 393 279 376 l 414 354 b 638 174 458 347 638 318 "},"t":{"ha":729,"x_min":0,"x_max":0,"o":"m 624 175 b 408 -8 624 51 511 -8 b 213 175 307 -8 213 42 l 213 514 l 90 514 b 35 556 69 514 35 514 b 92 599 35 599 69 599 l 213 599 l 213 713 b 261 769 213 740 213 769 b 308 713 308 769 308 739 l 308 599 l 536 599 b 592 556 558 599 592 599 b 536 514 592 514 557 514 l 308 514 l 308 183 b 415 76 308 149 308 76 b 528 176 447 76 526 90 b 575 229 528 200 529 229 b 624 175 624 229 624 200 "},"u":{"ha":729,"x_min":0,"x_max":0,"o":"m 711 43 b 654 0 711 0 676 0 l 553 0 b 497 44 528 0 499 0 b 332 -8 446 6 389 -8 b 135 158 231 -8 135 25 l 135 514 l 72 514 b 17 556 53 514 17 514 b 74 599 17 599 51 599 l 175 599 b 231 542 222 599 231 585 l 231 167 b 340 76 231 122 231 76 b 497 218 385 76 497 93 l 497 514 l 435 514 b 379 556 415 514 379 514 b 436 599 379 599 414 599 l 538 599 b 593 542 585 599 593 585 l 593 85 l 656 85 b 711 43 675 85 711 85 "},"v":{"ha":729,"x_min":0,"x_max":0,"o":"m 694 556 b 639 514 694 514 660 514 l 597 514 l 438 40 b 364 -6 422 -6 390 -6 b 290 42 335 -6 307 -6 l 131 514 l 89 514 b 33 556 68 514 33 514 b 89 599 33 599 67 599 l 251 599 b 307 556 274 599 307 599 b 251 514 307 514 272 514 l 213 514 l 364 67 l 515 514 l 476 514 b 421 557 454 514 421 514 b 476 599 421 599 456 599 l 639 599 b 694 556 661 599 694 599 "},"w":{"ha":729,"x_min":0,"x_max":0,"o":"m 706 557 b 635 514 706 514 676 514 l 551 47 b 490 -6 546 17 542 -6 b 432 18 474 -6 449 -6 b 368 264 426 29 375 192 l 367 264 b 326 92 363 233 361 214 b 242 -6 301 7 297 -6 b 176 47 186 -6 182 15 l 93 514 b 22 557 51 514 22 514 b 81 599 22 599 56 599 l 240 599 b 299 556 267 599 299 599 b 240 514 299 514 265 514 l 172 514 l 244 100 l 246 100 b 311 329 251 128 307 319 b 367 360 326 360 353 360 b 444 257 415 360 419 344 b 485 100 461 200 479 136 l 486 100 l 556 514 l 488 514 b 429 557 461 514 429 514 b 488 599 429 599 463 599 l 647 599 b 706 557 672 599 706 599 "},"x":{"ha":729,"x_min":0,"x_max":0,"o":"m 689 42 b 632 0 689 0 651 0 l 469 0 b 414 42 449 0 414 0 b 483 85 414 85 444 85 l 360 256 l 240 85 b 313 42 283 85 313 85 b 257 0 313 0 278 0 l 94 0 b 38 42 75 0 38 0 b 94 85 38 85 74 85 l 150 85 l 322 308 l 158 514 l 103 514 b 46 556 83 514 46 514 b 103 599 46 599 82 599 l 265 599 b 321 557 286 599 321 599 b 254 514 321 514 290 514 l 360 374 l 463 514 b 394 557 425 514 394 514 b 450 599 394 599 429 599 l 613 599 b 669 556 633 599 669 599 b 613 514 669 514 632 514 l 557 514 l 399 308 l 576 85 l 632 85 b 689 42 653 85 689 85 "},"y":{"ha":729,"x_min":0,"x_max":0,"o":"m 694 556 b 639 514 694 514 660 514 l 597 514 l 382 -118 b 175 -317 376 -133 314 -317 b 60 -203 107 -317 60 -261 b 121 -142 60 -167 83 -142 b 181 -201 156 -142 181 -167 b 174 -232 181 -219 174 -232 b 285 -151 194 -231 244 -228 b 338 0 303 -117 338 0 b 332 18 338 0 338 4 l 135 514 l 92 514 b 36 556 71 514 36 514 b 92 599 36 599 69 599 l 254 599 b 310 556 276 599 310 599 b 254 514 310 514 275 514 l 219 514 l 349 181 b 378 99 358 154 371 125 l 379 99 b 415 218 389 142 397 167 l 515 514 l 476 514 b 421 557 454 514 421 514 b 476 599 421 599 456 599 l 639 599 b 694 556 661 599 694 599 "},"z":{"ha":729,"x_min":0,"x_max":0,"o":"m 660 57 b 629 0 660 36 660 8 l 103 0 b 46 47 76 0 46 0 b 76 103 46 71 47 75 l 510 514 l 164 514 l 164 478 b 115 421 164 450 164 421 b 68 478 68 421 68 451 l 68 542 b 125 599 68 588 79 599 l 597 599 b 654 551 624 599 654 599 b 624 496 654 528 653 524 l 190 85 l 564 85 l 564 138 b 613 194 564 165 564 194 b 660 138 660 194 660 164 l 660 57 "},"{":{"ha":729,"x_min":0,"x_max":0,"o":"m 649 -72 b 590 -115 649 -115 615 -115 b 389 -74 524 -115 447 -106 b 317 71 317 -33 317 29 l 317 301 b 126 382 314 376 163 381 b 79 425 113 382 79 383 b 115 467 79 458 107 467 b 267 489 147 467 217 468 b 317 582 317 511 317 532 l 317 707 b 318 824 317 746 317 815 b 590 964 342 946 493 964 b 649 921 615 964 649 964 b 613 879 649 888 621 879 b 417 824 564 879 442 876 b 413 722 413 813 413 757 l 413 539 b 332 424 411 504 390 458 b 413 290 408 382 413 325 l 413 67 b 601 -31 413 24 413 -26 b 649 -72 614 -31 649 -32 "},"|":{"ha":729,"x_min":0,"x_max":0,"o":"m 413 -50 b 364 -115 413 -67 413 -115 b 315 -50 315 -115 315 -67 l 315 899 b 364 964 315 915 315 964 b 413 899 413 964 413 915 l 413 -50 "},"}":{"ha":729,"x_min":0,"x_max":0,"o":"m 649 424 b 613 382 649 390 621 382 b 463 360 579 382 513 381 b 413 267 413 338 413 317 l 413 142 b 411 25 413 103 413 33 b 138 -115 390 -87 258 -115 b 79 -72 114 -115 79 -115 b 115 -31 79 -39 107 -31 b 317 63 317 -28 317 22 l 317 310 b 397 425 317 315 319 381 b 317 557 338 457 317 501 l 317 781 b 125 879 317 826 317 876 b 79 921 106 879 79 885 b 138 964 79 964 114 964 b 340 922 186 964 274 958 b 413 781 413 882 413 819 l 413 549 b 601 467 415 471 568 468 b 649 424 615 467 649 465 "},"~":{"ha":729,"x_min":0,"x_max":0,"o":"m 608 464 b 540 388 608 439 568 408 b 432 342 508 364 469 342 b 339 389 385 342 357 371 b 296 418 321 406 310 418 b 199 357 276 418 240 396 b 165 342 189 349 181 342 b 122 386 143 342 122 364 b 190 463 122 411 163 442 b 299 508 222 486 261 508 b 392 461 346 508 374 479 b 435 432 410 444 421 432 b 532 493 454 432 490 454 b 565 508 542 501 550 508 b 608 464 588 508 608 486 "}," ":{"ha":729,"x_min":0,"x_max":0,"o":""},"¡":{"ha":729,"x_min":0,"x_max":0,"o":"m 433 471 b 364 401 433 432 403 401 b 294 471 325 401 294 432 b 364 540 294 510 325 540 b 433 471 403 540 433 510 m 433 -244 b 364 -324 433 -318 376 -324 b 294 -244 351 -324 294 -318 b 301 -22 294 -171 300 -94 l 307 218 b 364 285 310 274 315 285 b 419 250 381 285 418 285 l 424 81 l 433 -244 "},"¢":{"ha":729,"x_min":0,"x_max":0,"o":"m 647 151 b 444 -7 647 129 606 10 l 444 -86 b 401 -129 444 -110 425 -129 b 358 -86 378 -129 358 -110 l 358 -4 b 101 300 208 19 101 149 b 358 606 101 410 169 575 l 358 685 b 401 728 358 708 378 728 b 444 685 425 728 444 708 l 444 611 b 631 510 513 610 631 601 b 568 446 631 469 601 446 b 507 514 535 446 508 465 b 444 526 507 524 472 526 l 444 78 b 553 160 524 89 546 143 b 599 190 563 188 576 190 b 647 151 607 190 647 190 m 358 519 b 197 300 226 486 197 358 b 358 85 197 194 267 110 "},"£":{"ha":729,"x_min":0,"x_max":0,"o":"m 704 200 b 547 -15 704 90 646 -15 b 357 78 474 -15 415 35 b 158 -15 321 19 242 -15 b 25 114 85 -15 25 42 b 200 244 25 196 111 244 b 268 231 225 244 247 239 b 206 376 254 281 229 328 l 115 376 b 67 425 89 376 67 397 b 115 474 67 451 89 474 l 160 474 b 133 599 144 513 133 554 b 383 849 133 736 244 849 b 632 626 515 849 632 754 b 571 565 632 593 604 565 b 510 626 538 565 510 593 b 526 668 510 643 517 657 b 383 751 506 719 446 751 b 231 599 299 751 231 682 b 257 474 231 554 242 513 l 481 474 b 529 425 507 474 529 451 b 481 376 529 397 507 376 l 303 376 b 376 161 338 307 374 238 b 547 82 429 121 481 82 b 607 200 596 82 607 143 b 656 249 607 226 629 249 b 704 200 683 249 704 226 m 276 129 b 200 147 253 140 228 147 b 122 114 164 147 122 146 b 158 82 122 96 139 82 b 276 129 208 82 261 94 "},"¤":{"ha":729,"x_min":0,"x_max":0,"o":"m 585 204 b 504 215 550 169 517 204 l 472 249 b 365 218 440 229 404 218 b 257 249 325 218 288 229 l 225 217 b 144 206 213 206 178 171 b 156 286 110 239 144 274 l 188 318 b 158 425 169 349 158 386 b 188 532 158 464 169 501 l 154 565 b 143 646 143 578 108 611 b 224 635 178 681 211 646 l 257 601 b 365 632 288 621 325 632 b 472 601 404 632 440 621 l 503 633 b 583 644 515 644 550 679 b 572 564 618 611 583 576 l 540 533 b 571 425 560 501 571 465 b 540 317 571 385 560 349 l 574 285 b 585 204 585 272 619 239 m 474 425 b 365 535 474 485 425 535 b 256 425 304 535 256 485 b 365 315 256 365 304 315 b 474 425 425 315 474 365 "},"¥":{"ha":729,"x_min":0,"x_max":0,"o":"m 701 806 b 646 764 701 764 667 764 l 617 764 l 529 582 l 583 582 b 632 533 610 582 632 560 b 583 485 632 506 610 485 l 482 485 l 425 365 l 583 365 b 632 317 610 365 632 344 b 583 268 632 290 610 268 l 413 268 l 413 85 l 447 85 b 503 42 469 85 503 85 b 447 0 503 0 468 0 l 282 0 b 226 43 260 0 226 0 b 282 85 226 85 261 85 l 317 85 l 317 268 l 146 268 b 97 317 119 268 97 290 b 146 365 97 344 119 365 l 304 365 l 246 485 l 146 485 b 97 533 119 485 97 506 b 146 582 97 560 119 582 l 199 582 l 111 764 l 82 764 b 26 807 60 764 26 764 b 82 849 26 849 61 849 l 226 849 b 282 807 247 849 282 849 b 218 764 282 764 251 764 l 304 582 l 429 582 l 510 764 b 446 807 476 764 446 764 b 501 849 446 849 481 849 l 646 849 b 701 806 668 849 701 849 m 347 485 b 364 436 354 465 361 449 l 386 485 "},"¦":{"ha":729,"x_min":0,"x_max":0,"o":"m 413 565 b 364 522 413 540 390 522 b 315 565 338 522 315 540 l 315 899 b 364 964 315 915 315 964 b 413 899 413 964 413 915 l 413 565 m 413 -50 b 364 -115 413 -67 413 -115 b 315 -50 315 -115 315 -67 l 315 283 b 364 326 315 308 338 326 b 413 283 390 326 413 308 l 413 -50 "},"§":{"ha":729,"x_min":0,"x_max":0,"o":"m 681 269 b 601 128 681 210 649 158 b 633 35 621 101 633 69 b 365 -169 633 -92 503 -169 b 97 7 232 -169 97 -111 b 158 68 97 40 125 68 b 219 7 192 68 219 40 b 207 -31 219 -7 214 -21 b 365 -72 233 -67 303 -72 b 536 35 450 -72 536 -39 b 397 146 536 99 463 124 l 254 194 b 50 425 144 232 50 314 b 129 565 50 483 82 536 b 97 660 110 593 97 624 b 365 864 97 786 228 864 b 633 688 499 864 633 806 b 572 626 633 654 606 626 b 511 688 539 626 511 654 b 524 725 511 701 517 715 b 365 767 497 761 428 767 b 194 660 281 767 194 733 b 333 549 194 596 268 571 l 476 500 b 681 269 586 463 681 381 m 583 269 b 444 408 583 340 515 383 l 301 457 b 203 501 267 468 233 483 b 147 425 169 493 147 460 b 286 286 147 354 215 311 l 429 238 b 528 192 464 225 497 210 b 583 269 561 201 583 233 "},"¨":{"ha":729,"x_min":0,"x_max":0,"o":"m 313 771 b 250 708 313 736 285 708 b 188 771 215 708 188 736 b 250 833 188 807 215 833 b 313 771 285 833 313 807 m 542 771 b 479 708 542 736 514 708 b 417 771 444 708 417 736 b 479 833 417 807 444 833 b 542 771 514 833 542 807 "},"©":{"ha":729,"x_min":0,"x_max":0,"o":"m 729 365 b 365 0 729 164 565 0 b 0 365 164 0 0 164 b 365 729 0 565 164 729 b 729 365 565 729 729 565 m 676 365 b 365 676 676 536 536 676 b 53 365 193 676 53 536 b 365 53 53 193 193 53 b 676 365 536 53 676 193 m 503 261 b 351 128 503 194 439 128 b 171 365 254 128 171 228 b 351 601 171 501 254 601 b 449 565 389 601 424 588 b 460 589 458 585 458 586 b 481 601 464 594 467 601 b 503 571 503 601 503 583 l 503 467 b 476 436 503 451 503 436 b 451 461 454 436 453 449 b 354 556 440 522 399 556 b 222 365 288 556 222 476 b 354 174 222 253 286 174 b 451 264 386 174 446 192 b 476 286 453 286 471 286 b 503 261 485 286 503 286 "},"ª":{"ha":729,"x_min":0,"x_max":0,"o":"m 593 467 b 544 436 593 436 571 436 b 439 468 507 436 460 438 b 297 431 393 438 333 431 b 136 561 197 431 136 493 b 428 706 136 654 256 703 b 304 804 428 775 378 804 l 269 804 b 249 793 250 801 249 801 b 206 749 247 757 221 749 b 163 793 182 749 163 764 b 303 864 163 864 261 864 b 496 714 443 864 496 782 l 496 503 b 554 496 503 500 513 496 b 593 467 568 496 593 496 m 550 358 b 507 329 550 342 531 329 l 222 329 b 179 358 199 329 179 342 b 222 389 179 375 199 389 l 507 389 b 550 358 531 389 550 375 m 428 649 b 204 561 288 644 204 608 b 304 490 204 522 243 490 b 390 507 311 490 356 490 b 428 567 428 524 428 544 "},"«":{"ha":729,"x_min":0,"x_max":0,"o":"m 664 157 b 633 113 664 128 649 113 b 608 125 625 113 622 114 l 306 386 b 290 425 297 394 290 408 b 310 467 290 449 301 458 l 608 725 b 633 738 622 736 625 738 b 664 693 649 738 664 722 b 643 651 664 669 653 660 l 382 425 l 643 199 b 664 157 653 190 664 181 m 439 157 b 408 113 439 128 424 113 b 383 125 401 113 397 114 l 81 386 b 65 425 72 394 65 408 b 85 467 65 449 76 458 l 383 725 b 408 738 397 736 401 738 b 439 693 424 738 439 722 b 418 651 439 669 428 660 l 157 425 l 418 199 b 439 157 428 190 439 181 "},"¬":{"ha":729,"x_min":0,"x_max":0,"o":"m 675 319 b 626 271 675 293 653 271 b 578 319 600 271 578 293 l 578 482 l 101 482 b 53 531 75 482 53 504 b 101 579 53 557 75 579 l 626 579 b 675 531 653 579 675 557 l 675 319 "},"®":{"ha":729,"x_min":0,"x_max":0,"o":"m 729 365 b 365 0 729 164 565 0 b 0 365 164 0 0 164 b 365 729 0 565 164 729 b 729 365 565 729 729 565 m 676 365 b 365 676 676 536 536 676 b 53 365 193 676 53 536 b 365 53 53 193 193 53 b 676 365 536 53 676 193 m 572 210 b 507 132 572 181 554 132 b 449 165 482 132 461 143 b 435 261 435 190 435 213 b 418 325 435 293 435 310 b 357 346 393 346 371 346 l 299 346 l 299 186 l 317 186 b 347 163 329 186 347 186 b 317 140 347 140 328 140 l 228 140 b 199 163 217 140 199 140 b 228 186 199 186 217 186 l 247 186 l 247 551 l 228 551 b 199 575 217 551 199 551 b 228 597 199 597 217 597 l 361 597 b 506 472 449 597 506 536 b 443 368 506 442 492 396 b 479 322 453 360 469 343 b 486 251 486 304 486 299 b 507 178 486 211 486 178 b 521 211 519 178 521 206 b 547 233 522 233 539 233 b 572 210 554 233 572 233 m 454 472 b 353 551 454 508 421 551 l 299 551 l 299 392 l 353 392 b 454 472 421 392 454 435 "},"¯":{"ha":729,"x_min":0,"x_max":0,"o":"m 628 771 b 572 728 628 728 594 728 l 160 728 b 103 772 136 728 103 728 b 158 815 103 815 136 815 l 572 815 b 628 771 596 815 628 815 "},"°":{"ha":729,"x_min":0,"x_max":0,"o":"m 567 646 b 365 443 567 535 476 443 b 163 646 253 443 163 535 b 365 849 163 758 253 849 b 567 646 476 849 567 758 m 469 646 b 365 751 469 704 422 751 b 260 646 307 751 260 704 b 365 540 260 588 307 540 b 469 646 422 540 469 588 "},"±":{"ha":729,"x_min":0,"x_max":0,"o":"m 675 49 b 610 0 675 0 626 0 l 118 0 b 53 49 101 0 53 0 b 118 97 53 97 101 97 l 315 97 l 315 264 l 118 264 b 53 313 101 264 53 264 b 118 361 53 361 101 361 l 315 361 l 315 560 b 364 625 315 576 315 625 b 413 560 413 625 413 576 l 413 361 l 610 361 b 675 313 626 361 675 361 b 610 264 675 264 626 264 l 413 264 l 413 97 l 610 97 b 675 49 626 97 675 97 "},"²":{"ha":729,"x_min":0,"x_max":0,"o":"m 511 461 b 483 432 511 439 506 432 l 247 432 b 219 454 236 432 219 432 b 229 472 219 464 224 467 l 383 601 b 463 729 429 640 463 681 b 353 822 463 790 410 822 b 271 768 314 822 282 800 b 281 746 278 764 281 754 b 250 715 281 726 265 715 b 219 749 239 715 219 722 b 356 864 219 807 274 864 b 511 729 440 864 511 813 b 435 590 511 674 479 629 b 297 475 406 563 339 510 l 463 475 b 488 507 463 494 463 507 b 511 479 511 507 511 492 l 511 461 "},"³":{"ha":729,"x_min":0,"x_max":0,"o":"m 517 553 b 367 425 517 489 457 425 b 214 526 281 425 214 465 b 244 560 214 549 229 560 b 275 529 263 560 275 546 b 267 507 275 515 271 511 b 367 467 285 475 339 467 b 468 553 429 467 468 511 b 364 640 468 593 433 640 l 332 640 b 304 661 321 640 304 640 b 354 685 304 682 315 682 b 419 706 379 686 397 688 b 449 765 438 721 449 744 b 367 822 449 797 414 822 b 289 800 360 822 311 822 b 296 782 292 799 296 792 b 265 750 296 763 279 750 b 233 783 251 750 233 760 b 365 864 233 831 282 864 b 496 767 446 864 496 818 b 438 664 496 729 476 689 b 517 553 483 643 517 603 "},"´":{"ha":729,"x_min":0,"x_max":0,"o":"m 513 815 b 474 767 513 800 507 782 l 289 685 b 264 678 281 681 274 678 b 218 733 228 678 218 722 b 253 774 218 758 233 765 l 438 857 b 464 864 453 864 464 864 b 513 815 492 864 513 843 "},"µ":{"ha":729,"x_min":0,"x_max":0,"o":"m 713 42 b 653 0 713 0 676 0 l 557 0 b 496 43 532 0 499 0 b 332 -8 453 11 403 -8 b 231 7 317 -8 271 -8 l 231 -224 l 289 -224 b 349 -267 314 -224 349 -224 b 289 -308 349 -308 313 -308 l 75 -308 b 15 -265 50 -308 15 -308 b 75 -224 15 -224 51 -224 l 133 -224 l 133 513 l 75 513 b 15 556 50 513 15 513 b 75 597 15 597 51 597 l 171 597 b 231 538 221 597 231 586 l 231 168 b 340 76 231 121 231 76 b 453 113 360 76 407 76 b 497 219 497 149 497 190 l 497 513 l 439 513 b 379 556 414 513 379 513 b 439 597 379 597 415 597 l 535 597 b 594 538 585 597 594 586 l 594 85 l 653 85 b 713 42 678 85 713 85 "},"¶":{"ha":729,"x_min":0,"x_max":0,"o":"m 694 936 b 656 908 694 908 672 908 l 596 908 l 596 -224 b 572 -269 596 -243 596 -269 b 547 -224 547 -269 547 -243 l 547 908 l 464 908 l 464 -224 b 440 -269 464 -243 464 -269 b 417 -224 417 -269 417 -243 l 417 319 b 67 643 264 326 67 425 b 365 964 67 818 199 964 l 656 964 b 694 936 672 964 694 964 "},"·":{"ha":729,"x_min":0,"x_max":0,"o":"m 451 424 b 364 338 451 381 417 338 b 278 425 319 338 278 374 b 365 511 278 468 313 511 b 451 424 410 511 451 475 "},"¸":{"ha":729,"x_min":0,"x_max":0,"o":"m 594 -147 b 268 -289 594 -289 400 -289 b 225 -246 247 -289 225 -278 b 308 -203 225 -203 256 -203 b 499 -147 361 -203 499 -203 b 406 -92 499 -119 467 -94 b 361 -33 361 -89 361 -61 l 361 4 b 410 63 361 32 361 63 b 457 -12 457 63 457 39 b 594 -147 556 -32 594 -93 "},"¹":{"ha":729,"x_min":0,"x_max":0,"o":"m 482 453 b 454 432 482 432 464 432 l 279 432 b 251 453 269 432 251 432 b 279 475 251 475 268 475 l 343 475 l 343 768 b 271 738 313 742 283 738 b 247 758 260 738 247 740 b 274 779 247 778 263 779 b 349 847 286 781 322 789 b 369 864 353 856 357 864 b 390 836 390 864 390 847 l 390 475 l 454 475 b 482 453 465 475 482 475 "},"º":{"ha":729,"x_min":0,"x_max":0,"o":"m 564 646 b 365 431 564 524 471 431 b 165 646 258 431 165 522 b 365 864 165 768 256 864 b 564 646 474 864 564 768 m 521 358 b 478 329 521 342 501 329 l 251 329 b 208 358 228 329 208 342 b 251 389 208 375 228 389 l 478 389 b 521 358 501 389 521 375 m 497 653 b 365 804 497 742 435 804 b 232 653 296 804 232 742 b 365 490 232 563 293 490 b 497 653 436 490 497 563 "},"»":{"ha":729,"x_min":0,"x_max":0,"o":"m 663 425 b 647 386 663 408 656 394 l 344 125 b 319 113 331 114 326 113 b 289 157 304 113 289 128 b 310 199 289 181 300 190 l 571 425 l 310 651 b 289 693 300 660 289 669 b 319 738 289 722 304 738 b 344 725 326 738 331 736 l 643 467 b 663 425 651 458 663 449 m 438 425 b 422 386 438 408 431 394 l 119 125 b 94 113 106 114 103 113 b 64 157 79 113 64 128 b 85 199 64 181 75 190 l 346 425 l 85 651 b 64 693 75 660 64 669 b 94 738 64 722 79 738 b 119 725 103 738 106 736 l 418 467 b 438 425 426 458 438 449 "},"¼":{"ha":729,"x_min":0,"x_max":0,"o":"m 271 453 b 243 432 271 432 253 432 l 68 432 b 40 453 58 432 40 432 b 68 475 40 475 57 475 l 132 475 l 132 768 b 60 738 101 742 72 738 b 36 758 49 738 36 740 b 63 779 36 778 51 779 b 138 847 75 781 111 789 b 158 864 142 856 146 864 b 179 836 179 864 179 847 l 179 475 l 243 475 b 271 453 254 475 271 475 m 693 139 b 665 118 693 118 676 118 l 611 118 l 611 43 l 654 43 b 682 21 665 43 682 43 b 654 0 682 0 665 0 l 529 0 b 501 21 519 0 501 0 b 529 43 501 43 518 43 l 572 43 l 572 118 l 397 118 b 369 146 376 118 369 122 b 376 169 369 160 369 161 l 535 418 b 564 433 543 432 547 433 l 583 433 b 611 404 607 433 611 428 l 611 160 l 665 160 b 693 139 676 160 693 160 m 668 821 b 663 797 668 813 667 804 l 225 4 b 182 -21 217 -11 200 -21 b 133 28 156 -21 133 1 b 140 51 133 36 136 44 l 578 844 b 619 869 586 860 601 869 b 668 821 647 869 668 847 m 572 403 l 418 160 l 572 160 "},"½":{"ha":729,"x_min":0,"x_max":0,"o":"m 271 453 b 243 432 271 432 253 432 l 68 432 b 40 453 58 432 40 432 b 68 475 40 475 57 475 l 132 475 l 132 768 b 60 738 101 742 72 738 b 36 758 49 738 36 740 b 63 779 36 778 51 779 b 138 847 75 781 111 789 b 158 864 142 856 146 864 b 179 836 179 864 179 847 l 179 475 l 243 475 b 271 453 254 475 271 475 m 693 29 b 665 0 693 7 689 0 l 431 0 b 401 22 419 0 401 0 b 413 40 401 32 406 35 l 565 169 b 646 297 611 208 646 249 b 535 390 646 358 592 390 b 454 336 497 390 464 368 b 464 314 460 332 464 322 b 433 283 464 294 447 283 b 401 317 421 283 401 290 b 539 432 401 375 457 432 b 693 297 624 432 693 381 b 618 158 693 242 661 197 b 481 43 588 131 521 78 l 646 43 b 669 75 646 63 646 75 b 693 47 693 75 693 60 l 693 29 m 632 821 b 626 797 632 813 629 804 l 189 4 b 146 -21 181 -11 164 -21 b 97 28 119 -21 97 1 b 103 51 97 36 100 44 l 540 844 b 583 869 549 860 565 869 b 632 821 610 869 632 847 "},"¾":{"ha":729,"x_min":0,"x_max":0,"o":"m 333 553 b 183 425 333 489 275 425 b 31 526 99 425 31 465 b 63 560 31 549 46 560 b 93 529 79 560 93 546 b 85 507 93 515 88 511 b 183 467 103 475 156 467 b 286 553 247 467 286 511 b 182 640 286 593 250 640 l 150 640 b 122 661 139 640 122 640 b 172 685 122 682 132 682 b 236 706 197 686 214 688 b 265 765 256 721 265 744 b 183 822 265 797 231 822 b 107 800 178 822 128 822 b 113 782 108 799 113 792 b 82 750 113 763 97 750 b 51 783 68 750 51 760 b 183 864 51 831 100 864 b 314 767 263 864 314 818 b 256 664 314 729 294 689 b 333 553 301 643 333 603 m 693 139 b 665 118 693 118 676 118 l 611 118 l 611 43 l 654 43 b 682 21 665 43 682 43 b 654 0 682 0 665 0 l 529 0 b 501 21 519 0 501 0 b 529 43 501 43 518 43 l 572 43 l 572 118 l 397 118 b 369 146 376 118 369 122 b 376 169 369 160 369 161 l 535 418 b 564 433 543 432 547 433 l 583 433 b 611 404 607 433 611 428 l 611 160 l 665 160 b 693 139 676 160 693 160 m 668 821 b 663 797 668 813 667 804 l 225 4 b 182 -21 217 -11 200 -21 b 133 28 156 -21 133 1 b 140 51 133 36 136 44 l 578 844 b 619 869 586 860 601 869 b 668 821 647 869 668 847 m 572 403 l 418 160 l 572 160 "},"¿":{"ha":729,"x_min":0,"x_max":0,"o":"m 413 471 b 343 401 413 432 382 401 b 274 471 304 401 274 432 b 343 540 274 510 304 540 b 413 471 382 540 413 510 m 642 -147 b 344 -317 642 -317 389 -317 b 86 -144 97 -317 86 -178 b 168 -8 86 -64 144 -25 b 288 204 282 68 288 160 l 288 228 b 343 285 288 278 301 285 b 399 213 399 285 399 267 b 225 -78 399 157 399 39 b 182 -144 208 -89 182 -107 b 346 -232 182 -232 318 -232 b 531 -185 368 -232 483 -232 b 518 -144 521 -174 518 -158 b 579 -82 518 -106 550 -82 b 642 -147 608 -82 642 -103 "},"À":{"ha":729,"x_min":0,"x_max":0,"o":"m 690 42 b 631 0 690 0 654 0 l 489 0 b 431 42 464 0 431 0 b 508 85 431 85 458 85 l 476 229 l 251 229 l 219 85 b 297 42 269 85 297 85 b 239 0 297 0 264 0 l 97 0 b 38 42 74 0 38 0 b 61 82 38 60 46 74 b 121 85 69 85 101 85 l 289 813 b 364 865 301 865 324 865 b 439 811 407 865 426 864 l 607 85 b 667 81 628 85 658 85 b 690 42 683 74 690 60 m 364 750 l 272 314 l 456 314 m 511 990 b 465 935 511 979 501 935 b 440 942 456 935 449 938 l 256 1024 b 217 1072 222 1039 217 1057 b 265 1121 217 1100 238 1121 b 292 1114 265 1121 276 1121 l 476 1031 b 511 990 496 1022 511 1015 "},"Á":{"ha":729,"x_min":0,"x_max":0,"o":"m 690 42 b 631 0 690 0 654 0 l 489 0 b 431 42 464 0 431 0 b 508 85 431 85 458 85 l 476 229 l 251 229 l 219 85 b 297 42 269 85 297 85 b 239 0 297 0 264 0 l 97 0 b 38 42 74 0 38 0 b 61 82 38 60 46 74 b 121 85 69 85 101 85 l 289 813 b 364 865 301 865 324 865 b 439 811 407 865 426 864 l 607 85 b 667 81 628 85 658 85 b 690 42 683 74 690 60 m 364 750 l 272 314 l 456 314 m 513 1072 b 474 1024 513 1057 507 1039 l 289 942 b 264 935 281 938 274 935 b 218 990 228 935 218 979 b 253 1031 218 1015 233 1022 l 438 1114 b 464 1121 453 1121 464 1121 b 513 1072 492 1121 513 1100 "},"Â":{"ha":729,"x_min":0,"x_max":0,"o":"m 690 42 b 631 0 690 0 654 0 l 489 0 b 431 42 464 0 431 0 b 508 85 431 85 458 85 l 476 229 l 251 229 l 219 85 b 297 42 269 85 297 85 b 239 0 297 0 264 0 l 97 0 b 38 42 74 0 38 0 b 61 82 38 60 46 74 b 121 85 69 85 101 85 l 289 813 b 364 865 301 865 324 865 b 439 811 407 865 426 864 l 607 85 b 667 81 628 85 658 85 b 690 42 683 74 690 60 m 364 750 l 272 314 l 456 314 m 543 1001 b 517 924 592 983 567 908 l 365 969 l 214 924 b 189 1001 164 908 139 983 l 353 1061 b 379 1061 361 1064 371 1064 l 543 1001 "},"Ã":{"ha":729,"x_min":0,"x_max":0,"o":"m 690 42 b 631 0 690 0 654 0 l 489 0 b 431 42 464 0 431 0 b 508 85 431 85 458 85 l 476 229 l 251 229 l 219 85 b 297 42 269 85 297 85 b 239 0 297 0 264 0 l 97 0 b 38 42 74 0 38 0 b 61 82 38 60 46 74 b 121 85 69 85 101 85 l 289 813 b 364 865 301 865 324 865 b 439 811 407 865 426 864 l 607 85 b 667 81 628 85 658 85 b 690 42 683 74 690 60 m 364 750 l 272 314 l 456 314 m 608 1043 b 540 967 608 1018 568 988 b 432 921 508 943 469 921 b 339 968 385 921 357 950 b 296 997 321 985 310 997 b 199 936 276 997 240 975 b 165 921 189 928 181 921 b 122 965 143 921 122 943 b 190 1042 122 990 163 1021 b 299 1088 222 1065 261 1088 b 392 1040 346 1088 374 1058 b 435 1011 410 1024 421 1011 b 532 1072 454 1011 490 1033 b 565 1088 542 1081 550 1088 b 608 1043 588 1088 608 1065 "},"Ä":{"ha":729,"x_min":0,"x_max":0,"o":"m 690 42 b 631 0 690 0 654 0 l 489 0 b 431 42 464 0 431 0 b 508 85 431 85 458 85 l 476 229 l 251 229 l 219 85 b 297 42 269 85 297 85 b 239 0 297 0 264 0 l 97 0 b 38 42 74 0 38 0 b 61 82 38 60 46 74 b 121 85 69 85 101 85 l 289 813 b 364 865 301 865 324 865 b 439 811 407 865 426 864 l 607 85 b 667 81 628 85 658 85 b 690 42 683 74 690 60 m 364 750 l 272 314 l 456 314 m 292 983 b 229 921 292 949 264 921 b 167 983 194 921 167 949 b 229 1046 167 1019 194 1046 b 292 983 264 1046 292 1019 m 563 983 b 500 921 563 949 535 921 b 438 983 465 921 438 949 b 500 1046 438 1019 465 1046 b 563 983 535 1046 563 1019 "},"Å":{"ha":729,"x_min":0,"x_max":0,"o":"m 690 42 b 631 0 690 0 654 0 l 489 0 b 431 42 464 0 431 0 b 508 85 431 85 458 85 l 476 229 l 251 229 l 219 85 b 297 42 269 85 297 85 b 239 0 297 0 264 0 l 97 0 b 38 42 74 0 38 0 b 61 82 38 60 46 74 b 121 85 69 85 101 85 l 289 813 b 364 865 301 865 324 865 b 439 811 407 865 426 864 l 607 85 b 667 81 628 85 658 85 b 690 42 683 74 690 60 m 364 750 l 272 314 l 456 314 m 431 965 b 365 1013 431 992 397 1013 b 300 965 333 1013 300 992 b 365 918 300 939 333 918 b 431 965 397 918 431 939 m 500 965 b 365 865 500 914 443 865 b 231 965 288 865 231 914 b 365 1065 231 1017 288 1065 b 500 965 443 1065 500 1017 "},"Æ":{"ha":729,"x_min":0,"x_max":0,"o":"m 693 57 b 638 0 693 13 683 0 l 368 0 b 311 43 346 0 311 0 b 367 85 311 85 347 85 l 367 254 l 213 254 l 178 85 b 242 42 210 85 242 85 b 186 0 242 0 207 0 l 88 0 b 32 42 67 0 32 0 b 99 85 32 85 63 85 l 236 764 b 181 807 214 764 181 764 b 236 849 181 849 215 849 l 626 849 b 682 792 674 849 682 835 l 682 690 b 643 633 682 671 682 633 b 604 690 604 633 604 671 l 604 764 l 444 764 l 444 482 l 604 482 b 660 439 626 482 660 482 b 604 397 660 397 625 397 l 444 397 l 444 85 l 615 85 l 615 181 b 654 238 615 200 615 238 b 693 181 693 238 693 200 l 693 57 m 367 764 l 315 764 l 229 339 l 367 339 "},"Ç":{"ha":729,"x_min":0,"x_max":0,"o":"m 672 233 b 475 -4 672 131 593 29 l 475 -12 b 613 -147 574 -32 613 -93 b 286 -289 613 -289 418 -289 b 243 -246 265 -289 243 -278 b 326 -203 243 -203 274 -203 b 517 -147 379 -203 517 -203 b 424 -92 517 -119 485 -94 b 379 -33 379 -89 379 -61 l 379 -15 b 56 425 204 -7 56 176 b 390 864 56 678 211 864 b 571 797 461 864 525 836 b 592 840 589 832 589 835 b 631 864 599 850 606 864 b 672 807 672 864 672 829 l 672 614 b 624 557 672 586 672 557 b 575 603 582 557 579 579 b 396 779 556 715 479 779 b 151 425 272 779 151 632 b 397 69 151 217 271 69 b 576 239 454 69 567 103 b 624 279 579 279 611 279 b 672 233 639 279 672 279 "},"È":{"ha":729,"x_min":0,"x_max":0,"o":"m 697 57 b 642 0 697 13 688 0 l 93 0 b 36 42 72 0 36 0 b 93 85 36 85 71 85 l 135 85 l 135 764 l 93 764 b 36 807 72 764 36 764 b 93 849 36 849 72 849 l 611 849 b 667 792 658 849 667 835 l 667 690 b 618 633 667 663 667 633 b 571 690 571 633 571 664 l 571 764 l 231 764 l 231 482 l 413 482 b 461 561 413 539 413 561 b 508 504 508 561 508 531 l 508 375 b 461 318 508 349 508 318 b 413 397 413 318 413 340 l 231 397 l 231 85 l 601 85 l 601 181 b 650 238 601 208 601 238 b 697 181 697 238 697 207 l 697 57 m 511 990 b 465 935 511 979 501 935 b 440 942 456 935 449 938 l 256 1024 b 217 1072 222 1039 217 1057 b 265 1121 217 1100 238 1121 b 292 1114 265 1121 276 1121 l 476 1031 b 511 990 496 1022 511 1015 "},"É":{"ha":729,"x_min":0,"x_max":0,"o":"m 697 57 b 642 0 697 13 688 0 l 93 0 b 36 42 72 0 36 0 b 93 85 36 85 71 85 l 135 85 l 135 764 l 93 764 b 36 807 72 764 36 764 b 93 849 36 849 72 849 l 611 849 b 667 792 658 849 667 835 l 667 690 b 618 633 667 663 667 633 b 571 690 571 633 571 664 l 571 764 l 231 764 l 231 482 l 413 482 b 461 561 413 539 413 561 b 508 504 508 561 508 531 l 508 375 b 461 318 508 349 508 318 b 413 397 413 318 413 340 l 231 397 l 231 85 l 601 85 l 601 181 b 650 238 601 208 601 238 b 697 181 697 238 697 207 l 697 57 m 513 1072 b 474 1024 513 1057 507 1039 l 289 942 b 264 935 281 938 274 935 b 218 990 228 935 218 979 b 253 1031 218 1015 233 1022 l 438 1114 b 464 1121 453 1121 464 1121 b 513 1072 492 1121 513 1100 "},"Ê":{"ha":729,"x_min":0,"x_max":0,"o":"m 697 57 b 642 0 697 13 688 0 l 93 0 b 36 42 72 0 36 0 b 93 85 36 85 71 85 l 135 85 l 135 764 l 93 764 b 36 807 72 764 36 764 b 93 849 36 849 72 849 l 611 849 b 667 792 658 849 667 835 l 667 690 b 618 633 667 663 667 633 b 571 690 571 633 571 664 l 571 764 l 231 764 l 231 482 l 413 482 b 461 561 413 539 413 561 b 508 504 508 561 508 531 l 508 375 b 461 318 508 349 508 318 b 413 397 413 318 413 340 l 231 397 l 231 85 l 601 85 l 601 181 b 650 238 601 208 601 238 b 697 181 697 238 697 207 l 697 57 m 543 1001 b 517 924 592 983 567 908 l 365 969 l 214 924 b 189 1001 164 908 139 983 l 353 1061 b 379 1061 361 1064 371 1064 l 543 1001 "},"Ë":{"ha":729,"x_min":0,"x_max":0,"o":"m 697 57 b 642 0 697 13 688 0 l 93 0 b 36 42 72 0 36 0 b 93 85 36 85 71 85 l 135 85 l 135 764 l 93 764 b 36 807 72 764 36 764 b 93 849 36 849 72 849 l 611 849 b 667 792 658 849 667 835 l 667 690 b 618 633 667 663 667 633 b 571 690 571 633 571 664 l 571 764 l 231 764 l 231 482 l 413 482 b 461 561 413 539 413 561 b 508 504 508 561 508 531 l 508 375 b 461 318 508 349 508 318 b 413 397 413 318 413 340 l 231 397 l 231 85 l 601 85 l 601 181 b 650 238 601 208 601 238 b 697 181 697 238 697 207 l 697 57 m 292 983 b 229 921 292 949 264 921 b 167 983 194 921 167 949 b 229 1046 167 1019 194 1046 b 292 983 264 1046 292 1019 m 563 983 b 500 921 563 949 535 921 b 438 983 465 921 438 949 b 500 1046 438 1019 465 1046 b 563 983 535 1046 563 1019 "},"Ì":{"ha":729,"x_min":0,"x_max":0,"o":"m 619 42 b 563 0 619 0 583 0 l 167 0 b 110 43 146 0 110 0 b 167 85 110 85 146 85 l 317 85 l 317 764 l 167 764 b 110 807 146 764 110 764 b 167 849 110 849 146 849 l 563 849 b 619 806 583 849 619 849 b 563 764 619 764 583 764 l 413 764 l 413 85 l 563 85 b 619 42 583 85 619 85 m 511 990 b 465 935 511 979 501 935 b 440 942 456 935 449 938 l 256 1024 b 217 1072 222 1039 217 1057 b 265 1121 217 1100 238 1121 b 292 1114 265 1121 276 1121 l 476 1031 b 511 990 496 1022 511 1015 "},"Í":{"ha":729,"x_min":0,"x_max":0,"o":"m 619 42 b 563 0 619 0 583 0 l 167 0 b 110 43 146 0 110 0 b 167 85 110 85 146 85 l 317 85 l 317 764 l 167 764 b 110 807 146 764 110 764 b 167 849 110 849 146 849 l 563 849 b 619 806 583 849 619 849 b 563 764 619 764 583 764 l 413 764 l 413 85 l 563 85 b 619 42 583 85 619 85 m 513 1072 b 474 1024 513 1057 507 1039 l 289 942 b 264 935 281 938 274 935 b 218 990 228 935 218 979 b 253 1031 218 1015 233 1022 l 438 1114 b 464 1121 453 1121 464 1121 b 513 1072 492 1121 513 1100 "},"Î":{"ha":729,"x_min":0,"x_max":0,"o":"m 619 42 b 563 0 619 0 583 0 l 167 0 b 110 43 146 0 110 0 b 167 85 110 85 146 85 l 317 85 l 317 764 l 167 764 b 110 807 146 764 110 764 b 167 849 110 849 146 849 l 563 849 b 619 806 583 849 619 849 b 563 764 619 764 583 764 l 413 764 l 413 85 l 563 85 b 619 42 583 85 619 85 m 543 1001 b 517 924 592 983 567 908 l 365 969 l 214 924 b 189 1001 164 908 139 983 l 353 1061 b 379 1061 361 1064 371 1064 l 543 1001 "},"Ï":{"ha":729,"x_min":0,"x_max":0,"o":"m 619 42 b 563 0 619 0 583 0 l 167 0 b 110 43 146 0 110 0 b 167 85 110 85 146 85 l 317 85 l 317 764 l 167 764 b 110 807 146 764 110 764 b 167 849 110 849 146 849 l 563 849 b 619 806 583 849 619 849 b 563 764 619 764 583 764 l 413 764 l 413 85 l 563 85 b 619 42 583 85 619 85 m 292 983 b 229 921 292 949 264 921 b 167 983 194 921 167 949 b 229 1046 167 1019 194 1046 b 292 983 264 1046 292 1019 m 563 983 b 500 921 563 949 535 921 b 438 983 465 921 438 949 b 500 1046 438 1019 465 1046 b 563 983 535 1046 563 1019 "},"Ð":{"ha":729,"x_min":0,"x_max":0,"o":"m 674 418 b 369 0 674 194 551 0 l 83 0 b 26 42 63 0 26 0 b 83 85 26 85 61 85 l 114 85 l 114 382 l 75 382 b 32 425 51 382 32 400 b 75 468 32 449 51 468 l 114 468 l 114 764 l 83 764 b 26 806 63 764 26 764 b 83 849 26 849 61 849 l 369 849 b 674 418 554 849 674 640 m 578 418 b 343 764 578 579 500 764 l 210 764 l 210 468 l 292 468 b 335 425 315 468 335 449 b 292 382 335 400 315 382 l 210 382 l 210 85 l 343 85 b 578 418 497 85 578 256 "},"Ñ":{"ha":729,"x_min":0,"x_max":0,"o":"m 689 806 b 633 764 689 764 654 764 l 599 764 l 599 57 b 540 0 599 4 582 0 b 464 50 504 0 482 1 l 208 744 l 207 744 l 207 85 l 242 85 b 297 42 264 85 297 85 b 242 0 297 0 263 0 l 94 0 b 39 43 72 0 39 0 b 94 85 39 85 74 85 l 129 85 l 129 764 l 94 764 b 39 807 72 764 39 764 b 94 849 39 849 74 849 l 189 849 b 264 799 226 849 247 844 l 519 104 l 521 104 l 521 764 l 486 764 b 431 806 465 764 431 764 b 486 849 431 849 464 849 l 633 849 b 689 806 656 849 689 849 m 608 1043 b 540 967 608 1018 568 988 b 432 921 508 943 469 921 b 339 968 385 921 357 950 b 296 997 321 985 310 997 b 199 936 276 997 240 975 b 165 921 189 928 181 921 b 122 965 143 921 122 943 b 190 1042 122 990 163 1021 b 299 1088 222 1065 261 1088 b 392 1040 346 1088 374 1058 b 435 1011 410 1024 421 1011 b 532 1072 454 1011 490 1033 b 565 1088 542 1081 550 1088 b 608 1043 588 1088 608 1065 "},"Ò":{"ha":729,"x_min":0,"x_max":0,"o":"m 650 424 b 364 -15 650 22 619 -15 b 78 424 107 -15 78 22 b 364 864 78 826 107 864 b 650 424 621 864 650 825 m 554 436 b 538 690 554 521 554 625 b 364 779 517 767 468 779 b 189 681 250 779 207 763 b 174 436 174 617 174 522 b 190 168 174 360 174 239 b 364 69 207 99 242 69 b 539 176 488 69 524 99 b 554 436 554 251 554 350 m 511 990 b 465 935 511 979 501 935 b 440 942 456 935 449 938 l 256 1024 b 217 1072 222 1039 217 1057 b 265 1121 217 1100 238 1121 b 292 1114 265 1121 276 1121 l 476 1031 b 511 990 496 1022 511 1015 "},"Ó":{"ha":729,"x_min":0,"x_max":0,"o":"m 650 424 b 364 -15 650 22 619 -15 b 78 424 107 -15 78 22 b 364 864 78 826 107 864 b 650 424 621 864 650 825 m 554 436 b 538 690 554 521 554 625 b 364 779 517 767 468 779 b 189 681 250 779 207 763 b 174 436 174 617 174 522 b 190 168 174 360 174 239 b 364 69 207 99 242 69 b 539 176 488 69 524 99 b 554 436 554 251 554 350 m 513 1072 b 474 1024 513 1057 507 1039 l 289 942 b 264 935 281 938 274 935 b 218 990 228 935 218 979 b 253 1031 218 1015 233 1022 l 438 1114 b 464 1121 453 1121 464 1121 b 513 1072 492 1121 513 1100 "},"Ô":{"ha":729,"x_min":0,"x_max":0,"o":"m 650 424 b 364 -15 650 22 619 -15 b 78 424 107 -15 78 22 b 364 864 78 826 107 864 b 650 424 621 864 650 825 m 554 436 b 538 690 554 521 554 625 b 364 779 517 767 468 779 b 189 681 250 779 207 763 b 174 436 174 617 174 522 b 190 168 174 360 174 239 b 364 69 207 99 242 69 b 539 176 488 69 524 99 b 554 436 554 251 554 350 m 543 1001 b 517 924 592 983 567 908 l 365 969 l 214 924 b 189 1001 164 908 139 983 l 353 1061 b 379 1061 361 1064 371 1064 l 543 1001 "},"Õ":{"ha":729,"x_min":0,"x_max":0,"o":"m 650 424 b 364 -15 650 22 619 -15 b 78 424 107 -15 78 22 b 364 864 78 826 107 864 b 650 424 621 864 650 825 m 554 436 b 538 690 554 521 554 625 b 364 779 517 767 468 779 b 189 681 250 779 207 763 b 174 436 174 617 174 522 b 190 168 174 360 174 239 b 364 69 207 99 242 69 b 539 176 488 69 524 99 b 554 436 554 251 554 350 m 608 1043 b 540 967 608 1018 568 988 b 432 921 508 943 469 921 b 339 968 385 921 357 950 b 296 997 321 985 310 997 b 199 936 276 997 240 975 b 165 921 189 928 181 921 b 122 965 143 921 122 943 b 190 1042 122 990 163 1021 b 299 1088 222 1065 261 1088 b 392 1040 346 1088 374 1058 b 435 1011 410 1024 421 1011 b 532 1072 454 1011 490 1033 b 565 1088 542 1081 550 1088 b 608 1043 588 1088 608 1065 "},"Ö":{"ha":729,"x_min":0,"x_max":0,"o":"m 650 424 b 364 -15 650 22 619 -15 b 78 424 107 -15 78 22 b 364 864 78 826 107 864 b 650 424 621 864 650 825 m 554 436 b 538 690 554 521 554 625 b 364 779 517 767 468 779 b 189 681 250 779 207 763 b 174 436 174 617 174 522 b 190 168 174 360 174 239 b 364 69 207 99 242 69 b 539 176 488 69 524 99 b 554 436 554 251 554 350 m 292 983 b 229 921 292 949 264 921 b 167 983 194 921 167 949 b 229 1046 167 1019 194 1046 b 292 983 264 1046 292 1019 m 563 983 b 500 921 563 949 535 921 b 438 983 465 921 438 949 b 500 1046 438 1019 465 1046 b 563 983 535 1046 563 1019 "},"×":{"ha":729,"x_min":0,"x_max":0,"o":"m 585 204 b 504 215 550 169 517 204 l 364 357 l 225 217 b 144 206 213 206 178 171 b 156 286 110 239 144 274 l 296 425 l 154 565 b 143 646 143 578 108 611 b 224 635 178 681 211 646 l 364 493 l 503 633 b 583 644 515 644 550 679 b 572 564 618 611 583 576 l 432 425 l 574 285 b 585 204 585 272 619 239 "},"Ø":{"ha":729,"x_min":0,"x_max":0,"o":"m 650 424 b 364 -15 650 22 619 -15 b 267 -12 332 -15 303 -15 l 246 -76 b 204 -118 240 -94 233 -118 b 160 -76 204 -118 160 -115 b 183 6 160 -76 160 -65 b 85 204 114 36 96 96 b 78 424 78 271 78 361 b 364 864 78 826 107 864 b 461 861 396 864 425 864 l 482 925 b 524 967 488 943 494 967 b 568 925 524 967 568 964 b 544 843 568 925 568 914 b 650 424 635 804 650 708 m 572 425 b 514 750 572 707 543 728 l 294 74 b 310 71 294 74 303 71 b 364 69 325 69 328 69 b 554 163 474 69 531 79 b 572 425 572 229 572 340 m 433 775 b 418 778 433 775 425 778 b 364 779 403 779 400 779 b 174 686 254 779 197 769 b 156 424 156 619 156 508 b 214 99 156 142 185 121 l 433 775 "},"Ù":{"ha":729,"x_min":0,"x_max":0,"o":"m 722 807 b 665 764 722 764 688 764 l 624 764 l 624 283 b 364 -15 624 113 503 -15 b 104 283 225 -15 104 113 l 104 764 l 63 764 b 6 807 42 764 6 764 b 63 849 6 849 42 849 l 242 849 b 299 807 263 849 299 849 b 242 764 299 764 263 764 l 200 764 l 200 290 b 364 69 200 142 290 69 b 528 290 436 69 528 142 l 528 764 l 486 764 b 429 807 465 764 429 764 b 486 849 429 849 465 849 l 665 849 b 722 807 686 849 722 849 m 511 990 b 465 935 511 979 501 935 b 440 942 456 935 449 938 l 256 1024 b 217 1072 222 1039 217 1057 b 265 1121 217 1100 238 1121 b 292 1114 265 1121 276 1121 l 476 1031 b 511 990 496 1022 511 1015 "},"Ú":{"ha":729,"x_min":0,"x_max":0,"o":"m 722 807 b 665 764 722 764 688 764 l 624 764 l 624 283 b 364 -15 624 113 503 -15 b 104 283 225 -15 104 113 l 104 764 l 63 764 b 6 807 42 764 6 764 b 63 849 6 849 42 849 l 242 849 b 299 807 263 849 299 849 b 242 764 299 764 263 764 l 200 764 l 200 290 b 364 69 200 142 290 69 b 528 290 436 69 528 142 l 528 764 l 486 764 b 429 807 465 764 429 764 b 486 849 429 849 465 849 l 665 849 b 722 807 686 849 722 849 m 513 1072 b 474 1024 513 1057 507 1039 l 289 942 b 264 935 281 938 274 935 b 218 990 228 935 218 979 b 253 1031 218 1015 233 1022 l 438 1114 b 464 1121 453 1121 464 1121 b 513 1072 492 1121 513 1100 "},"Û":{"ha":729,"x_min":0,"x_max":0,"o":"m 722 807 b 665 764 722 764 688 764 l 624 764 l 624 283 b 364 -15 624 113 503 -15 b 104 283 225 -15 104 113 l 104 764 l 63 764 b 6 807 42 764 6 764 b 63 849 6 849 42 849 l 242 849 b 299 807 263 849 299 849 b 242 764 299 764 263 764 l 200 764 l 200 290 b 364 69 200 142 290 69 b 528 290 436 69 528 142 l 528 764 l 486 764 b 429 807 465 764 429 764 b 486 849 429 849 465 849 l 665 849 b 722 807 686 849 722 849 m 543 1001 b 517 924 592 983 567 908 l 365 969 l 214 924 b 189 1001 164 908 139 983 l 353 1061 b 379 1061 361 1064 371 1064 l 543 1001 "},"Ü":{"ha":729,"x_min":0,"x_max":0,"o":"m 722 807 b 665 764 722 764 688 764 l 624 764 l 624 283 b 364 -15 624 113 503 -15 b 104 283 225 -15 104 113 l 104 764 l 63 764 b 6 807 42 764 6 764 b 63 849 6 849 42 849 l 242 849 b 299 807 263 849 299 849 b 242 764 299 764 263 764 l 200 764 l 200 290 b 364 69 200 142 290 69 b 528 290 436 69 528 142 l 528 764 l 486 764 b 429 807 465 764 429 764 b 486 849 429 849 465 849 l 665 849 b 722 807 686 849 722 849 m 292 983 b 229 921 292 949 264 921 b 167 983 194 921 167 949 b 229 1046 167 1019 194 1046 b 292 983 264 1046 292 1019 m 563 983 b 500 921 563 949 535 921 b 438 983 465 921 438 949 b 500 1046 438 1019 465 1046 b 563 983 535 1046 563 1019 "},"Ý":{"ha":729,"x_min":0,"x_max":0,"o":"m 701 806 b 646 764 701 764 667 764 l 617 764 l 413 339 l 413 85 l 447 85 b 503 42 469 85 503 85 b 447 0 503 0 468 0 l 282 0 b 226 43 260 0 226 0 b 282 85 226 85 261 85 l 317 85 l 317 339 l 111 764 l 82 764 b 26 807 60 764 26 764 b 82 849 26 849 61 849 l 226 849 b 282 807 247 849 282 849 b 218 764 282 764 251 764 b 364 436 232 735 344 507 l 510 764 b 446 807 476 764 446 764 b 501 849 446 849 481 849 l 646 849 b 701 806 668 849 701 849 m 513 1072 b 474 1024 513 1057 507 1039 l 289 942 b 264 935 281 938 274 935 b 218 990 228 935 218 979 b 253 1031 218 1015 233 1022 l 438 1114 b 464 1121 453 1121 464 1121 b 513 1072 492 1121 513 1100 "},"Þ":{"ha":729,"x_min":0,"x_max":0,"o":"m 653 425 b 390 171 653 296 551 171 l 217 171 l 217 85 l 251 85 b 307 42 274 85 307 85 b 251 0 307 0 272 0 l 86 0 b 31 42 65 0 31 0 b 86 85 31 85 64 85 l 121 85 l 121 764 l 86 764 b 31 806 65 764 31 764 b 86 849 31 849 64 849 l 251 849 b 307 806 274 849 307 849 b 251 764 307 764 272 764 l 217 764 l 217 679 l 390 679 b 653 425 550 679 653 554 m 557 425 b 364 594 557 499 497 594 l 217 594 l 217 256 l 364 256 b 557 425 497 256 557 351 "},"ß":{"ha":729,"x_min":0,"x_max":0,"o":"m 688 243 b 433 -8 688 90 561 -8 b 292 96 339 -8 292 44 b 349 154 292 133 319 154 b 393 132 367 154 383 144 b 403 82 403 118 403 115 b 433 76 411 78 424 76 b 592 243 507 76 592 136 b 364 514 592 319 551 503 b 331 556 364 514 331 521 b 369 599 331 588 353 597 b 551 704 511 603 551 674 b 400 772 551 738 486 772 b 297 753 364 772 329 767 b 250 686 250 732 250 714 l 250 57 b 194 0 250 13 240 0 l 79 0 b 24 42 58 0 24 0 b 79 85 24 85 57 85 l 154 85 l 154 514 l 79 514 b 24 556 58 514 24 514 b 79 599 24 599 57 599 l 154 599 l 154 696 b 401 857 154 825 313 857 b 647 706 535 857 647 796 b 532 549 647 664 628 600 b 688 243 667 454 688 311 "},"à":{"ha":729,"x_min":0,"x_max":0,"o":"m 728 43 b 658 0 728 0 697 0 b 508 44 606 0 539 1 b 306 -8 443 1 357 -8 b 76 178 164 -8 76 82 b 493 385 76 311 247 381 b 315 526 493 483 421 526 b 265 525 303 526 285 526 b 236 510 238 522 236 521 b 175 446 235 458 196 446 b 113 510 142 446 113 468 b 314 611 113 611 254 611 b 589 396 514 611 589 494 l 589 96 b 672 85 600 92 614 85 b 728 43 693 85 728 85 m 493 303 b 172 178 292 297 172 246 b 315 76 172 124 229 76 b 439 100 326 76 389 76 b 493 186 493 125 493 154 m 511 733 b 465 678 511 722 501 678 b 440 685 456 678 449 681 l 256 767 b 217 815 222 782 217 800 b 265 864 217 843 238 864 b 292 857 265 864 276 864 l 476 774 b 511 733 496 765 511 758 "},"á":{"ha":729,"x_min":0,"x_max":0,"o":"m 728 43 b 658 0 728 0 697 0 b 508 44 606 0 539 1 b 306 -8 443 1 357 -8 b 76 178 164 -8 76 82 b 493 385 76 311 247 381 b 315 526 493 483 421 526 b 265 525 303 526 285 526 b 236 510 238 522 236 521 b 175 446 235 458 196 446 b 113 510 142 446 113 468 b 314 611 113 611 254 611 b 589 396 514 611 589 494 l 589 96 b 672 85 600 92 614 85 b 728 43 693 85 728 85 m 493 303 b 172 178 292 297 172 246 b 315 76 172 124 229 76 b 439 100 326 76 389 76 b 493 186 493 125 493 154 m 513 815 b 474 767 513 800 507 782 l 289 685 b 264 678 281 681 274 678 b 218 733 228 678 218 722 b 253 774 218 758 233 765 l 438 857 b 464 864 453 864 464 864 b 513 815 492 864 513 843 "},"â":{"ha":729,"x_min":0,"x_max":0,"o":"m 728 43 b 658 0 728 0 697 0 b 508 44 606 0 539 1 b 306 -8 443 1 357 -8 b 76 178 164 -8 76 82 b 493 385 76 311 247 381 b 315 526 493 483 421 526 b 265 525 303 526 285 526 b 236 510 238 522 236 521 b 175 446 235 458 196 446 b 113 510 142 446 113 468 b 314 611 113 611 254 611 b 589 396 514 611 589 494 l 589 96 b 672 85 600 92 614 85 b 728 43 693 85 728 85 m 493 303 b 172 178 292 297 172 246 b 315 76 172 124 229 76 b 439 100 326 76 389 76 b 493 186 493 125 493 154 m 551 753 b 508 685 597 724 554 657 l 365 771 l 222 685 b 179 754 176 657 133 725 l 343 858 b 385 858 356 867 372 867 l 551 753 "},"ã":{"ha":729,"x_min":0,"x_max":0,"o":"m 728 43 b 658 0 728 0 697 0 b 508 44 606 0 539 1 b 306 -8 443 1 357 -8 b 76 178 164 -8 76 82 b 493 385 76 311 247 381 b 315 526 493 483 421 526 b 265 525 303 526 285 526 b 236 510 238 522 236 521 b 175 446 235 458 196 446 b 113 510 142 446 113 468 b 314 611 113 611 254 611 b 589 396 514 611 589 494 l 589 96 b 672 85 600 92 614 85 b 728 43 693 85 728 85 m 493 303 b 172 178 292 297 172 246 b 315 76 172 124 229 76 b 439 100 326 76 389 76 b 493 186 493 125 493 154 m 608 810 b 540 733 608 785 568 754 b 432 688 508 710 469 688 b 339 735 385 688 357 717 b 296 764 321 751 310 764 b 199 703 276 764 240 742 b 165 688 189 694 181 688 b 122 732 143 688 122 710 b 190 808 122 757 163 788 b 299 854 222 832 261 854 b 392 807 346 854 374 825 b 435 778 410 790 421 778 b 532 839 454 778 490 800 b 565 854 542 847 550 854 b 608 810 588 854 608 832 "},"ä":{"ha":729,"x_min":0,"x_max":0,"o":"m 728 43 b 658 0 728 0 697 0 b 508 44 606 0 539 1 b 306 -8 443 1 357 -8 b 76 178 164 -8 76 82 b 493 385 76 311 247 381 b 315 526 493 483 421 526 b 265 525 303 526 285 526 b 236 510 238 522 236 521 b 175 446 235 458 196 446 b 113 510 142 446 113 468 b 314 611 113 611 254 611 b 589 396 514 611 589 494 l 589 96 b 672 85 600 92 614 85 b 728 43 693 85 728 85 m 493 303 b 172 178 292 297 172 246 b 315 76 172 124 229 76 b 439 100 326 76 389 76 b 493 186 493 125 493 154 m 313 771 b 250 708 313 736 285 708 b 188 771 215 708 188 736 b 250 833 188 807 215 833 b 313 771 285 833 313 807 m 542 771 b 479 708 542 736 514 708 b 417 771 444 708 417 736 b 479 833 417 807 444 833 b 542 771 514 833 542 807 "},"å":{"ha":729,"x_min":0,"x_max":0,"o":"m 728 43 b 658 0 728 0 697 0 b 508 44 606 0 539 1 b 306 -8 443 1 357 -8 b 76 178 164 -8 76 82 b 493 385 76 311 247 381 b 315 526 493 483 421 526 b 265 525 303 526 285 526 b 236 510 238 522 236 521 b 175 446 235 458 196 446 b 113 510 142 446 113 468 b 314 611 113 611 254 611 b 589 396 514 611 589 494 l 589 96 b 672 85 600 92 614 85 b 728 43 693 85 728 85 m 493 303 b 172 178 292 297 172 246 b 315 76 172 124 229 76 b 439 100 326 76 389 76 b 493 186 493 125 493 154 m 431 783 b 365 831 431 810 397 831 b 300 783 333 831 300 810 b 365 736 300 757 333 736 b 431 783 397 736 431 757 m 500 783 b 365 683 500 732 443 683 b 231 783 288 683 231 732 b 365 883 231 835 288 883 b 500 783 443 883 500 835 "},"æ":{"ha":729,"x_min":0,"x_max":0,"o":"m 700 151 b 540 -8 700 124 658 -8 b 383 88 450 -8 393 74 b 204 -8 347 26 274 -8 b 46 164 104 -8 46 82 b 325 344 46 279 169 343 l 325 390 b 214 526 325 478 282 526 b 178 521 197 526 178 526 b 179 508 178 517 179 513 b 118 446 175 450 129 446 b 56 510 85 446 56 468 b 218 611 56 556 90 611 b 378 511 293 611 344 571 b 526 611 419 583 478 611 b 700 324 626 611 700 508 b 644 265 700 281 694 265 l 406 265 b 547 76 417 147 486 76 b 622 156 578 76 608 101 b 661 190 625 164 631 190 b 700 151 683 190 700 172 m 621 349 b 526 526 614 482 568 526 b 406 349 467 526 414 438 l 621 349 m 325 263 b 124 165 215 258 124 225 b 213 76 124 124 156 76 b 293 106 222 76 261 79 b 324 186 324 131 324 160 b 325 263 324 226 324 247 "},"ç":{"ha":729,"x_min":0,"x_max":0,"o":"m 647 151 b 475 -1 647 131 611 25 l 475 -12 b 613 -147 574 -32 613 -93 b 286 -289 613 -289 418 -289 b 243 -246 265 -289 243 -278 b 326 -203 243 -203 274 -203 b 517 -147 379 -203 517 -203 b 424 -92 517 -119 485 -94 b 379 -33 379 -89 379 -61 l 379 -7 b 101 300 218 7 101 142 b 424 611 101 422 185 611 b 631 510 486 611 631 611 b 568 446 631 469 601 446 b 507 514 535 446 508 465 b 424 526 507 526 453 526 b 197 300 236 526 197 367 b 415 76 197 174 297 76 b 553 160 518 76 544 142 b 599 190 563 188 576 190 b 647 151 607 190 647 190 "},"è":{"ha":729,"x_min":0,"x_max":0,"o":"m 644 151 b 396 -8 644 117 579 -8 b 76 301 217 -8 76 132 b 375 611 76 472 210 611 b 644 317 556 611 644 475 b 589 265 644 265 618 265 l 175 265 b 406 76 197 146 301 76 b 550 160 444 76 519 89 b 596 190 560 186 571 190 b 644 151 604 190 644 190 m 546 349 b 375 526 533 492 447 526 b 176 349 278 526 196 450 l 546 349 m 511 733 b 465 678 511 722 501 678 b 440 685 456 678 449 681 l 256 767 b 217 815 222 782 217 800 b 265 864 217 843 238 864 b 292 857 265 864 276 864 l 476 774 b 511 733 496 765 511 758 "},"é":{"ha":729,"x_min":0,"x_max":0,"o":"m 644 151 b 396 -8 644 117 579 -8 b 76 301 217 -8 76 132 b 375 611 76 472 210 611 b 644 317 556 611 644 475 b 589 265 644 265 618 265 l 175 265 b 406 76 197 146 301 76 b 550 160 444 76 519 89 b 596 190 560 186 571 190 b 644 151 604 190 644 190 m 546 349 b 375 526 533 492 447 526 b 176 349 278 526 196 450 l 546 349 m 513 815 b 474 767 513 800 507 782 l 289 685 b 264 678 281 681 274 678 b 218 733 228 678 218 722 b 253 774 218 758 233 765 l 438 857 b 464 864 453 864 464 864 b 513 815 492 864 513 843 "},"ê":{"ha":729,"x_min":0,"x_max":0,"o":"m 644 151 b 396 -8 644 117 579 -8 b 76 301 217 -8 76 132 b 375 611 76 472 210 611 b 644 317 556 611 644 475 b 589 265 644 265 618 265 l 175 265 b 406 76 197 146 301 76 b 550 160 444 76 519 89 b 596 190 560 186 571 190 b 644 151 604 190 644 190 m 546 349 b 375 526 533 492 447 526 b 176 349 278 526 196 450 l 546 349 m 551 753 b 508 685 597 724 554 657 l 365 771 l 222 685 b 179 754 176 657 133 725 l 343 858 b 385 858 356 867 372 867 l 551 753 "},"ë":{"ha":729,"x_min":0,"x_max":0,"o":"m 644 151 b 396 -8 644 117 579 -8 b 76 301 217 -8 76 132 b 375 611 76 472 210 611 b 644 317 556 611 644 475 b 589 265 644 265 618 265 l 175 265 b 406 76 197 146 301 76 b 550 160 444 76 519 89 b 596 190 560 186 571 190 b 644 151 604 190 644 190 m 546 349 b 375 526 533 492 447 526 b 176 349 278 526 196 450 l 546 349 m 313 771 b 250 708 313 736 285 708 b 188 771 215 708 188 736 b 250 833 188 807 215 833 b 313 771 285 833 313 807 m 542 771 b 479 708 542 736 514 708 b 417 771 444 708 417 736 b 479 833 417 807 444 833 b 542 771 514 833 542 807 "},"ì":{"ha":729,"x_min":0,"x_max":0,"o":"m 632 42 b 575 0 632 0 596 0 l 165 0 b 108 42 144 0 108 0 b 165 85 108 85 143 85 l 333 85 l 333 514 l 176 514 b 119 557 156 514 119 514 b 176 599 119 599 156 599 l 374 599 b 429 542 421 599 429 585 l 429 85 l 575 85 b 632 42 596 85 632 85 m 511 733 b 465 678 511 722 501 678 b 440 685 456 678 449 681 l 256 767 b 217 815 222 782 217 800 b 265 864 217 843 238 864 b 292 857 265 864 276 864 l 476 774 b 511 733 496 765 511 758 "},"í":{"ha":729,"x_min":0,"x_max":0,"o":"m 632 42 b 575 0 632 0 596 0 l 165 0 b 108 42 144 0 108 0 b 165 85 108 85 143 85 l 333 85 l 333 514 l 176 514 b 119 557 156 514 119 514 b 176 599 119 599 156 599 l 374 599 b 429 542 421 599 429 585 l 429 85 l 575 85 b 632 42 596 85 632 85 m 513 815 b 474 767 513 800 507 782 l 289 685 b 264 678 281 681 274 678 b 218 733 228 678 218 722 b 253 774 218 758 233 765 l 438 857 b 464 864 453 864 464 864 b 513 815 492 864 513 843 "},"î":{"ha":729,"x_min":0,"x_max":0,"o":"m 632 42 b 575 0 632 0 596 0 l 165 0 b 108 42 144 0 108 0 b 165 85 108 85 143 85 l 333 85 l 333 514 l 176 514 b 119 557 156 514 119 514 b 176 599 119 599 156 599 l 374 599 b 429 542 421 599 429 585 l 429 85 l 575 85 b 632 42 596 85 632 85 m 551 753 b 508 685 597 724 554 657 l 365 771 l 222 685 b 179 754 176 657 133 725 l 343 858 b 385 858 356 867 372 867 l 551 753 "},"ï":{"ha":729,"x_min":0,"x_max":0,"o":"m 632 42 b 575 0 632 0 596 0 l 165 0 b 108 42 144 0 108 0 b 165 85 108 85 143 85 l 333 85 l 333 514 l 176 514 b 119 557 156 514 119 514 b 176 599 119 599 156 599 l 374 599 b 429 542 421 599 429 585 l 429 85 l 575 85 b 632 42 596 85 632 85 m 313 771 b 250 708 313 736 285 708 b 188 771 215 708 188 736 b 250 833 188 807 215 833 b 313 771 285 833 313 807 m 542 771 b 479 708 542 736 514 708 b 417 771 444 708 417 736 b 479 833 417 807 444 833 b 542 771 514 833 542 807 "},"ð":{"ha":729,"x_min":0,"x_max":0,"o":"m 649 300 b 564 81 649 218 619 139 b 364 -8 511 25 440 -8 b 79 300 211 -8 79 124 b 364 611 79 474 208 611 b 531 551 426 611 483 589 b 475 696 519 608 501 657 l 450 669 b 418 656 442 661 431 656 b 375 699 394 656 375 675 b 388 729 375 711 381 721 l 411 753 b 328 772 388 765 360 772 b 285 815 304 772 285 792 b 328 858 285 839 304 858 b 471 815 383 858 431 843 l 500 846 b 531 858 508 854 519 858 b 574 815 554 858 574 840 b 563 786 574 804 569 793 l 532 756 b 649 300 615 647 649 471 m 553 310 b 364 526 553 436 464 526 b 175 310 265 526 175 436 b 364 76 175 181 261 76 b 553 310 467 76 553 181 "},"ñ":{"ha":729,"x_min":0,"x_max":0,"o":"m 711 42 b 656 0 711 0 675 0 l 443 0 b 386 42 424 0 386 0 b 443 85 386 85 421 85 l 497 85 l 497 400 b 404 522 497 483 478 522 b 231 331 333 522 231 469 l 231 85 l 292 85 b 349 42 314 85 349 85 b 293 0 349 0 313 0 l 72 0 b 17 42 53 0 17 0 b 74 85 17 85 51 85 l 135 85 l 135 514 l 72 514 b 17 556 53 514 17 514 b 74 599 17 599 51 599 l 175 599 b 231 533 231 599 231 578 b 413 607 257 560 319 607 b 593 407 522 607 593 547 l 593 85 l 654 85 b 711 42 676 85 711 85 m 608 810 b 540 733 608 785 568 754 b 432 688 508 710 469 688 b 339 735 385 688 357 717 b 296 764 321 751 310 764 b 199 703 276 764 240 742 b 165 688 189 694 181 688 b 122 732 143 688 122 710 b 190 808 122 757 163 788 b 299 854 222 832 261 854 b 392 807 346 854 374 825 b 435 778 410 790 421 778 b 532 839 454 778 490 800 b 565 854 542 847 550 854 b 608 810 588 854 608 832 "},"ò":{"ha":729,"x_min":0,"x_max":0,"o":"m 649 300 b 364 -8 649 125 517 -8 b 79 300 211 -8 79 124 b 364 611 79 474 208 611 b 649 300 519 611 649 474 m 553 310 b 364 526 553 436 464 526 b 175 310 265 526 175 436 b 364 76 175 181 261 76 b 553 310 467 76 553 181 m 511 733 b 465 678 511 722 501 678 b 440 685 456 678 449 681 l 256 767 b 217 815 222 782 217 800 b 265 864 217 843 238 864 b 292 857 265 864 276 864 l 476 774 b 511 733 496 765 511 758 "},"ó":{"ha":729,"x_min":0,"x_max":0,"o":"m 649 300 b 364 -8 649 125 517 -8 b 79 300 211 -8 79 124 b 364 611 79 474 208 611 b 649 300 519 611 649 474 m 553 310 b 364 526 553 436 464 526 b 175 310 265 526 175 436 b 364 76 175 181 261 76 b 553 310 467 76 553 181 m 513 815 b 474 767 513 800 507 782 l 289 685 b 264 678 281 681 274 678 b 218 733 228 678 218 722 b 253 774 218 758 233 765 l 438 857 b 464 864 453 864 464 864 b 513 815 492 864 513 843 "},"ô":{"ha":729,"x_min":0,"x_max":0,"o":"m 649 300 b 364 -8 649 125 517 -8 b 79 300 211 -8 79 124 b 364 611 79 474 208 611 b 649 300 519 611 649 474 m 553 310 b 364 526 553 436 464 526 b 175 310 265 526 175 436 b 364 76 175 181 261 76 b 553 310 467 76 553 181 m 551 753 b 508 685 597 724 554 657 l 365 771 l 222 685 b 179 754 176 657 133 725 l 343 858 b 385 858 356 867 372 867 l 551 753 "},"õ":{"ha":729,"x_min":0,"x_max":0,"o":"m 649 300 b 364 -8 649 125 517 -8 b 79 300 211 -8 79 124 b 364 611 79 474 208 611 b 649 300 519 611 649 474 m 553 310 b 364 526 553 436 464 526 b 175 310 265 526 175 436 b 364 76 175 181 261 76 b 553 310 467 76 553 181 m 608 810 b 540 733 608 785 568 754 b 432 688 508 710 469 688 b 339 735 385 688 357 717 b 296 764 321 751 310 764 b 199 703 276 764 240 742 b 165 688 189 694 181 688 b 122 732 143 688 122 710 b 190 808 122 757 163 788 b 299 854 222 832 261 854 b 392 807 346 854 374 825 b 435 778 410 790 421 778 b 532 839 454 778 490 800 b 565 854 542 847 550 854 b 608 810 588 854 608 832 "},"ö":{"ha":729,"x_min":0,"x_max":0,"o":"m 649 300 b 364 -8 649 125 517 -8 b 79 300 211 -8 79 124 b 364 611 79 474 208 611 b 649 300 519 611 649 474 m 553 310 b 364 526 553 436 464 526 b 175 310 265 526 175 436 b 364 76 175 181 261 76 b 553 310 467 76 553 181 m 313 771 b 250 708 313 736 285 708 b 188 771 215 708 188 736 b 250 833 188 807 215 833 b 313 771 285 833 313 807 m 542 771 b 479 708 542 736 514 708 b 417 771 444 708 417 736 b 479 833 417 807 444 833 b 542 771 514 833 542 807 "},"÷":{"ha":729,"x_min":0,"x_max":0,"o":"m 675 425 b 613 376 675 376 629 376 l 115 376 b 53 425 99 376 53 376 b 124 474 53 474 104 474 l 604 474 b 675 425 624 474 675 474 m 450 718 b 363 632 450 675 415 632 b 276 719 318 632 276 668 b 364 806 276 763 311 806 b 450 718 408 806 450 769 m 450 129 b 363 43 450 86 415 43 b 276 131 318 43 276 79 b 364 217 276 174 311 217 b 450 129 408 217 450 181 "},"ø":{"ha":729,"x_min":0,"x_max":0,"o":"m 668 751 b 658 722 668 747 668 739 l 554 542 b 665 300 622 479 665 393 b 364 -8 665 128 528 -8 b 249 15 339 -8 296 -6 l 142 -168 b 104 -194 136 -179 126 -194 b 60 -153 88 -194 60 -181 b 83 -100 60 -142 74 -117 l 175 58 b 63 300 93 129 63 219 b 364 611 63 469 196 611 b 482 586 419 611 458 596 l 586 767 b 624 793 593 779 601 793 b 668 751 640 793 668 779 m 588 300 b 511 469 588 350 569 418 l 292 88 b 364 76 318 79 326 76 b 588 300 486 76 588 175 m 439 514 b 364 526 411 524 403 526 b 140 300 242 526 140 425 b 217 131 140 251 156 188 l 439 514 "},"ù":{"ha":729,"x_min":0,"x_max":0,"o":"m 711 43 b 654 0 711 0 676 0 l 553 0 b 497 44 528 0 499 0 b 332 -8 446 6 389 -8 b 135 158 231 -8 135 25 l 135 514 l 72 514 b 17 556 53 514 17 514 b 74 599 17 599 51 599 l 175 599 b 231 542 222 599 231 585 l 231 167 b 340 76 231 122 231 76 b 497 218 385 76 497 93 l 497 514 l 435 514 b 379 556 415 514 379 514 b 436 599 379 599 414 599 l 538 599 b 593 542 585 599 593 585 l 593 85 l 656 85 b 711 43 675 85 711 85 m 511 733 b 465 678 511 722 501 678 b 440 685 456 678 449 681 l 256 767 b 217 815 222 782 217 800 b 265 864 217 843 238 864 b 292 857 265 864 276 864 l 476 774 b 511 733 496 765 511 758 "},"ú":{"ha":729,"x_min":0,"x_max":0,"o":"m 711 43 b 654 0 711 0 676 0 l 553 0 b 497 44 528 0 499 0 b 332 -8 446 6 389 -8 b 135 158 231 -8 135 25 l 135 514 l 72 514 b 17 556 53 514 17 514 b 74 599 17 599 51 599 l 175 599 b 231 542 222 599 231 585 l 231 167 b 340 76 231 122 231 76 b 497 218 385 76 497 93 l 497 514 l 435 514 b 379 556 415 514 379 514 b 436 599 379 599 414 599 l 538 599 b 593 542 585 599 593 585 l 593 85 l 656 85 b 711 43 675 85 711 85 m 513 815 b 474 767 513 800 507 782 l 289 685 b 264 678 281 681 274 678 b 218 733 228 678 218 722 b 253 774 218 758 233 765 l 438 857 b 464 864 453 864 464 864 b 513 815 492 864 513 843 "},"û":{"ha":729,"x_min":0,"x_max":0,"o":"m 711 43 b 654 0 711 0 676 0 l 553 0 b 497 44 528 0 499 0 b 332 -8 446 6 389 -8 b 135 158 231 -8 135 25 l 135 514 l 72 514 b 17 556 53 514 17 514 b 74 599 17 599 51 599 l 175 599 b 231 542 222 599 231 585 l 231 167 b 340 76 231 122 231 76 b 497 218 385 76 497 93 l 497 514 l 435 514 b 379 556 415 514 379 514 b 436 599 379 599 414 599 l 538 599 b 593 542 585 599 593 585 l 593 85 l 656 85 b 711 43 675 85 711 85 m 551 753 b 508 685 597 724 554 657 l 365 771 l 222 685 b 179 754 176 657 133 725 l 343 858 b 385 858 356 867 372 867 l 551 753 "},"ü":{"ha":729,"x_min":0,"x_max":0,"o":"m 711 43 b 654 0 711 0 676 0 l 553 0 b 497 44 528 0 499 0 b 332 -8 446 6 389 -8 b 135 158 231 -8 135 25 l 135 514 l 72 514 b 17 556 53 514 17 514 b 74 599 17 599 51 599 l 175 599 b 231 542 222 599 231 585 l 231 167 b 340 76 231 122 231 76 b 497 218 385 76 497 93 l 497 514 l 435 514 b 379 556 415 514 379 514 b 436 599 379 599 414 599 l 538 599 b 593 542 585 599 593 585 l 593 85 l 656 85 b 711 43 675 85 711 85 m 313 771 b 250 708 313 736 285 708 b 188 771 215 708 188 736 b 250 833 188 807 215 833 b 313 771 285 833 313 807 m 542 771 b 479 708 542 736 514 708 b 417 771 444 708 417 736 b 479 833 417 807 444 833 b 542 771 514 833 542 807 "},"ý":{"ha":729,"x_min":0,"x_max":0,"o":"m 694 556 b 639 514 694 514 660 514 l 597 514 l 382 -118 b 175 -317 376 -133 314 -317 b 60 -203 107 -317 60 -261 b 121 -142 60 -167 83 -142 b 181 -201 156 -142 181 -167 b 174 -232 181 -219 174 -232 b 285 -151 194 -231 244 -228 b 338 0 303 -117 338 0 b 332 18 338 0 338 4 l 135 514 l 92 514 b 36 556 71 514 36 514 b 92 599 36 599 69 599 l 254 599 b 310 556 276 599 310 599 b 254 514 310 514 275 514 l 219 514 l 349 181 b 378 99 358 154 371 125 l 379 99 b 415 218 389 142 397 167 l 515 514 l 476 514 b 421 557 454 514 421 514 b 476 599 421 599 456 599 l 639 599 b 694 556 661 599 694 599 m 513 815 b 474 767 513 800 507 782 l 289 685 b 264 678 281 681 274 678 b 218 733 228 678 218 722 b 253 774 218 758 233 765 l 438 857 b 464 864 453 864 464 864 b 513 815 492 864 513 843 "},"þ":{"ha":729,"x_min":0,"x_max":0,"o":"m 678 300 b 392 -8 678 124 543 -8 b 231 63 347 -8 288 4 l 231 -224 l 292 -224 b 349 -267 314 -224 349 -224 b 293 -308 349 -308 313 -308 l 72 -308 b 17 -267 53 -308 17 -308 b 74 -224 17 -224 51 -224 l 135 -224 l 135 764 l 72 764 b 17 806 53 764 17 764 b 74 849 17 849 51 849 l 175 849 b 231 792 222 849 231 835 l 231 539 b 407 607 278 582 340 607 b 678 300 554 607 678 471 m 582 300 b 399 522 582 421 501 522 b 231 367 311 522 231 449 l 231 265 b 388 76 231 199 279 76 b 582 300 485 76 582 167 "},"ÿ":{"ha":729,"x_min":0,"x_max":0,"o":"m 694 556 b 639 514 694 514 660 514 l 597 514 l 382 -118 b 175 -317 376 -133 314 -317 b 60 -203 107 -317 60 -261 b 121 -142 60 -167 83 -142 b 181 -201 156 -142 181 -167 b 174 -232 181 -219 174 -232 b 285 -151 194 -231 244 -228 b 338 0 303 -117 338 0 b 332 18 338 0 338 4 l 135 514 l 92 514 b 36 556 71 514 36 514 b 92 599 36 599 69 599 l 254 599 b 310 556 276 599 310 599 b 254 514 310 514 275 514 l 219 514 l 349 181 b 378 99 358 154 371 125 l 379 99 b 415 218 389 142 397 167 l 515 514 l 476 514 b 421 557 454 514 421 514 b 476 599 421 599 456 599 l 639 599 b 694 556 661 599 694 599 m 313 771 b 250 708 313 736 285 708 b 188 771 215 708 188 736 b 250 833 188 807 215 833 b 313 771 285 833 313 807 m 542 771 b 479 708 542 736 514 708 b 417 771 444 708 417 736 b 479 833 417 807 444 833 b 542 771 514 833 542 807 "},"Ā":{"ha":729,"x_min":0,"x_max":0,"o":"m 690 42 b 631 0 690 0 654 0 l 489 0 b 431 42 464 0 431 0 b 508 85 431 85 458 85 l 476 229 l 251 229 l 219 85 b 297 42 269 85 297 85 b 239 0 297 0 264 0 l 97 0 b 38 42 74 0 38 0 b 61 82 38 60 46 74 b 121 85 69 85 101 85 l 289 813 b 364 865 301 865 324 865 b 439 811 407 865 426 864 l 607 85 b 667 81 628 85 658 85 b 690 42 683 74 690 60 m 364 750 l 272 314 l 456 314 m 628 992 b 572 949 628 949 594 949 l 160 949 b 103 993 136 949 103 949 b 158 1036 103 1036 136 1036 l 572 1036 b 628 992 596 1036 628 1036 "},"ā":{"ha":729,"x_min":0,"x_max":0,"o":"m 728 43 b 658 0 728 0 697 0 b 508 44 606 0 539 1 b 306 -8 443 1 357 -8 b 76 178 164 -8 76 82 b 493 385 76 311 247 381 b 315 526 493 483 421 526 b 265 525 303 526 285 526 b 236 510 238 522 236 521 b 175 446 235 458 196 446 b 113 510 142 446 113 468 b 314 611 113 611 254 611 b 589 396 514 611 589 494 l 589 96 b 672 85 600 92 614 85 b 728 43 693 85 728 85 m 493 303 b 172 178 292 297 172 246 b 315 76 172 124 229 76 b 439 100 326 76 389 76 b 493 186 493 125 493 154 m 628 771 b 572 728 628 728 594 728 l 160 728 b 103 772 136 728 103 728 b 158 815 103 815 136 815 l 572 815 b 628 771 596 815 628 815 "},"Ă":{"ha":729,"x_min":0,"x_max":0,"o":"m 690 42 b 631 0 690 0 654 0 l 489 0 b 431 42 464 0 431 0 b 508 85 431 85 458 85 l 476 229 l 251 229 l 219 85 b 297 42 269 85 297 85 b 239 0 297 0 264 0 l 97 0 b 38 42 74 0 38 0 b 61 82 38 60 46 74 b 121 85 69 85 101 85 l 289 813 b 364 865 301 865 324 865 b 439 811 407 865 426 864 l 607 85 b 667 81 628 85 658 85 b 690 42 683 74 690 60 m 364 750 l 272 314 l 456 314 m 610 1049 b 365 935 610 935 457 935 b 121 1049 274 935 121 935 b 164 1092 121 1075 138 1092 b 206 1051 197 1092 203 1068 b 365 1024 213 1024 306 1024 b 525 1051 424 1024 518 1024 b 567 1092 528 1068 533 1092 b 610 1049 594 1092 610 1075 "},"ă":{"ha":729,"x_min":0,"x_max":0,"o":"m 728 43 b 658 0 728 0 697 0 b 508 44 606 0 539 1 b 306 -8 443 1 357 -8 b 76 178 164 -8 76 82 b 493 385 76 311 247 381 b 315 526 493 483 421 526 b 265 525 303 526 285 526 b 236 510 238 522 236 521 b 175 446 235 458 196 446 b 113 510 142 446 113 468 b 314 611 113 611 254 611 b 589 396 514 611 589 494 l 589 96 b 672 85 600 92 614 85 b 728 43 693 85 728 85 m 493 303 b 172 178 292 297 172 246 b 315 76 172 124 229 76 b 439 100 326 76 389 76 b 493 186 493 125 493 154 m 610 807 b 365 693 610 693 457 693 b 121 807 274 693 121 693 b 164 850 121 833 138 850 b 206 810 197 850 203 826 b 365 782 213 782 306 782 b 525 810 424 782 518 782 b 567 850 528 826 533 850 b 610 807 594 850 610 833 "},"Ą":{"ha":729,"x_min":0,"x_max":0,"o":"m 690 42 b 631 0 690 0 654 0 b 601 0 622 0 631 0 b 481 -153 528 -43 481 -93 b 542 -207 481 -186 517 -207 b 617 -156 569 -207 601 -178 b 668 -149 625 -147 656 -142 b 675 -200 679 -158 685 -187 b 536 -282 642 -246 589 -282 b 399 -150 449 -282 399 -210 b 489 0 399 -85 435 -35 b 431 42 464 0 431 0 b 508 85 431 85 458 85 l 476 229 l 251 229 l 219 85 b 297 42 269 85 297 85 b 239 0 297 0 264 0 l 97 0 b 38 42 74 0 38 0 b 61 82 38 60 46 74 b 121 85 69 85 101 85 l 289 813 b 364 865 301 865 324 865 b 439 811 407 865 426 864 l 607 85 b 667 81 628 85 658 85 b 690 42 683 74 690 60 m 364 750 l 272 314 l 456 314 "},"ą":{"ha":729,"x_min":0,"x_max":0,"o":"m 728 43 b 658 0 728 0 697 0 b 531 -153 585 -43 531 -93 b 592 -207 531 -186 567 -207 b 667 -156 619 -207 651 -178 b 718 -149 675 -147 706 -142 b 725 -200 729 -158 735 -187 b 586 -282 692 -246 639 -282 b 449 -150 499 -282 449 -210 b 554 13 449 -85 500 -22 b 508 44 536 18 519 29 b 306 -8 443 1 357 -8 b 76 178 164 -8 76 82 b 493 385 76 311 247 381 b 315 526 493 483 421 526 b 265 525 303 526 285 526 b 236 510 238 522 236 521 b 175 446 235 458 196 446 b 113 510 142 446 113 468 b 314 611 113 611 254 611 b 589 396 514 611 589 494 l 589 96 b 672 85 600 92 614 85 b 728 43 693 85 728 85 m 493 303 b 172 178 292 297 172 246 b 315 76 172 124 229 76 b 439 100 326 76 389 76 b 493 186 493 125 493 154 "},"Ć":{"ha":729,"x_min":0,"x_max":0,"o":"m 672 233 b 392 -15 672 108 553 -15 b 56 425 211 -15 56 171 b 390 864 56 678 211 864 b 571 797 461 864 525 836 b 592 840 589 832 589 835 b 631 864 599 850 606 864 b 672 807 672 864 672 829 l 672 614 b 624 557 672 586 672 557 b 575 603 582 557 579 579 b 396 779 556 715 479 779 b 151 425 272 779 151 632 b 397 69 151 217 271 69 b 576 239 454 69 567 103 b 624 279 579 279 611 279 b 672 233 639 279 672 279 m 550 1072 b 511 1024 550 1057 544 1039 l 326 942 b 301 935 318 938 311 935 b 256 990 265 935 256 979 b 290 1031 256 1015 271 1022 l 475 1114 b 501 1121 490 1121 501 1121 b 550 1072 529 1121 550 1100 "},"ć":{"ha":729,"x_min":0,"x_max":0,"o":"m 647 151 b 407 -8 647 128 600 -8 b 101 300 232 -8 101 133 b 424 611 101 422 185 611 b 631 510 486 611 631 611 b 568 446 631 469 601 446 b 507 514 535 446 508 465 b 424 526 507 526 453 526 b 197 300 236 526 197 367 b 415 76 197 174 297 76 b 553 160 518 76 544 142 b 599 190 563 188 576 190 b 647 151 607 190 647 190 m 550 815 b 511 767 550 800 544 782 l 326 685 b 301 678 318 681 311 678 b 256 733 265 678 256 722 b 290 774 256 758 271 765 l 475 857 b 501 864 490 864 501 864 b 550 815 529 864 550 843 "},"Ĉ":{"ha":729,"x_min":0,"x_max":0,"o":"m 672 233 b 392 -15 672 108 553 -15 b 56 425 211 -15 56 171 b 390 864 56 678 211 864 b 571 797 461 864 525 836 b 592 840 589 832 589 835 b 631 864 599 850 606 864 b 672 807 672 864 672 829 l 672 614 b 624 557 672 586 672 557 b 575 603 582 557 579 579 b 396 779 556 715 479 779 b 151 425 272 779 151 632 b 397 69 151 217 271 69 b 576 239 454 69 567 103 b 624 279 579 279 611 279 b 672 233 639 279 672 279 m 581 1001 b 554 924 629 983 604 908 l 403 969 l 251 924 b 226 1001 201 908 176 983 l 390 1061 b 417 1061 399 1064 408 1064 l 581 1001 "},"ĉ":{"ha":729,"x_min":0,"x_max":0,"o":"m 647 151 b 407 -8 647 128 600 -8 b 101 300 232 -8 101 133 b 424 611 101 422 185 611 b 631 510 486 611 631 611 b 568 446 631 469 601 446 b 507 514 535 446 508 465 b 424 526 507 526 453 526 b 197 300 236 526 197 367 b 415 76 197 174 297 76 b 553 160 518 76 544 142 b 599 190 563 188 576 190 b 647 151 607 190 647 190 m 589 753 b 546 685 635 724 592 657 l 403 771 l 260 685 b 217 754 214 657 171 725 l 381 858 b 422 858 393 867 410 867 l 589 753 "},"Ċ":{"ha":729,"x_min":0,"x_max":0,"o":"m 672 233 b 392 -15 672 108 553 -15 b 56 425 211 -15 56 171 b 390 864 56 678 211 864 b 571 797 461 864 525 836 b 592 840 589 832 589 835 b 631 864 599 850 606 864 b 672 807 672 864 672 829 l 672 614 b 624 557 672 586 672 557 b 575 603 582 557 579 579 b 396 779 556 715 479 779 b 151 425 272 779 151 632 b 397 69 151 217 271 69 b 576 239 454 69 567 103 b 624 279 579 279 611 279 b 672 233 639 279 672 279 m 472 1006 b 403 936 472 967 442 936 b 333 1006 364 936 333 967 b 403 1075 333 1044 364 1075 b 472 1006 442 1075 472 1044 "},"ċ":{"ha":729,"x_min":0,"x_max":0,"o":"m 647 151 b 407 -8 647 128 600 -8 b 101 300 232 -8 101 133 b 424 611 101 422 185 611 b 631 510 486 611 631 611 b 568 446 631 469 601 446 b 507 514 535 446 508 465 b 424 526 507 526 453 526 b 197 300 236 526 197 367 b 415 76 197 174 297 76 b 553 160 518 76 544 142 b 599 190 563 188 576 190 b 647 151 607 190 647 190 m 472 771 b 403 701 472 732 442 701 b 333 771 364 701 333 732 b 403 840 333 810 364 840 b 472 771 442 840 472 810 "},"Č":{"ha":729,"x_min":0,"x_max":0,"o":"m 672 233 b 392 -15 672 108 553 -15 b 56 425 211 -15 56 171 b 390 864 56 678 211 864 b 571 797 461 864 525 836 b 592 840 589 832 589 835 b 631 864 599 850 606 864 b 672 807 672 864 672 829 l 672 614 b 624 557 672 586 672 557 b 575 603 582 557 579 579 b 396 779 556 715 479 779 b 151 425 272 779 151 632 b 397 69 151 217 271 69 b 576 239 454 69 567 103 b 624 279 579 279 611 279 b 672 233 639 279 672 279 m 415 924 b 389 924 407 921 397 921 l 225 983 b 251 1061 176 1001 201 1076 l 403 1015 l 554 1061 b 579 983 604 1076 629 1001 "},"č":{"ha":729,"x_min":0,"x_max":0,"o":"m 647 151 b 407 -8 647 128 600 -8 b 101 300 232 -8 101 133 b 424 611 101 422 185 611 b 631 510 486 611 631 611 b 568 446 631 469 601 446 b 507 514 535 446 508 465 b 424 526 507 526 453 526 b 197 300 236 526 197 367 b 415 76 197 174 297 76 b 553 160 518 76 544 142 b 599 190 563 188 576 190 b 647 151 607 190 647 190 m 425 683 b 383 683 413 675 396 675 l 217 789 b 260 857 171 818 214 885 l 403 771 l 546 857 b 589 788 592 885 635 817 "},"Ď":{"ha":729,"x_min":0,"x_max":0,"o":"m 674 418 b 369 0 674 194 551 0 l 83 0 b 26 42 63 0 26 0 b 83 85 26 85 61 85 l 114 85 l 114 764 l 83 764 b 26 806 63 764 26 764 b 83 849 26 849 61 849 l 369 849 b 674 418 554 849 674 640 m 578 418 b 343 764 578 579 500 764 l 210 764 l 210 85 l 343 85 b 578 418 497 85 578 256 m 290 924 b 264 924 282 921 272 921 l 100 983 b 126 1061 51 1001 76 1076 l 278 1015 l 429 1061 b 454 983 479 1076 504 1001 "},"ď":{"ha":729,"x_min":0,"x_max":0,"o":"m 711 43 b 654 0 711 0 676 0 l 553 0 b 497 69 497 0 497 19 b 322 -8 458 29 400 -8 b 50 299 175 -8 50 126 b 335 607 50 475 183 607 b 497 544 394 607 451 585 l 497 764 l 435 764 b 379 806 415 764 379 764 b 436 849 379 849 414 849 l 538 849 b 593 792 585 849 593 835 l 593 85 l 656 85 b 711 43 675 85 711 85 m 497 368 b 340 522 497 444 429 522 b 146 299 243 522 146 432 b 328 76 146 175 229 76 b 497 269 435 76 497 192 m 821 744 b 681 574 821 631 714 574 b 647 607 664 574 647 592 b 676 636 647 628 667 633 b 754 722 689 640 739 657 b 733 718 747 719 739 718 b 668 785 699 718 668 744 b 735 849 668 818 693 849 b 821 744 781 849 821 808 "},"Đ":{"ha":729,"x_min":0,"x_max":0,"o":"m 674 418 b 369 0 674 194 551 0 l 83 0 b 26 42 63 0 26 0 b 83 85 26 85 61 85 l 114 85 l 114 382 l 75 382 b 32 425 51 382 32 400 b 75 468 32 449 51 468 l 114 468 l 114 764 l 83 764 b 26 806 63 764 26 764 b 83 849 26 849 61 849 l 369 849 b 674 418 554 849 674 640 m 578 418 b 343 764 578 579 500 764 l 210 764 l 210 468 l 292 468 b 335 425 315 468 335 449 b 292 382 335 400 315 382 l 210 382 l 210 85 l 343 85 b 578 418 497 85 578 256 "},"đ":{"ha":729,"x_min":0,"x_max":0,"o":"m 711 43 b 654 0 711 0 676 0 l 553 0 b 497 69 497 0 497 19 b 322 -8 458 29 400 -8 b 50 299 175 -8 50 126 b 335 607 50 475 183 607 b 497 544 394 607 451 585 l 497 638 l 292 638 b 249 681 268 638 249 657 b 292 724 249 704 268 724 l 497 724 l 497 764 l 435 764 b 379 806 415 764 379 764 b 436 849 379 849 414 849 l 538 849 b 593 792 585 849 593 835 l 593 724 l 663 724 b 706 681 686 724 706 704 b 663 638 706 657 686 638 l 593 638 l 593 85 l 656 85 b 711 43 675 85 711 85 m 497 368 b 340 522 497 444 429 522 b 146 299 243 522 146 432 b 328 76 146 175 229 76 b 497 269 435 76 497 192 "},"Ē":{"ha":729,"x_min":0,"x_max":0,"o":"m 697 57 b 642 0 697 13 688 0 l 93 0 b 36 42 72 0 36 0 b 93 85 36 85 71 85 l 135 85 l 135 764 l 93 764 b 36 807 72 764 36 764 b 93 849 36 849 72 849 l 611 849 b 667 792 658 849 667 835 l 667 690 b 618 633 667 663 667 633 b 571 690 571 633 571 664 l 571 764 l 231 764 l 231 482 l 413 482 b 461 561 413 539 413 561 b 508 504 508 561 508 531 l 508 375 b 461 318 508 349 508 318 b 413 397 413 318 413 340 l 231 397 l 231 85 l 601 85 l 601 181 b 650 238 601 208 601 238 b 697 181 697 238 697 207 l 697 57 m 628 992 b 572 949 628 949 594 949 l 160 949 b 103 993 136 949 103 949 b 158 1036 103 1036 136 1036 l 572 1036 b 628 992 596 1036 628 1036 "},"ē":{"ha":729,"x_min":0,"x_max":0,"o":"m 644 151 b 396 -8 644 117 579 -8 b 76 301 217 -8 76 132 b 375 611 76 472 210 611 b 644 317 556 611 644 475 b 589 265 644 265 618 265 l 175 265 b 406 76 197 146 301 76 b 550 160 444 76 519 89 b 596 190 560 186 571 190 b 644 151 604 190 644 190 m 546 349 b 375 526 533 492 447 526 b 176 349 278 526 196 450 l 546 349 m 628 771 b 572 728 628 728 594 728 l 160 728 b 103 772 136 728 103 728 b 158 815 103 815 136 815 l 572 815 b 628 771 596 815 628 815 "},"Ĕ":{"ha":729,"x_min":0,"x_max":0,"o":"m 697 57 b 642 0 697 13 688 0 l 93 0 b 36 42 72 0 36 0 b 93 85 36 85 71 85 l 135 85 l 135 764 l 93 764 b 36 807 72 764 36 764 b 93 849 36 849 72 849 l 611 849 b 667 792 658 849 667 835 l 667 690 b 618 633 667 663 667 633 b 571 690 571 633 571 664 l 571 764 l 231 764 l 231 482 l 413 482 b 461 561 413 539 413 561 b 508 504 508 561 508 531 l 508 375 b 461 318 508 349 508 318 b 413 397 413 318 413 340 l 231 397 l 231 85 l 601 85 l 601 181 b 650 238 601 208 601 238 b 697 181 697 238 697 207 l 697 57 m 610 1049 b 365 935 610 935 457 935 b 121 1049 274 935 121 935 b 164 1092 121 1075 138 1092 b 206 1051 197 1092 203 1068 b 365 1024 213 1024 306 1024 b 525 1051 424 1024 518 1024 b 567 1092 528 1068 533 1092 b 610 1049 594 1092 610 1075 "},"ĕ":{"ha":729,"x_min":0,"x_max":0,"o":"m 644 151 b 396 -8 644 117 579 -8 b 76 301 217 -8 76 132 b 375 611 76 472 210 611 b 644 317 556 611 644 475 b 589 265 644 265 618 265 l 175 265 b 406 76 197 146 301 76 b 550 160 444 76 519 89 b 596 190 560 186 571 190 b 644 151 604 190 644 190 m 546 349 b 375 526 533 492 447 526 b 176 349 278 526 196 450 l 546 349 m 610 807 b 365 693 610 693 457 693 b 121 807 274 693 121 693 b 164 850 121 833 138 850 b 206 810 197 850 203 826 b 365 782 213 782 306 782 b 525 810 424 782 518 782 b 567 850 528 826 533 850 b 610 807 594 850 610 833 "},"Ė":{"ha":729,"x_min":0,"x_max":0,"o":"m 697 57 b 642 0 697 13 688 0 l 93 0 b 36 42 72 0 36 0 b 93 85 36 85 71 85 l 135 85 l 135 764 l 93 764 b 36 807 72 764 36 764 b 93 849 36 849 72 849 l 611 849 b 667 792 658 849 667 835 l 667 690 b 618 633 667 663 667 633 b 571 690 571 633 571 664 l 571 764 l 231 764 l 231 482 l 413 482 b 461 561 413 539 413 561 b 508 504 508 561 508 531 l 508 375 b 461 318 508 349 508 318 b 413 397 413 318 413 340 l 231 397 l 231 85 l 601 85 l 601 181 b 650 238 601 208 601 238 b 697 181 697 238 697 207 l 697 57 m 435 1006 b 365 936 435 967 404 936 b 296 1006 326 936 296 967 b 365 1075 296 1044 326 1075 b 435 1006 404 1075 435 1044 "},"ė":{"ha":729,"x_min":0,"x_max":0,"o":"m 644 151 b 396 -8 644 117 579 -8 b 76 301 217 -8 76 132 b 375 611 76 472 210 611 b 644 317 556 611 644 475 b 589 265 644 265 618 265 l 175 265 b 406 76 197 146 301 76 b 550 160 444 76 519 89 b 596 190 560 186 571 190 b 644 151 604 190 644 190 m 546 349 b 375 526 533 492 447 526 b 176 349 278 526 196 450 l 546 349 m 435 771 b 365 701 435 732 404 701 b 296 771 326 701 296 732 b 365 840 296 810 326 840 b 435 771 404 840 435 810 "},"Ę":{"ha":729,"x_min":0,"x_max":0,"o":"m 697 57 b 642 0 697 13 688 0 l 601 0 b 481 -153 528 -43 481 -93 b 542 -207 481 -186 517 -207 b 617 -156 569 -207 601 -178 b 668 -149 625 -147 656 -142 b 675 -200 679 -158 685 -187 b 536 -282 642 -246 589 -282 b 399 -150 449 -282 399 -210 b 489 0 399 -85 435 -35 l 93 0 b 36 42 72 0 36 0 b 93 85 36 85 71 85 l 135 85 l 135 764 l 93 764 b 36 807 72 764 36 764 b 93 849 36 849 72 849 l 611 849 b 667 792 658 849 667 835 l 667 690 b 618 633 667 663 667 633 b 571 690 571 633 571 664 l 571 764 l 231 764 l 231 482 l 413 482 b 461 561 413 539 413 561 b 508 504 508 561 508 531 l 508 375 b 461 318 508 349 508 318 b 413 397 413 318 413 340 l 231 397 l 231 85 l 601 85 l 601 181 b 650 238 601 208 601 238 b 697 181 697 238 697 207 l 697 57 "},"ę":{"ha":729,"x_min":0,"x_max":0,"o":"m 644 151 b 490 6 644 124 603 39 b 369 -153 417 -37 369 -93 b 431 -207 369 -186 406 -207 b 506 -156 458 -207 490 -178 b 557 -149 514 -147 544 -142 b 564 -200 568 -158 574 -187 b 425 -282 531 -246 478 -282 b 288 -150 338 -282 288 -210 b 367 -7 288 -85 313 -42 b 76 301 201 7 76 142 b 375 611 76 472 210 611 b 644 317 556 611 644 475 b 589 265 644 265 618 265 l 175 265 b 406 76 197 146 301 76 b 550 160 444 76 519 89 b 596 190 560 186 571 190 b 644 151 604 190 644 190 m 546 349 b 375 526 533 492 447 526 b 176 349 278 526 196 450 l 546 349 "},"Ě":{"ha":729,"x_min":0,"x_max":0,"o":"m 697 57 b 642 0 697 13 688 0 l 93 0 b 36 42 72 0 36 0 b 93 85 36 85 71 85 l 135 85 l 135 764 l 93 764 b 36 807 72 764 36 764 b 93 849 36 849 72 849 l 611 849 b 667 792 658 849 667 835 l 667 690 b 618 633 667 663 667 633 b 571 690 571 633 571 664 l 571 764 l 231 764 l 231 482 l 413 482 b 461 561 413 539 413 561 b 508 504 508 561 508 531 l 508 375 b 461 318 508 349 508 318 b 413 397 413 318 413 340 l 231 397 l 231 85 l 601 85 l 601 181 b 650 238 601 208 601 238 b 697 181 697 238 697 207 l 697 57 m 378 924 b 351 924 369 921 360 921 l 188 983 b 214 1061 139 1001 164 1076 l 365 1015 l 517 1061 b 542 983 567 1076 592 1001 "},"ě":{"ha":729,"x_min":0,"x_max":0,"o":"m 644 151 b 396 -8 644 117 579 -8 b 76 301 217 -8 76 132 b 375 611 76 472 210 611 b 644 317 556 611 644 475 b 589 265 644 265 618 265 l 175 265 b 406 76 197 146 301 76 b 550 160 444 76 519 89 b 596 190 560 186 571 190 b 644 151 604 190 644 190 m 546 349 b 375 526 533 492 447 526 b 176 349 278 526 196 450 l 546 349 m 388 683 b 346 683 375 675 358 675 l 179 789 b 222 857 133 818 176 885 l 365 771 l 508 857 b 551 788 554 885 597 817 "},"Ĝ":{"ha":729,"x_min":0,"x_max":0,"o":"m 689 333 b 624 290 689 290 657 290 l 624 57 b 576 0 624 31 624 0 b 528 58 528 0 528 28 b 363 -15 500 26 442 -15 b 53 425 197 -15 53 169 b 363 864 53 676 196 864 b 525 801 421 864 476 843 b 582 864 546 849 553 864 b 624 807 624 864 624 829 l 624 614 b 575 557 624 586 624 557 b 528 597 539 557 531 574 b 368 779 504 747 417 779 b 149 424 260 779 149 636 b 367 69 149 219 254 69 b 525 290 440 69 508 135 l 467 290 b 411 333 444 290 411 290 b 467 375 411 375 446 375 l 632 375 b 689 333 653 375 689 375 m 543 1001 b 517 924 592 983 567 908 l 365 969 l 214 924 b 189 1001 164 908 139 983 l 353 1061 b 379 1061 361 1064 371 1064 l 543 1001 "},"ĝ":{"ha":729,"x_min":0,"x_max":0,"o":"m 707 539 b 651 482 707 499 675 482 b 597 529 638 482 606 492 b 517 506 579 528 546 522 b 553 385 540 467 553 426 b 324 161 553 261 451 161 b 199 196 256 161 203 193 b 190 157 193 182 190 163 b 207 107 190 157 192 126 b 253 88 224 88 232 88 b 293 85 264 85 282 85 l 390 85 b 592 44 515 85 574 54 b 688 -114 663 7 688 -62 b 364 -318 688 -232 542 -318 b 40 -114 186 -318 40 -233 b 143 58 40 -99 40 -4 b 111 158 131 75 111 110 b 139 253 111 200 124 231 b 94 385 118 279 94 325 b 324 607 94 503 193 607 b 458 565 388 607 436 581 b 606 614 522 613 590 614 b 707 539 681 614 707 571 m 457 385 b 324 524 457 458 399 524 b 190 383 251 524 190 463 b 324 244 190 310 249 244 b 457 385 396 244 457 306 m 607 -114 b 326 6 607 6 450 6 b 178 -17 225 6 213 6 b 121 -114 133 -44 121 -89 b 364 -235 121 -175 225 -235 b 607 -114 503 -235 607 -175 m 501 753 b 458 685 547 724 504 657 l 315 771 l 172 685 b 129 754 126 657 83 725 l 293 858 b 335 858 306 867 322 867 l 501 753 "},"Ğ":{"ha":729,"x_min":0,"x_max":0,"o":"m 689 333 b 624 290 689 290 657 290 l 624 57 b 576 0 624 31 624 0 b 528 58 528 0 528 28 b 363 -15 500 26 442 -15 b 53 425 197 -15 53 169 b 363 864 53 676 196 864 b 525 801 421 864 476 843 b 582 864 546 849 553 864 b 624 807 624 864 624 829 l 624 614 b 575 557 624 586 624 557 b 528 597 539 557 531 574 b 368 779 504 747 417 779 b 149 424 260 779 149 636 b 367 69 149 219 254 69 b 525 290 440 69 508 135 l 467 290 b 411 333 444 290 411 290 b 467 375 411 375 446 375 l 632 375 b 689 333 653 375 689 375 m 610 1049 b 365 935 610 935 457 935 b 121 1049 274 935 121 935 b 164 1092 121 1075 138 1092 b 206 1051 197 1092 203 1068 b 365 1024 213 1024 306 1024 b 525 1051 424 1024 518 1024 b 567 1092 528 1068 533 1092 b 610 1049 594 1092 610 1075 "},"ğ":{"ha":729,"x_min":0,"x_max":0,"o":"m 707 539 b 651 482 707 499 675 482 b 597 529 638 482 606 492 b 517 506 579 528 546 522 b 553 385 540 467 553 426 b 324 161 553 261 451 161 b 199 196 256 161 203 193 b 190 157 193 182 190 163 b 207 107 190 157 192 126 b 253 88 224 88 232 88 b 293 85 264 85 282 85 l 390 85 b 592 44 515 85 574 54 b 688 -114 663 7 688 -62 b 364 -318 688 -232 542 -318 b 40 -114 186 -318 40 -233 b 143 58 40 -99 40 -4 b 111 158 131 75 111 110 b 139 253 111 200 124 231 b 94 385 118 279 94 325 b 324 607 94 503 193 607 b 458 565 388 607 436 581 b 606 614 522 613 590 614 b 707 539 681 614 707 571 m 457 385 b 324 524 457 458 399 524 b 190 383 251 524 190 463 b 324 244 190 310 249 244 b 457 385 396 244 457 306 m 607 -114 b 326 6 607 6 450 6 b 178 -17 225 6 213 6 b 121 -114 133 -44 121 -89 b 364 -235 121 -175 225 -235 b 607 -114 503 -235 607 -175 m 560 807 b 315 693 560 693 407 693 b 71 807 224 693 71 693 b 114 850 71 833 88 850 b 156 810 147 850 153 826 b 315 782 163 782 256 782 b 475 810 374 782 468 782 b 517 850 478 826 483 850 b 560 807 544 850 560 833 "},"Ġ":{"ha":729,"x_min":0,"x_max":0,"o":"m 689 333 b 624 290 689 290 657 290 l 624 57 b 576 0 624 31 624 0 b 528 58 528 0 528 28 b 363 -15 500 26 442 -15 b 53 425 197 -15 53 169 b 363 864 53 676 196 864 b 525 801 421 864 476 843 b 582 864 546 849 553 864 b 624 807 624 864 624 829 l 624 614 b 575 557 624 586 624 557 b 528 597 539 557 531 574 b 368 779 504 747 417 779 b 149 424 260 779 149 636 b 367 69 149 219 254 69 b 525 290 440 69 508 135 l 467 290 b 411 333 444 290 411 290 b 467 375 411 375 446 375 l 632 375 b 689 333 653 375 689 375 m 435 1006 b 365 936 435 967 404 936 b 296 1006 326 936 296 967 b 365 1075 296 1044 326 1075 b 435 1006 404 1075 435 1044 "},"ġ":{"ha":729,"x_min":0,"x_max":0,"o":"m 707 539 b 651 482 707 499 675 482 b 597 529 638 482 606 492 b 517 506 579 528 546 522 b 553 385 540 467 553 426 b 324 161 553 261 451 161 b 199 196 256 161 203 193 b 190 157 193 182 190 163 b 207 107 190 157 192 126 b 253 88 224 88 232 88 b 293 85 264 85 282 85 l 390 85 b 592 44 515 85 574 54 b 688 -114 663 7 688 -62 b 364 -318 688 -232 542 -318 b 40 -114 186 -318 40 -233 b 143 58 40 -99 40 -4 b 111 158 131 75 111 110 b 139 253 111 200 124 231 b 94 385 118 279 94 325 b 324 607 94 503 193 607 b 458 565 388 607 436 581 b 606 614 522 613 590 614 b 707 539 681 614 707 571 m 457 385 b 324 524 457 458 399 524 b 190 383 251 524 190 463 b 324 244 190 310 249 244 b 457 385 396 244 457 306 m 607 -114 b 326 6 607 6 450 6 b 178 -17 225 6 213 6 b 121 -114 133 -44 121 -89 b 364 -235 121 -175 225 -235 b 607 -114 503 -235 607 -175 m 385 771 b 315 701 385 732 354 701 b 246 771 276 701 246 732 b 315 840 246 810 276 840 b 385 771 354 840 385 810 "},"Ģ":{"ha":729,"x_min":0,"x_max":0,"o":"m 689 333 b 624 290 689 290 657 290 l 624 57 b 576 0 624 31 624 0 b 528 58 528 0 528 28 b 363 -15 500 26 442 -15 b 53 425 197 -15 53 169 b 363 864 53 676 196 864 b 525 801 421 864 476 843 b 582 864 546 849 553 864 b 624 807 624 864 624 829 l 624 614 b 575 557 624 586 624 557 b 528 597 539 557 531 574 b 368 779 504 747 417 779 b 149 424 260 779 149 636 b 367 69 149 219 254 69 b 525 290 440 69 508 135 l 467 290 b 411 333 444 290 411 290 b 467 375 411 375 446 375 l 632 375 b 689 333 653 375 689 375 m 451 -150 b 311 -321 451 -264 344 -321 b 278 -287 294 -321 278 -303 b 307 -258 278 -267 297 -261 b 385 -172 319 -254 369 -237 b 364 -176 378 -175 369 -176 b 299 -110 329 -176 299 -150 b 365 -46 299 -76 324 -46 b 451 -150 411 -46 451 -86 "},"ģ":{"ha":729,"x_min":0,"x_max":0,"o":"m 401 890 b 372 861 401 869 382 864 b 294 775 360 857 310 840 b 315 779 301 778 310 779 b 381 713 350 779 381 753 b 314 649 381 679 356 649 b 228 753 268 649 228 689 b 368 924 228 867 335 924 b 401 890 385 924 401 906 m 707 539 b 651 482 707 499 675 482 b 597 529 638 482 606 492 b 517 506 579 528 546 522 b 553 385 540 467 553 426 b 324 161 553 261 451 161 b 199 196 256 161 203 193 b 190 157 193 182 190 163 b 207 107 190 157 192 126 b 253 88 224 88 232 88 b 293 85 264 85 282 85 l 390 85 b 592 44 515 85 574 54 b 688 -114 663 7 688 -62 b 364 -318 688 -232 542 -318 b 40 -114 186 -318 40 -233 b 143 58 40 -99 40 -4 b 111 158 131 75 111 110 b 139 253 111 200 124 231 b 94 385 118 279 94 325 b 324 607 94 503 193 607 b 458 565 388 607 436 581 b 606 614 522 613 590 614 b 707 539 681 614 707 571 m 457 385 b 324 524 457 458 399 524 b 190 383 251 524 190 463 b 324 244 190 310 249 244 b 457 385 396 244 457 306 m 607 -114 b 326 6 607 6 450 6 b 178 -17 225 6 213 6 b 121 -114 133 -44 121 -89 b 364 -235 121 -175 225 -235 b 607 -114 503 -235 607 -175 "},"Ĥ":{"ha":729,"x_min":0,"x_max":0,"o":"m 697 42 b 642 0 697 0 663 0 l 476 0 b 421 43 454 0 421 0 b 476 85 421 85 456 85 l 511 85 l 511 399 l 217 399 l 217 85 l 251 85 b 307 42 274 85 307 85 b 251 0 307 0 272 0 l 86 0 b 31 42 65 0 31 0 b 86 85 31 85 64 85 l 121 85 l 121 764 l 86 764 b 31 806 65 764 31 764 b 86 849 31 849 64 849 l 251 849 b 307 806 274 849 307 849 b 251 764 307 764 272 764 l 217 764 l 217 483 l 511 483 l 511 764 l 476 764 b 421 807 454 764 421 764 b 476 849 421 849 456 849 l 642 849 b 697 806 664 849 697 849 b 642 764 697 764 663 764 l 607 764 l 607 85 l 642 85 b 697 42 664 85 697 85 m 543 1001 b 517 924 592 983 567 908 l 365 969 l 214 924 b 189 1001 164 908 139 983 l 353 1061 b 379 1061 361 1064 371 1064 l 543 1001 "},"ĥ":{"ha":729,"x_min":0,"x_max":0,"o":"m 711 42 b 656 0 711 0 675 0 l 443 0 b 386 42 424 0 386 0 b 443 85 386 85 421 85 l 497 85 l 497 400 b 404 522 497 483 478 522 b 231 331 333 522 231 469 l 231 85 l 292 85 b 349 42 314 85 349 85 b 293 0 349 0 313 0 l 72 0 b 17 42 53 0 17 0 b 74 85 17 85 51 85 l 135 85 l 135 764 l 72 764 b 17 806 53 764 17 764 b 74 849 17 849 51 849 l 175 849 b 231 792 222 849 231 835 l 231 533 b 413 607 257 560 319 607 b 593 407 522 607 593 547 l 593 85 l 654 85 b 711 42 676 85 711 85 m 543 1001 b 517 924 592 983 567 908 l 365 969 l 214 924 b 189 1001 164 908 139 983 l 353 1061 b 379 1061 361 1064 371 1064 l 543 1001 "},"Ħ":{"ha":729,"x_min":0,"x_max":0,"o":"m 697 42 b 642 0 697 0 663 0 l 476 0 b 421 43 454 0 421 0 b 476 85 421 85 456 85 l 511 85 l 511 399 l 217 399 l 217 85 l 251 85 b 307 42 274 85 307 85 b 251 0 307 0 272 0 l 86 0 b 31 42 65 0 31 0 b 86 85 31 85 64 85 l 121 85 l 121 593 l 79 593 b 36 636 56 593 36 613 b 79 679 36 660 56 679 l 121 679 l 121 764 l 86 764 b 31 806 65 764 31 764 b 86 849 31 849 64 849 l 251 849 b 307 806 274 849 307 849 b 251 764 307 764 272 764 l 217 764 l 217 679 l 511 679 l 511 764 l 476 764 b 421 807 454 764 421 764 b 476 849 421 849 456 849 l 642 849 b 697 806 664 849 697 849 b 642 764 697 764 663 764 l 607 764 l 607 679 l 649 679 b 692 636 672 679 692 660 b 649 593 692 613 672 593 l 607 593 l 607 85 l 642 85 b 697 42 664 85 697 85 m 511 593 l 217 593 l 217 483 l 511 483 "},"ħ":{"ha":729,"x_min":0,"x_max":0,"o":"m 711 42 b 656 0 711 0 675 0 l 443 0 b 386 42 424 0 386 0 b 443 85 386 85 421 85 l 497 85 l 497 400 b 404 522 497 483 478 522 b 231 331 333 522 231 469 l 231 85 l 292 85 b 349 42 314 85 349 85 b 293 0 349 0 313 0 l 72 0 b 17 42 53 0 17 0 b 74 85 17 85 51 85 l 135 85 l 135 638 l 65 638 b 22 681 42 638 22 657 b 65 724 22 704 42 724 l 135 724 l 135 764 l 72 764 b 17 806 53 764 17 764 b 74 849 17 849 51 849 l 175 849 b 231 792 222 849 231 835 l 231 724 l 365 724 b 408 681 389 724 408 704 b 365 638 408 657 389 638 l 231 638 l 231 533 b 413 607 257 560 319 607 b 593 407 522 607 593 547 l 593 85 l 654 85 b 711 42 676 85 711 85 "},"Ĩ":{"ha":729,"x_min":0,"x_max":0,"o":"m 619 42 b 563 0 619 0 583 0 l 167 0 b 110 43 146 0 110 0 b 167 85 110 85 146 85 l 317 85 l 317 764 l 167 764 b 110 807 146 764 110 764 b 167 849 110 849 146 849 l 563 849 b 619 806 583 849 619 849 b 563 764 619 764 583 764 l 413 764 l 413 85 l 563 85 b 619 42 583 85 619 85 m 608 1043 b 540 967 608 1018 568 988 b 432 921 508 943 469 921 b 339 968 385 921 357 950 b 296 997 321 985 310 997 b 199 936 276 997 240 975 b 165 921 189 928 181 921 b 122 965 143 921 122 943 b 190 1042 122 990 163 1021 b 299 1088 222 1065 261 1088 b 392 1040 346 1088 374 1058 b 435 1011 410 1024 421 1011 b 532 1072 454 1011 490 1033 b 565 1088 542 1081 550 1088 b 608 1043 588 1088 608 1065 "},"ĩ":{"ha":729,"x_min":0,"x_max":0,"o":"m 632 42 b 575 0 632 0 596 0 l 165 0 b 108 42 144 0 108 0 b 165 85 108 85 143 85 l 333 85 l 333 514 l 176 514 b 119 557 156 514 119 514 b 176 599 119 599 156 599 l 374 599 b 429 542 421 599 429 585 l 429 85 l 575 85 b 632 42 596 85 632 85 m 608 810 b 540 733 608 785 568 754 b 432 688 508 710 469 688 b 339 735 385 688 357 717 b 296 764 321 751 310 764 b 199 703 276 764 240 742 b 165 688 189 694 181 688 b 122 732 143 688 122 710 b 190 808 122 757 163 788 b 299 854 222 832 261 854 b 392 807 346 854 374 825 b 435 778 410 790 421 778 b 532 839 454 778 490 800 b 565 854 542 847 550 854 b 608 810 588 854 608 832 "},"Ī":{"ha":729,"x_min":0,"x_max":0,"o":"m 619 42 b 563 0 619 0 583 0 l 167 0 b 110 43 146 0 110 0 b 167 85 110 85 146 85 l 317 85 l 317 764 l 167 764 b 110 807 146 764 110 764 b 167 849 110 849 146 849 l 563 849 b 619 806 583 849 619 849 b 563 764 619 764 583 764 l 413 764 l 413 85 l 563 85 b 619 42 583 85 619 85 m 628 992 b 572 949 628 949 594 949 l 160 949 b 103 993 136 949 103 949 b 158 1036 103 1036 136 1036 l 572 1036 b 628 992 596 1036 628 1036 "},"ī":{"ha":729,"x_min":0,"x_max":0,"o":"m 632 42 b 575 0 632 0 596 0 l 165 0 b 108 42 144 0 108 0 b 165 85 108 85 143 85 l 333 85 l 333 514 l 176 514 b 119 557 156 514 119 514 b 176 599 119 599 156 599 l 374 599 b 429 542 421 599 429 585 l 429 85 l 575 85 b 632 42 596 85 632 85 m 628 771 b 572 728 628 728 594 728 l 160 728 b 103 772 136 728 103 728 b 158 815 103 815 136 815 l 572 815 b 628 771 596 815 628 815 "},"Ĭ":{"ha":729,"x_min":0,"x_max":0,"o":"m 619 42 b 563 0 619 0 583 0 l 167 0 b 110 43 146 0 110 0 b 167 85 110 85 146 85 l 317 85 l 317 764 l 167 764 b 110 807 146 764 110 764 b 167 849 110 849 146 849 l 563 849 b 619 806 583 849 619 849 b 563 764 619 764 583 764 l 413 764 l 413 85 l 563 85 b 619 42 583 85 619 85 m 610 1049 b 365 935 610 935 457 935 b 121 1049 274 935 121 935 b 164 1092 121 1075 138 1092 b 206 1051 197 1092 203 1068 b 365 1024 213 1024 306 1024 b 525 1051 424 1024 518 1024 b 567 1092 528 1068 533 1092 b 610 1049 594 1092 610 1075 "},"ĭ":{"ha":729,"x_min":0,"x_max":0,"o":"m 632 42 b 575 0 632 0 596 0 l 165 0 b 108 42 144 0 108 0 b 165 85 108 85 143 85 l 333 85 l 333 514 l 176 514 b 119 557 156 514 119 514 b 176 599 119 599 156 599 l 374 599 b 429 542 421 599 429 585 l 429 85 l 575 85 b 632 42 596 85 632 85 m 610 807 b 365 693 610 693 457 693 b 121 807 274 693 121 693 b 164 850 121 833 138 850 b 206 810 197 850 203 826 b 365 782 213 782 306 782 b 525 810 424 782 518 782 b 567 850 528 826 533 850 b 610 807 594 850 610 833 "},"Į":{"ha":729,"x_min":0,"x_max":0,"o":"m 619 42 b 563 0 619 0 583 0 l 413 0 b 322 -153 358 -31 322 -87 b 383 -207 322 -186 358 -207 b 458 -156 411 -207 443 -178 b 510 -149 467 -147 497 -142 b 517 -200 521 -158 526 -187 b 378 -282 483 -246 431 -282 b 240 -150 290 -282 240 -210 b 329 0 240 -92 282 -36 l 167 0 b 110 43 146 0 110 0 b 167 85 110 85 146 85 l 317 85 l 317 764 l 167 764 b 110 807 146 764 110 764 b 167 849 110 849 146 849 l 563 849 b 619 806 583 849 619 849 b 563 764 619 764 583 764 l 413 764 l 413 85 l 563 85 b 619 42 583 85 619 85 "},"į":{"ha":729,"x_min":0,"x_max":0,"o":"m 429 781 b 360 711 429 742 399 711 b 290 781 321 711 290 742 b 360 850 290 819 321 850 b 429 781 399 850 429 819 m 632 42 b 575 0 632 0 596 0 l 396 0 b 306 -153 342 -31 306 -87 b 367 -207 306 -186 342 -207 b 442 -156 394 -207 426 -178 b 493 -149 450 -147 481 -142 b 500 -200 504 -158 510 -187 b 361 -282 467 -246 414 -282 b 224 -150 274 -282 224 -210 b 311 0 224 -92 264 -36 l 165 0 b 108 42 144 0 108 0 b 165 85 108 85 143 85 l 333 85 l 333 514 l 176 514 b 119 557 156 514 119 514 b 176 599 119 599 156 599 l 374 599 b 429 542 421 599 429 585 l 429 85 l 575 85 b 632 42 596 85 632 85 "},"İ":{"ha":729,"x_min":0,"x_max":0,"o":"m 619 42 b 563 0 619 0 583 0 l 167 0 b 110 43 146 0 110 0 b 167 85 110 85 146 85 l 317 85 l 317 764 l 167 764 b 110 807 146 764 110 764 b 167 849 110 849 146 849 l 563 849 b 619 806 583 849 619 849 b 563 764 619 764 583 764 l 413 764 l 413 85 l 563 85 b 619 42 583 85 619 85 m 435 1006 b 365 936 435 967 404 936 b 296 1006 326 936 296 967 b 365 1075 296 1044 326 1075 b 435 1006 404 1075 435 1044 "},"ı":{"ha":729,"x_min":0,"x_max":0,"o":"m 632 42 b 575 0 632 0 596 0 l 165 0 b 108 42 144 0 108 0 b 165 85 108 85 143 85 l 333 85 l 333 514 l 176 514 b 119 557 156 514 119 514 b 176 599 119 599 156 599 l 374 599 b 429 542 421 599 429 585 l 429 85 l 575 85 b 632 42 596 85 632 85 "},"Ĵ":{"ha":729,"x_min":0,"x_max":0,"o":"m 664 807 b 607 764 664 764 629 764 l 565 764 l 565 186 b 329 -15 565 60 453 -15 b 99 138 190 -15 99 50 b 161 203 99 182 129 203 b 222 142 196 203 222 175 b 211 106 222 119 217 113 b 329 69 251 69 318 69 b 469 194 356 69 469 76 l 469 764 l 356 764 b 299 807 335 764 299 764 b 356 849 299 849 335 849 l 607 849 b 664 807 628 849 664 849 m 661 1001 b 635 924 710 983 685 908 l 483 969 l 332 924 b 307 1001 282 908 257 983 l 471 1061 b 497 1061 479 1064 489 1064 l 661 1001 "},"ĵ":{"ha":729,"x_min":0,"x_max":0,"o":"m 511 -61 b 260 -317 511 -150 461 -317 b 67 -211 203 -317 67 -317 b 129 -147 67 -171 97 -147 b 190 -210 158 -147 190 -171 b 189 -226 190 -219 190 -222 b 267 -232 210 -229 226 -232 b 379 -179 299 -232 342 -232 b 415 -54 415 -131 415 -78 l 415 514 l 235 514 b 179 556 214 514 179 514 b 236 599 179 599 214 599 l 456 599 b 511 542 503 599 511 585 l 511 -61 m 629 753 b 586 685 675 724 632 657 l 443 771 l 300 685 b 257 754 254 657 211 725 l 421 858 b 463 858 433 867 450 867 l 629 753 "},"Ķ":{"ha":729,"x_min":0,"x_max":0,"o":"m 688 42 b 631 0 688 0 651 0 l 526 0 b 469 43 504 0 469 0 b 525 85 469 85 506 85 l 331 432 l 201 269 l 201 85 l 232 85 b 289 42 254 85 289 85 b 232 0 289 0 253 0 l 93 0 b 36 43 71 0 36 0 b 93 85 36 85 72 85 l 124 85 l 124 764 l 93 764 b 36 807 71 764 36 764 b 93 849 36 849 72 849 l 232 849 b 289 806 254 849 289 849 b 232 764 289 764 253 764 l 201 764 l 201 394 l 494 764 b 438 806 475 764 438 764 b 494 849 438 849 474 849 l 617 849 b 674 807 636 849 674 849 b 594 764 674 764 644 764 l 383 497 l 606 101 b 615 85 607 99 613 90 b 688 42 656 85 688 85 m 451 -150 b 311 -321 451 -264 344 -321 b 278 -287 294 -321 278 -303 b 307 -258 278 -267 297 -261 b 385 -172 319 -254 369 -237 b 364 -176 378 -175 369 -176 b 299 -110 329 -176 299 -150 b 365 -46 299 -76 324 -46 b 451 -150 411 -46 451 -86 "},"ķ":{"ha":729,"x_min":0,"x_max":0,"o":"m 706 42 b 649 0 706 0 669 0 l 485 0 b 429 42 464 0 429 0 b 507 85 429 85 457 85 l 342 300 l 231 197 l 231 85 l 299 85 b 354 42 321 85 354 85 b 299 0 354 0 319 0 l 85 0 b 29 43 63 0 29 0 b 85 85 29 85 64 85 l 153 85 l 153 764 l 85 764 b 29 807 63 764 29 764 b 85 849 29 849 64 849 l 175 849 b 231 792 222 849 231 835 l 231 303 l 456 514 l 404 514 b 349 556 383 514 349 514 b 404 599 349 599 382 599 l 618 599 b 675 556 639 599 675 599 b 618 514 675 514 639 514 l 569 514 l 399 354 l 606 85 l 649 85 b 706 42 669 85 706 85 m 451 -150 b 311 -321 451 -264 344 -321 b 278 -287 294 -321 278 -303 b 307 -258 278 -267 297 -261 b 385 -172 319 -254 369 -237 b 364 -176 378 -175 369 -176 b 299 -110 329 -176 299 -150 b 365 -46 299 -76 324 -46 b 451 -150 411 -46 451 -86 "},"Ĺ":{"ha":729,"x_min":0,"x_max":0,"o":"m 678 57 b 622 0 678 13 668 0 l 100 0 b 44 42 79 0 44 0 b 100 85 44 85 78 85 l 151 85 l 151 764 l 100 764 b 44 806 79 764 44 764 b 100 849 44 849 78 849 l 325 849 b 382 806 346 849 382 849 b 325 764 382 764 344 764 l 247 764 l 247 85 l 582 85 l 582 181 b 631 238 582 210 582 238 b 678 181 678 238 678 208 l 678 57 m 347 1072 b 308 1024 347 1057 342 1039 l 124 942 b 99 935 115 938 108 935 b 53 990 63 935 53 979 b 88 1031 53 1015 68 1022 l 272 1114 b 299 1121 288 1121 299 1121 b 347 1072 326 1121 347 1100 "},"ĺ":{"ha":729,"x_min":0,"x_max":0,"o":"m 649 42 b 593 0 649 0 614 0 l 136 0 b 81 42 117 0 81 0 b 138 85 81 85 115 85 l 317 85 l 317 764 l 136 764 b 81 806 117 764 81 764 b 138 849 81 849 115 849 l 357 849 b 413 792 404 849 413 835 l 413 85 l 593 85 b 649 42 615 85 649 85 m 513 1072 b 474 1024 513 1057 507 1039 l 289 942 b 264 935 281 938 274 935 b 218 990 228 935 218 979 b 253 1031 218 1015 233 1022 l 438 1114 b 464 1121 453 1121 464 1121 b 513 1072 492 1121 513 1100 "},"Ļ":{"ha":729,"x_min":0,"x_max":0,"o":"m 678 57 b 622 0 678 13 668 0 l 100 0 b 44 42 79 0 44 0 b 100 85 44 85 78 85 l 151 85 l 151 764 l 100 764 b 44 806 79 764 44 764 b 100 849 44 849 78 849 l 325 849 b 382 806 346 849 382 849 b 325 764 382 764 344 764 l 247 764 l 247 85 l 582 85 l 582 181 b 631 238 582 210 582 238 b 678 181 678 238 678 208 l 678 57 m 451 -150 b 311 -321 451 -264 344 -321 b 278 -287 294 -321 278 -303 b 307 -258 278 -267 297 -261 b 385 -172 319 -254 369 -237 b 364 -176 378 -175 369 -176 b 299 -110 329 -176 299 -150 b 365 -46 299 -76 324 -46 b 451 -150 411 -46 451 -86 "},"ļ":{"ha":729,"x_min":0,"x_max":0,"o":"m 649 42 b 593 0 649 0 614 0 l 136 0 b 81 42 117 0 81 0 b 138 85 81 85 115 85 l 317 85 l 317 764 l 136 764 b 81 806 117 764 81 764 b 138 849 81 849 115 849 l 357 849 b 413 792 404 849 413 835 l 413 85 l 593 85 b 649 42 615 85 649 85 m 451 -150 b 311 -321 451 -264 344 -321 b 278 -287 294 -321 278 -303 b 307 -258 278 -267 297 -261 b 385 -172 319 -254 369 -237 b 364 -176 378 -175 369 -176 b 299 -110 329 -176 299 -150 b 365 -46 299 -76 324 -46 b 451 -150 411 -46 451 -86 "},"Ľ":{"ha":729,"x_min":0,"x_max":0,"o":"m 678 57 b 622 0 678 13 668 0 l 100 0 b 44 42 79 0 44 0 b 100 85 44 85 78 85 l 151 85 l 151 764 l 100 764 b 44 806 79 764 44 764 b 100 849 44 849 78 849 l 325 849 b 382 806 346 849 382 849 b 325 764 382 764 344 764 l 247 764 l 247 85 l 582 85 l 582 181 b 631 238 582 210 582 238 b 678 181 678 238 678 208 l 678 57 m 636 744 b 496 574 636 631 529 574 b 463 607 479 574 463 592 b 492 636 463 628 482 633 b 569 722 504 640 554 657 b 549 718 563 719 554 718 b 483 785 514 718 483 744 b 550 849 483 818 508 849 b 636 744 596 849 636 808 "},"ľ":{"ha":729,"x_min":0,"x_max":0,"o":"m 649 42 b 593 0 649 0 614 0 l 136 0 b 81 42 117 0 81 0 b 138 85 81 85 115 85 l 317 85 l 317 764 l 136 764 b 81 806 117 764 81 764 b 138 849 81 849 115 849 l 357 849 b 413 792 404 849 413 835 l 413 85 l 593 85 b 649 42 615 85 649 85 m 640 744 b 500 574 640 631 533 574 b 467 607 483 574 467 592 b 496 636 467 628 486 633 b 574 722 508 640 558 657 b 553 718 567 719 558 718 b 488 785 518 718 488 744 b 554 849 488 818 513 849 b 640 744 600 849 640 808 "},"Ŀ":{"ha":729,"x_min":0,"x_max":0,"o":"m 678 57 b 622 0 678 13 668 0 l 100 0 b 44 42 79 0 44 0 b 100 85 44 85 78 85 l 151 85 l 151 764 l 100 764 b 44 806 79 764 44 764 b 100 849 44 849 78 849 l 325 849 b 382 806 346 849 382 849 b 325 764 382 764 344 764 l 247 764 l 247 85 l 582 85 l 582 181 b 631 238 582 210 582 238 b 678 181 678 238 678 208 l 678 57 m 633 440 b 564 371 633 401 603 371 b 494 440 525 371 494 401 b 564 510 494 479 525 510 b 633 440 603 510 633 479 "},"ŀ":{"ha":729,"x_min":0,"x_max":0,"o":"m 649 42 b 593 0 649 0 614 0 l 136 0 b 81 42 117 0 81 0 b 138 85 81 85 115 85 l 317 85 l 317 764 l 136 764 b 81 806 117 764 81 764 b 138 849 81 849 115 849 l 357 849 b 413 792 404 849 413 835 l 413 85 l 593 85 b 649 42 615 85 649 85 m 799 440 b 729 371 799 401 768 371 b 660 440 690 371 660 401 b 729 510 660 479 690 510 b 799 440 768 510 799 479 "},"Ł":{"ha":729,"x_min":0,"x_max":0,"o":"m 678 57 b 622 0 678 13 668 0 l 100 0 b 44 42 79 0 44 0 b 100 85 44 85 78 85 l 151 85 l 151 364 l 103 331 b 47 340 83 317 58 322 l 46 340 b 57 397 33 360 39 385 l 151 463 l 151 764 l 100 764 b 44 806 79 764 44 764 b 100 849 44 849 78 849 l 325 849 b 382 806 346 849 382 849 b 325 764 382 764 344 764 l 247 764 l 247 528 l 482 688 b 538 676 500 700 525 694 l 538 675 b 528 618 551 656 546 631 l 247 429 l 247 85 l 582 85 l 582 181 b 631 238 582 210 582 238 b 678 181 678 238 678 208 l 678 57 "},"ł":{"ha":729,"x_min":0,"x_max":0,"o":"m 649 42 b 593 0 649 0 614 0 l 136 0 b 81 42 117 0 81 0 b 138 85 81 85 115 85 l 317 85 l 317 426 l 175 331 b 119 340 154 317 131 322 l 118 340 b 129 397 106 360 111 385 l 317 525 l 317 764 l 136 764 b 81 806 117 764 81 764 b 138 849 81 849 115 849 l 357 849 b 413 792 404 849 413 835 l 413 592 l 554 688 b 610 676 572 700 597 694 l 610 675 b 600 618 624 656 618 631 l 413 492 l 413 85 l 593 85 b 649 42 615 85 649 85 "},"Ń":{"ha":729,"x_min":0,"x_max":0,"o":"m 689 806 b 633 764 689 764 654 764 l 599 764 l 599 57 b 540 0 599 4 582 0 b 464 50 504 0 482 1 l 208 744 l 207 744 l 207 85 l 242 85 b 297 42 264 85 297 85 b 242 0 297 0 263 0 l 94 0 b 39 43 72 0 39 0 b 94 85 39 85 74 85 l 129 85 l 129 764 l 94 764 b 39 807 72 764 39 764 b 94 849 39 849 74 849 l 189 849 b 264 799 226 849 247 844 l 519 104 l 521 104 l 521 764 l 486 764 b 431 806 465 764 431 764 b 486 849 431 849 464 849 l 633 849 b 689 806 656 849 689 849 m 513 1072 b 474 1024 513 1057 507 1039 l 289 942 b 264 935 281 938 274 935 b 218 990 228 935 218 979 b 253 1031 218 1015 233 1022 l 438 1114 b 464 1121 453 1121 464 1121 b 513 1072 492 1121 513 1100 "},"ń":{"ha":729,"x_min":0,"x_max":0,"o":"m 711 42 b 656 0 711 0 675 0 l 443 0 b 386 42 424 0 386 0 b 443 85 386 85 421 85 l 497 85 l 497 400 b 404 522 497 483 478 522 b 231 331 333 522 231 469 l 231 85 l 292 85 b 349 42 314 85 349 85 b 293 0 349 0 313 0 l 72 0 b 17 42 53 0 17 0 b 74 85 17 85 51 85 l 135 85 l 135 514 l 72 514 b 17 556 53 514 17 514 b 74 599 17 599 51 599 l 175 599 b 231 533 231 599 231 578 b 413 607 257 560 319 607 b 593 407 522 607 593 547 l 593 85 l 654 85 b 711 42 676 85 711 85 m 513 815 b 474 767 513 800 507 782 l 289 685 b 264 678 281 681 274 678 b 218 733 228 678 218 722 b 253 774 218 758 233 765 l 438 857 b 464 864 453 864 464 864 b 513 815 492 864 513 843 "},"Ņ":{"ha":729,"x_min":0,"x_max":0,"o":"m 689 806 b 633 764 689 764 654 764 l 599 764 l 599 57 b 540 0 599 4 582 0 b 464 50 504 0 482 1 l 208 744 l 207 744 l 207 85 l 242 85 b 297 42 264 85 297 85 b 242 0 297 0 263 0 l 94 0 b 39 43 72 0 39 0 b 94 85 39 85 74 85 l 129 85 l 129 764 l 94 764 b 39 807 72 764 39 764 b 94 849 39 849 74 849 l 189 849 b 264 799 226 849 247 844 l 519 104 l 521 104 l 521 764 l 486 764 b 431 806 465 764 431 764 b 486 849 431 849 464 849 l 633 849 b 689 806 656 849 689 849 m 451 -150 b 311 -321 451 -264 344 -321 b 278 -287 294 -321 278 -303 b 307 -258 278 -267 297 -261 b 385 -172 319 -254 369 -237 b 364 -176 378 -175 369 -176 b 299 -110 329 -176 299 -150 b 365 -46 299 -76 324 -46 b 451 -150 411 -46 451 -86 "},"ņ":{"ha":729,"x_min":0,"x_max":0,"o":"m 711 42 b 656 0 711 0 675 0 l 443 0 b 386 42 424 0 386 0 b 443 85 386 85 421 85 l 497 85 l 497 400 b 404 522 497 483 478 522 b 231 331 333 522 231 469 l 231 85 l 292 85 b 349 42 314 85 349 85 b 293 0 349 0 313 0 l 72 0 b 17 42 53 0 17 0 b 74 85 17 85 51 85 l 135 85 l 135 514 l 72 514 b 17 556 53 514 17 514 b 74 599 17 599 51 599 l 175 599 b 231 533 231 599 231 578 b 413 607 257 560 319 607 b 593 407 522 607 593 547 l 593 85 l 654 85 b 711 42 676 85 711 85 m 451 -150 b 311 -321 451 -264 344 -321 b 278 -287 294 -321 278 -303 b 307 -258 278 -267 297 -261 b 385 -172 319 -254 369 -237 b 364 -176 378 -175 369 -176 b 299 -110 329 -176 299 -150 b 365 -46 299 -76 324 -46 b 451 -150 411 -46 451 -86 "},"Ň":{"ha":729,"x_min":0,"x_max":0,"o":"m 689 806 b 633 764 689 764 654 764 l 599 764 l 599 57 b 540 0 599 4 582 0 b 464 50 504 0 482 1 l 208 744 l 207 744 l 207 85 l 242 85 b 297 42 264 85 297 85 b 242 0 297 0 263 0 l 94 0 b 39 43 72 0 39 0 b 94 85 39 85 74 85 l 129 85 l 129 764 l 94 764 b 39 807 72 764 39 764 b 94 849 39 849 74 849 l 189 849 b 264 799 226 849 247 844 l 519 104 l 521 104 l 521 764 l 486 764 b 431 806 465 764 431 764 b 486 849 431 849 464 849 l 633 849 b 689 806 656 849 689 849 m 378 924 b 351 924 369 921 360 921 l 188 983 b 214 1061 139 1001 164 1076 l 365 1015 l 517 1061 b 542 983 567 1076 592 1001 "},"ň":{"ha":729,"x_min":0,"x_max":0,"o":"m 711 42 b 656 0 711 0 675 0 l 443 0 b 386 42 424 0 386 0 b 443 85 386 85 421 85 l 497 85 l 497 400 b 404 522 497 483 478 522 b 231 331 333 522 231 469 l 231 85 l 292 85 b 349 42 314 85 349 85 b 293 0 349 0 313 0 l 72 0 b 17 42 53 0 17 0 b 74 85 17 85 51 85 l 135 85 l 135 514 l 72 514 b 17 556 53 514 17 514 b 74 599 17 599 51 599 l 175 599 b 231 533 231 599 231 578 b 413 607 257 560 319 607 b 593 407 522 607 593 547 l 593 85 l 654 85 b 711 42 676 85 711 85 m 388 683 b 346 683 375 675 358 675 l 179 789 b 222 857 133 818 176 885 l 365 771 l 508 857 b 551 788 554 885 597 817 "},"Ŋ":{"ha":729,"x_min":0,"x_max":0,"o":"m 681 425 b 486 -15 681 217 664 -15 b 425 46 453 -15 425 13 b 486 107 425 79 453 107 b 524 94 500 107 514 103 b 583 425 583 138 583 294 b 401 767 583 590 543 767 b 231 594 310 767 242 689 l 231 85 l 292 85 b 349 42 314 85 349 85 b 293 0 349 0 313 0 l 72 0 b 17 42 53 0 17 0 b 74 85 17 85 51 85 l 135 85 l 135 764 l 72 764 b 17 806 53 764 17 764 b 74 849 17 849 51 849 l 175 849 b 231 794 221 849 231 835 b 401 864 276 838 335 864 b 681 425 593 864 681 643 "},"ŋ":{"ha":729,"x_min":0,"x_max":0,"o":"m 642 85 b 608 -192 642 -12 635 -114 b 450 -324 581 -271 533 -324 b 401 -275 422 -324 401 -303 b 450 -226 401 -249 422 -226 b 546 85 546 -226 546 -56 l 546 400 b 453 522 546 483 526 522 b 279 331 382 522 279 469 l 279 85 l 340 85 b 397 42 363 85 397 85 b 342 0 397 0 361 0 l 121 0 b 65 42 101 0 65 0 b 122 85 65 85 100 85 l 183 85 l 183 514 l 121 514 b 65 556 101 514 65 514 b 122 599 65 599 100 599 l 224 599 b 279 533 279 599 279 578 b 461 607 306 560 368 607 b 642 407 571 607 642 547 l 642 85 "},"Ō":{"ha":729,"x_min":0,"x_max":0,"o":"m 650 424 b 364 -15 650 22 619 -15 b 78 424 107 -15 78 22 b 364 864 78 826 107 864 b 650 424 621 864 650 825 m 554 436 b 538 690 554 521 554 625 b 364 779 517 767 468 779 b 189 681 250 779 207 763 b 174 436 174 617 174 522 b 190 168 174 360 174 239 b 364 69 207 99 242 69 b 539 176 488 69 524 99 b 554 436 554 251 554 350 m 628 992 b 572 949 628 949 594 949 l 160 949 b 103 993 136 949 103 949 b 158 1036 103 1036 136 1036 l 572 1036 b 628 992 596 1036 628 1036 "},"ō":{"ha":729,"x_min":0,"x_max":0,"o":"m 649 300 b 364 -8 649 125 517 -8 b 79 300 211 -8 79 124 b 364 611 79 474 208 611 b 649 300 519 611 649 474 m 553 310 b 364 526 553 436 464 526 b 175 310 265 526 175 436 b 364 76 175 181 261 76 b 553 310 467 76 553 181 m 628 771 b 572 728 628 728 594 728 l 160 728 b 103 772 136 728 103 728 b 158 815 103 815 136 815 l 572 815 b 628 771 596 815 628 815 "},"Ŏ":{"ha":729,"x_min":0,"x_max":0,"o":"m 650 424 b 364 -15 650 22 619 -15 b 78 424 107 -15 78 22 b 364 864 78 826 107 864 b 650 424 621 864 650 825 m 554 436 b 538 690 554 521 554 625 b 364 779 517 767 468 779 b 189 681 250 779 207 763 b 174 436 174 617 174 522 b 190 168 174 360 174 239 b 364 69 207 99 242 69 b 539 176 488 69 524 99 b 554 436 554 251 554 350 m 610 1049 b 365 935 610 935 457 935 b 121 1049 274 935 121 935 b 164 1092 121 1075 138 1092 b 206 1051 197 1092 203 1068 b 365 1024 213 1024 306 1024 b 525 1051 424 1024 518 1024 b 567 1092 528 1068 533 1092 b 610 1049 594 1092 610 1075 "},"ŏ":{"ha":729,"x_min":0,"x_max":0,"o":"m 649 300 b 364 -8 649 125 517 -8 b 79 300 211 -8 79 124 b 364 611 79 474 208 611 b 649 300 519 611 649 474 m 553 310 b 364 526 553 436 464 526 b 175 310 265 526 175 436 b 364 76 175 181 261 76 b 553 310 467 76 553 181 m 610 807 b 365 693 610 693 457 693 b 121 807 274 693 121 693 b 164 850 121 833 138 850 b 206 810 197 850 203 826 b 365 782 213 782 306 782 b 525 810 424 782 518 782 b 567 850 528 826 533 850 b 610 807 594 850 610 833 "},"Ő":{"ha":729,"x_min":0,"x_max":0,"o":"m 650 424 b 364 -15 650 22 619 -15 b 78 424 107 -15 78 22 b 364 864 78 826 107 864 b 650 424 621 864 650 825 m 554 436 b 538 690 554 521 554 625 b 364 779 517 767 468 779 b 189 681 250 779 207 763 b 174 436 174 617 174 522 b 190 168 174 360 174 239 b 364 69 207 99 242 69 b 539 176 488 69 524 99 b 554 436 554 251 554 350 m 321 1113 b 317 1044 339 1093 336 1063 l 210 947 b 140 951 189 929 158 931 b 144 1019 122 971 125 1001 l 251 1117 b 321 1113 272 1135 303 1133 m 590 1113 b 586 1044 608 1093 606 1063 l 479 947 b 410 951 458 929 428 931 b 414 1019 392 971 394 1001 l 521 1117 b 590 1113 542 1135 572 1133 "},"ő":{"ha":729,"x_min":0,"x_max":0,"o":"m 649 300 b 364 -8 649 125 517 -8 b 79 300 211 -8 79 124 b 364 611 79 474 208 611 b 649 300 519 611 649 474 m 553 310 b 364 526 553 436 464 526 b 175 310 265 526 175 436 b 364 76 175 181 261 76 b 553 310 467 76 553 181 m 321 851 b 317 783 339 832 336 801 l 210 686 b 140 690 189 668 158 669 b 144 758 122 710 125 740 l 251 856 b 321 851 272 874 303 872 m 590 851 b 586 783 608 832 606 801 l 479 686 b 410 690 458 668 428 669 b 414 758 392 710 394 740 l 521 856 b 590 851 542 874 572 872 "},"Œ":{"ha":729,"x_min":0,"x_max":0,"o":"m 697 57 b 642 0 697 13 688 0 l 413 0 b 353 -6 400 0 381 0 b 268 -15 306 -15 296 -15 b 60 113 115 -15 78 28 b 40 425 40 200 40 313 b 61 746 40 600 44 672 b 268 864 82 836 139 864 b 347 856 292 864 307 864 b 413 849 381 849 396 849 l 632 849 b 688 792 679 849 688 835 l 688 690 b 649 633 688 671 688 633 b 610 690 610 633 610 671 l 610 764 l 442 764 l 442 482 l 611 482 b 667 439 633 482 667 482 b 611 397 667 397 632 397 l 442 397 l 442 85 l 619 85 l 619 181 b 658 238 619 200 619 238 b 697 181 697 238 697 200 l 697 57 m 364 610 b 274 779 364 758 340 779 b 118 436 118 779 118 704 b 276 69 118 154 118 69 b 364 239 342 69 364 96 "},"œ":{"ha":729,"x_min":0,"x_max":0,"o":"m 701 150 b 553 -8 701 125 665 -8 b 390 115 469 -8 415 64 b 228 -8 364 63 310 -8 b 26 301 118 -8 26 122 b 228 611 26 481 118 611 b 389 490 315 611 368 531 b 539 611 418 550 467 611 b 701 324 633 611 701 508 b 646 265 701 281 694 265 l 431 265 b 558 76 440 158 499 76 b 624 156 589 76 613 106 b 663 190 625 163 632 190 b 701 150 682 190 701 175 m 622 349 b 539 526 615 489 571 526 b 432 349 492 526 442 447 l 622 349 m 351 310 b 228 526 351 440 288 526 b 104 310 168 526 104 442 b 228 76 104 176 167 76 b 351 310 289 76 351 176 "},"Ŕ":{"ha":729,"x_min":0,"x_max":0,"o":"m 725 129 b 604 -15 725 76 692 -15 b 494 49 557 -15 518 7 b 468 225 468 93 468 135 b 438 343 468 283 468 314 b 325 382 393 382 351 382 l 217 382 l 217 85 l 251 85 b 307 42 274 85 307 85 b 251 0 307 0 272 0 l 86 0 b 31 42 65 0 31 0 b 86 85 31 85 64 85 l 121 85 l 121 764 l 86 764 b 31 806 65 764 31 764 b 86 849 31 849 64 849 l 332 849 b 601 615 496 849 601 735 b 483 422 601 558 575 474 b 551 338 503 407 535 378 b 564 207 564 306 564 294 b 603 69 564 133 564 69 b 629 132 626 69 629 121 b 676 174 631 174 663 174 b 725 129 692 174 725 174 m 506 615 b 317 764 506 682 444 764 l 217 764 l 217 467 l 317 467 b 506 615 443 467 506 547 m 513 1072 b 474 1024 513 1057 507 1039 l 289 942 b 264 935 281 938 274 935 b 218 990 228 935 218 979 b 253 1031 218 1015 233 1022 l 438 1114 b 464 1121 453 1121 464 1121 b 513 1072 492 1121 513 1100 "},"ŕ":{"ha":729,"x_min":0,"x_max":0,"o":"m 676 521 b 618 461 676 483 649 461 b 558 522 583 461 560 489 b 308 258 390 522 308 389 l 308 85 l 463 85 b 519 42 483 85 519 85 b 463 0 519 0 483 0 l 100 0 b 44 43 78 0 44 0 b 100 85 44 85 79 85 l 213 85 l 213 514 l 100 514 b 44 557 78 514 44 514 b 100 599 44 599 79 599 l 253 599 b 308 542 300 599 308 585 l 308 494 b 544 607 385 582 474 607 b 676 521 660 607 676 549 m 513 815 b 474 767 513 800 507 782 l 289 685 b 264 678 281 681 274 678 b 218 733 228 678 218 722 b 253 774 218 758 233 765 l 438 857 b 464 864 453 864 464 864 b 513 815 492 864 513 843 "},"Ŗ":{"ha":729,"x_min":0,"x_max":0,"o":"m 725 129 b 604 -15 725 76 692 -15 b 494 49 557 -15 518 7 b 468 225 468 93 468 135 b 438 343 468 283 468 314 b 325 382 393 382 351 382 l 217 382 l 217 85 l 251 85 b 307 42 274 85 307 85 b 251 0 307 0 272 0 l 86 0 b 31 42 65 0 31 0 b 86 85 31 85 64 85 l 121 85 l 121 764 l 86 764 b 31 806 65 764 31 764 b 86 849 31 849 64 849 l 332 849 b 601 615 496 849 601 735 b 483 422 601 558 575 474 b 551 338 503 407 535 378 b 564 207 564 306 564 294 b 603 69 564 133 564 69 b 629 132 626 69 629 121 b 676 174 631 174 663 174 b 725 129 692 174 725 174 m 506 615 b 317 764 506 682 444 764 l 217 764 l 217 467 l 317 467 b 506 615 443 467 506 547 m 451 -150 b 311 -321 451 -264 344 -321 b 278 -287 294 -321 278 -303 b 307 -258 278 -267 297 -261 b 385 -172 319 -254 369 -237 b 364 -176 378 -175 369 -176 b 299 -110 329 -176 299 -150 b 365 -46 299 -76 324 -46 b 451 -150 411 -46 451 -86 "},"ŗ":{"ha":729,"x_min":0,"x_max":0,"o":"m 676 521 b 618 461 676 483 649 461 b 558 522 583 461 560 489 b 308 258 390 522 308 389 l 308 85 l 463 85 b 519 42 483 85 519 85 b 463 0 519 0 483 0 l 100 0 b 44 43 78 0 44 0 b 100 85 44 85 79 85 l 213 85 l 213 514 l 100 514 b 44 557 78 514 44 514 b 100 599 44 599 79 599 l 253 599 b 308 542 300 599 308 585 l 308 494 b 544 607 385 582 474 607 b 676 521 660 607 676 549 m 347 -150 b 207 -321 347 -264 240 -321 b 174 -287 190 -321 174 -303 b 203 -258 174 -267 193 -261 b 281 -172 215 -254 265 -237 b 260 -176 274 -175 265 -176 b 194 -110 225 -176 194 -150 b 261 -46 194 -76 219 -46 b 347 -150 307 -46 347 -86 "},"Ř":{"ha":729,"x_min":0,"x_max":0,"o":"m 725 129 b 604 -15 725 76 692 -15 b 494 49 557 -15 518 7 b 468 225 468 93 468 135 b 438 343 468 283 468 314 b 325 382 393 382 351 382 l 217 382 l 217 85 l 251 85 b 307 42 274 85 307 85 b 251 0 307 0 272 0 l 86 0 b 31 42 65 0 31 0 b 86 85 31 85 64 85 l 121 85 l 121 764 l 86 764 b 31 806 65 764 31 764 b 86 849 31 849 64 849 l 332 849 b 601 615 496 849 601 735 b 483 422 601 558 575 474 b 551 338 503 407 535 378 b 564 207 564 306 564 294 b 603 69 564 133 564 69 b 629 132 626 69 629 121 b 676 174 631 174 663 174 b 725 129 692 174 725 174 m 506 615 b 317 764 506 682 444 764 l 217 764 l 217 467 l 317 467 b 506 615 443 467 506 547 m 378 924 b 351 924 369 921 360 921 l 188 983 b 214 1061 139 1001 164 1076 l 365 1015 l 517 1061 b 542 983 567 1076 592 1001 "},"ř":{"ha":729,"x_min":0,"x_max":0,"o":"m 676 521 b 618 461 676 483 649 461 b 558 522 583 461 560 489 b 308 258 390 522 308 389 l 308 85 l 463 85 b 519 42 483 85 519 85 b 463 0 519 0 483 0 l 100 0 b 44 43 78 0 44 0 b 100 85 44 85 79 85 l 213 85 l 213 514 l 100 514 b 44 557 78 514 44 514 b 100 599 44 599 79 599 l 253 599 b 308 542 300 599 308 585 l 308 494 b 544 607 385 582 474 607 b 676 521 660 607 676 549 m 388 683 b 346 683 375 675 358 675 l 179 789 b 222 857 133 818 176 885 l 365 771 l 508 857 b 551 788 554 885 597 817 "},"Ś":{"ha":729,"x_min":0,"x_max":0,"o":"m 656 231 b 394 -15 656 107 556 -15 b 165 49 306 -15 221 7 b 114 -15 153 4 144 -15 b 72 42 72 -15 72 19 l 72 225 b 121 282 72 253 72 282 b 168 233 165 282 167 257 b 233 113 169 208 175 150 b 396 69 289 75 357 69 b 565 224 506 69 565 151 b 411 381 565 344 450 372 l 251 418 b 72 636 136 451 72 543 b 331 864 72 754 176 864 b 525 799 393 864 468 847 b 576 864 536 840 543 864 b 618 807 618 864 618 829 l 618 624 b 569 567 618 596 618 567 b 522 606 542 567 526 575 b 329 779 514 649 493 779 b 163 642 231 779 163 713 b 274 511 163 576 215 528 l 386 486 b 589 396 494 461 532 451 b 656 231 606 378 656 319 m 513 1072 b 474 1024 513 1057 507 1039 l 289 942 b 264 935 281 938 274 935 b 218 990 228 935 218 979 b 253 1031 218 1015 233 1022 l 438 1114 b 464 1121 453 1121 464 1121 b 513 1072 492 1121 513 1100 "},"ś":{"ha":729,"x_min":0,"x_max":0,"o":"m 638 174 b 374 -8 638 107 593 -8 b 193 44 335 -8 261 -6 b 142 -8 176 -7 154 -8 b 100 49 100 -8 100 26 l 100 183 b 149 240 100 211 100 240 b 197 200 185 240 190 225 b 375 76 232 92 310 76 b 553 174 501 76 553 122 b 374 276 553 247 442 265 b 100 447 246 296 100 319 b 364 611 100 497 132 611 b 513 582 390 611 451 611 b 554 611 515 592 521 611 b 596 554 596 611 596 576 l 596 458 b 547 401 596 431 596 401 b 500 449 504 401 501 425 b 361 526 496 485 476 526 b 185 447 229 526 185 483 b 319 371 185 393 279 376 l 414 354 b 638 174 458 347 638 318 m 513 815 b 474 767 513 800 507 782 l 289 685 b 264 678 281 681 274 678 b 218 733 228 678 218 722 b 253 774 218 758 233 765 l 438 857 b 464 864 453 864 464 864 b 513 815 492 864 513 843 "},"Ŝ":{"ha":729,"x_min":0,"x_max":0,"o":"m 656 231 b 394 -15 656 107 556 -15 b 165 49 306 -15 221 7 b 114 -15 153 4 144 -15 b 72 42 72 -15 72 19 l 72 225 b 121 282 72 253 72 282 b 168 233 165 282 167 257 b 233 113 169 208 175 150 b 396 69 289 75 357 69 b 565 224 506 69 565 151 b 411 381 565 344 450 372 l 251 418 b 72 636 136 451 72 543 b 331 864 72 754 176 864 b 525 799 393 864 468 847 b 576 864 536 840 543 864 b 618 807 618 864 618 829 l 618 624 b 569 567 618 596 618 567 b 522 606 542 567 526 575 b 329 779 514 649 493 779 b 163 642 231 779 163 713 b 274 511 163 576 215 528 l 386 486 b 589 396 494 461 532 451 b 656 231 606 378 656 319 m 543 1001 b 517 924 592 983 567 908 l 365 969 l 214 924 b 189 1001 164 908 139 983 l 353 1061 b 379 1061 361 1064 371 1064 l 543 1001 "},"ŝ":{"ha":729,"x_min":0,"x_max":0,"o":"m 638 174 b 374 -8 638 107 593 -8 b 193 44 335 -8 261 -6 b 142 -8 176 -7 154 -8 b 100 49 100 -8 100 26 l 100 183 b 149 240 100 211 100 240 b 197 200 185 240 190 225 b 375 76 232 92 310 76 b 553 174 501 76 553 122 b 374 276 553 247 442 265 b 100 447 246 296 100 319 b 364 611 100 497 132 611 b 513 582 390 611 451 611 b 554 611 515 592 521 611 b 596 554 596 611 596 576 l 596 458 b 547 401 596 431 596 401 b 500 449 504 401 501 425 b 361 526 496 485 476 526 b 185 447 229 526 185 483 b 319 371 185 393 279 376 l 414 354 b 638 174 458 347 638 318 m 551 753 b 508 685 597 724 554 657 l 365 771 l 222 685 b 179 754 176 657 133 725 l 343 858 b 385 858 356 867 372 867 l 551 753 "},"Ş":{"ha":729,"x_min":0,"x_max":0,"o":"m 656 231 b 439 -12 656 118 574 8 l 439 -28 b 576 -162 538 -47 576 -108 b 250 -304 576 -304 382 -304 b 207 -261 229 -304 207 -293 b 290 -218 207 -218 238 -218 b 481 -162 343 -218 481 -218 b 388 -107 481 -135 449 -110 b 343 -49 343 -104 343 -76 l 343 -12 b 165 49 274 -6 210 15 b 114 -15 153 4 144 -15 b 72 42 72 -15 72 19 l 72 225 b 121 282 72 253 72 282 b 168 233 165 282 167 257 b 233 113 169 208 175 150 b 396 69 289 75 357 69 b 565 224 506 69 565 151 b 411 381 565 344 450 372 l 251 418 b 72 636 136 451 72 543 b 331 864 72 754 176 864 b 525 799 393 864 468 847 b 576 864 536 840 543 864 b 618 807 618 864 618 829 l 618 624 b 569 567 618 596 618 567 b 522 606 542 567 526 575 b 329 779 514 649 493 779 b 163 642 231 779 163 713 b 274 511 163 576 215 528 l 386 486 b 589 396 494 461 532 451 b 656 231 606 378 656 319 "},"ş":{"ha":729,"x_min":0,"x_max":0,"o":"m 638 174 b 439 -4 638 114 603 17 l 439 -12 b 576 -147 538 -32 576 -93 b 250 -289 576 -289 382 -289 b 207 -246 229 -289 207 -278 b 290 -203 207 -203 238 -203 b 481 -147 343 -203 481 -203 b 388 -92 481 -119 449 -94 b 343 -33 343 -89 343 -61 l 343 -7 b 193 44 303 -4 246 6 b 142 -8 176 -7 154 -8 b 100 49 100 -8 100 26 l 100 183 b 149 240 100 211 100 240 b 197 200 185 240 190 225 b 375 76 232 92 310 76 b 553 174 501 76 553 122 b 374 276 553 247 442 265 b 100 447 246 296 100 319 b 364 611 100 497 132 611 b 513 582 390 611 451 611 b 554 611 515 592 521 611 b 596 554 596 611 596 576 l 596 458 b 547 401 596 431 596 401 b 500 449 504 401 501 425 b 361 526 496 485 476 526 b 185 447 229 526 185 483 b 319 371 185 393 279 376 l 414 354 b 638 174 458 347 638 318 "},"Š":{"ha":729,"x_min":0,"x_max":0,"o":"m 656 231 b 394 -15 656 107 556 -15 b 165 49 306 -15 221 7 b 114 -15 153 4 144 -15 b 72 42 72 -15 72 19 l 72 225 b 121 282 72 253 72 282 b 168 233 165 282 167 257 b 233 113 169 208 175 150 b 396 69 289 75 357 69 b 565 224 506 69 565 151 b 411 381 565 344 450 372 l 251 418 b 72 636 136 451 72 543 b 331 864 72 754 176 864 b 525 799 393 864 468 847 b 576 864 536 840 543 864 b 618 807 618 864 618 829 l 618 624 b 569 567 618 596 618 567 b 522 606 542 567 526 575 b 329 779 514 649 493 779 b 163 642 231 779 163 713 b 274 511 163 576 215 528 l 386 486 b 589 396 494 461 532 451 b 656 231 606 378 656 319 m 378 924 b 351 924 369 921 360 921 l 188 983 b 214 1061 139 1001 164 1076 l 365 1015 l 517 1061 b 542 983 567 1076 592 1001 "},"š":{"ha":729,"x_min":0,"x_max":0,"o":"m 638 174 b 374 -8 638 107 593 -8 b 193 44 335 -8 261 -6 b 142 -8 176 -7 154 -8 b 100 49 100 -8 100 26 l 100 183 b 149 240 100 211 100 240 b 197 200 185 240 190 225 b 375 76 232 92 310 76 b 553 174 501 76 553 122 b 374 276 553 247 442 265 b 100 447 246 296 100 319 b 364 611 100 497 132 611 b 513 582 390 611 451 611 b 554 611 515 592 521 611 b 596 554 596 611 596 576 l 596 458 b 547 401 596 431 596 401 b 500 449 504 401 501 425 b 361 526 496 485 476 526 b 185 447 229 526 185 483 b 319 371 185 393 279 376 l 414 354 b 638 174 458 347 638 318 m 388 683 b 346 683 375 675 358 675 l 179 789 b 222 857 133 818 176 885 l 365 771 l 508 857 b 551 788 554 885 597 817 "},"Ţ":{"ha":729,"x_min":0,"x_max":0,"o":"m 692 690 b 643 633 692 663 692 633 b 596 690 596 633 596 664 l 596 764 l 413 764 l 413 85 l 485 85 b 540 42 507 85 540 85 b 485 0 540 0 506 0 l 411 0 l 413 -17 b 550 -151 511 -36 550 -97 b 224 -293 550 -293 356 -293 b 181 -250 203 -293 181 -282 b 264 -207 181 -207 211 -207 b 454 -151 317 -207 454 -207 b 361 -96 454 -124 422 -99 b 317 -37 317 -93 317 -65 l 317 0 l 244 0 b 189 43 222 0 189 0 b 244 85 189 85 224 85 l 317 85 l 317 764 l 132 764 l 132 690 b 83 633 132 663 132 633 b 36 690 36 633 36 664 l 36 792 b 93 849 36 838 47 849 l 636 849 b 692 792 683 849 692 835 l 692 690 "},"ţ":{"ha":729,"x_min":0,"x_max":0,"o":"m 624 175 b 458 -4 624 71 544 13 l 458 -17 b 596 -151 557 -36 596 -97 b 269 -293 596 -293 401 -293 b 226 -250 249 -293 226 -282 b 310 -207 226 -207 257 -207 b 500 -151 363 -207 500 -207 b 407 -96 500 -124 468 -99 b 363 -37 363 -93 363 -65 l 363 -4 b 213 175 281 8 213 63 l 213 514 l 90 514 b 35 556 69 514 35 514 b 92 599 35 599 69 599 l 213 599 l 213 713 b 261 769 213 740 213 769 b 308 713 308 769 308 739 l 308 599 l 536 599 b 592 556 558 599 592 599 b 536 514 592 514 557 514 l 308 514 l 308 183 b 415 76 308 149 308 76 b 528 176 447 76 526 90 b 575 229 528 200 529 229 b 624 175 624 229 624 200 "},"Ť":{"ha":729,"x_min":0,"x_max":0,"o":"m 692 690 b 643 633 692 663 692 633 b 596 690 596 633 596 664 l 596 764 l 413 764 l 413 85 l 485 85 b 540 42 507 85 540 85 b 485 0 540 0 506 0 l 244 0 b 189 43 222 0 189 0 b 244 85 189 85 224 85 l 317 85 l 317 764 l 132 764 l 132 690 b 83 633 132 663 132 633 b 36 690 36 633 36 664 l 36 792 b 93 849 36 838 47 849 l 636 849 b 692 792 683 849 692 835 l 692 690 m 378 924 b 351 924 369 921 360 921 l 188 983 b 214 1061 139 1001 164 1076 l 365 1015 l 517 1061 b 542 983 567 1076 592 1001 "},"ť":{"ha":729,"x_min":0,"x_max":0,"o":"m 624 175 b 408 -8 624 51 511 -8 b 213 175 307 -8 213 42 l 213 514 l 90 514 b 35 556 69 514 35 514 b 92 599 35 599 69 599 l 213 599 l 213 713 b 261 769 213 740 213 769 b 308 713 308 769 308 739 l 308 599 l 536 599 b 592 556 558 599 592 599 b 536 514 592 514 557 514 l 308 514 l 308 183 b 415 76 308 149 308 76 b 528 176 447 76 526 90 b 575 229 528 200 529 229 b 624 175 624 229 624 200 m 536 822 b 396 651 536 708 429 651 b 363 685 379 651 363 669 b 392 714 363 706 382 711 b 469 800 404 718 454 735 b 449 796 463 797 454 796 b 383 863 414 796 383 822 b 450 926 383 896 408 926 b 536 822 496 926 536 886 "},"Ũ":{"ha":729,"x_min":0,"x_max":0,"o":"m 722 807 b 665 764 722 764 688 764 l 624 764 l 624 283 b 364 -15 624 113 503 -15 b 104 283 225 -15 104 113 l 104 764 l 63 764 b 6 807 42 764 6 764 b 63 849 6 849 42 849 l 242 849 b 299 807 263 849 299 849 b 242 764 299 764 263 764 l 200 764 l 200 290 b 364 69 200 142 290 69 b 528 290 436 69 528 142 l 528 764 l 486 764 b 429 807 465 764 429 764 b 486 849 429 849 465 849 l 665 849 b 722 807 686 849 722 849 m 608 1043 b 540 967 608 1018 568 988 b 432 921 508 943 469 921 b 339 968 385 921 357 950 b 296 997 321 985 310 997 b 199 936 276 997 240 975 b 165 921 189 928 181 921 b 122 965 143 921 122 943 b 190 1042 122 990 163 1021 b 299 1088 222 1065 261 1088 b 392 1040 346 1088 374 1058 b 435 1011 410 1024 421 1011 b 532 1072 454 1011 490 1033 b 565 1088 542 1081 550 1088 b 608 1043 588 1088 608 1065 "},"ũ":{"ha":729,"x_min":0,"x_max":0,"o":"m 711 43 b 654 0 711 0 676 0 l 553 0 b 497 44 528 0 499 0 b 332 -8 446 6 389 -8 b 135 158 231 -8 135 25 l 135 514 l 72 514 b 17 556 53 514 17 514 b 74 599 17 599 51 599 l 175 599 b 231 542 222 599 231 585 l 231 167 b 340 76 231 122 231 76 b 497 218 385 76 497 93 l 497 514 l 435 514 b 379 556 415 514 379 514 b 436 599 379 599 414 599 l 538 599 b 593 542 585 599 593 585 l 593 85 l 656 85 b 711 43 675 85 711 85 m 608 810 b 540 733 608 785 568 754 b 432 688 508 710 469 688 b 339 735 385 688 357 717 b 296 764 321 751 310 764 b 199 703 276 764 240 742 b 165 688 189 694 181 688 b 122 732 143 688 122 710 b 190 808 122 757 163 788 b 299 854 222 832 261 854 b 392 807 346 854 374 825 b 435 778 410 790 421 778 b 532 839 454 778 490 800 b 565 854 542 847 550 854 b 608 810 588 854 608 832 "},"Ū":{"ha":729,"x_min":0,"x_max":0,"o":"m 722 807 b 665 764 722 764 688 764 l 624 764 l 624 283 b 364 -15 624 113 503 -15 b 104 283 225 -15 104 113 l 104 764 l 63 764 b 6 807 42 764 6 764 b 63 849 6 849 42 849 l 242 849 b 299 807 263 849 299 849 b 242 764 299 764 263 764 l 200 764 l 200 290 b 364 69 200 142 290 69 b 528 290 436 69 528 142 l 528 764 l 486 764 b 429 807 465 764 429 764 b 486 849 429 849 465 849 l 665 849 b 722 807 686 849 722 849 m 628 992 b 572 949 628 949 594 949 l 160 949 b 103 993 136 949 103 949 b 158 1036 103 1036 136 1036 l 572 1036 b 628 992 596 1036 628 1036 "},"ū":{"ha":729,"x_min":0,"x_max":0,"o":"m 711 43 b 654 0 711 0 676 0 l 553 0 b 497 44 528 0 499 0 b 332 -8 446 6 389 -8 b 135 158 231 -8 135 25 l 135 514 l 72 514 b 17 556 53 514 17 514 b 74 599 17 599 51 599 l 175 599 b 231 542 222 599 231 585 l 231 167 b 340 76 231 122 231 76 b 497 218 385 76 497 93 l 497 514 l 435 514 b 379 556 415 514 379 514 b 436 599 379 599 414 599 l 538 599 b 593 542 585 599 593 585 l 593 85 l 656 85 b 711 43 675 85 711 85 m 628 771 b 572 728 628 728 594 728 l 160 728 b 103 772 136 728 103 728 b 158 815 103 815 136 815 l 572 815 b 628 771 596 815 628 815 "},"Ŭ":{"ha":729,"x_min":0,"x_max":0,"o":"m 722 807 b 665 764 722 764 688 764 l 624 764 l 624 283 b 364 -15 624 113 503 -15 b 104 283 225 -15 104 113 l 104 764 l 63 764 b 6 807 42 764 6 764 b 63 849 6 849 42 849 l 242 849 b 299 807 263 849 299 849 b 242 764 299 764 263 764 l 200 764 l 200 290 b 364 69 200 142 290 69 b 528 290 436 69 528 142 l 528 764 l 486 764 b 429 807 465 764 429 764 b 486 849 429 849 465 849 l 665 849 b 722 807 686 849 722 849 m 610 1049 b 365 935 610 935 457 935 b 121 1049 274 935 121 935 b 164 1092 121 1075 138 1092 b 206 1051 197 1092 203 1068 b 365 1024 213 1024 306 1024 b 525 1051 424 1024 518 1024 b 567 1092 528 1068 533 1092 b 610 1049 594 1092 610 1075 "},"ŭ":{"ha":729,"x_min":0,"x_max":0,"o":"m 711 43 b 654 0 711 0 676 0 l 553 0 b 497 44 528 0 499 0 b 332 -8 446 6 389 -8 b 135 158 231 -8 135 25 l 135 514 l 72 514 b 17 556 53 514 17 514 b 74 599 17 599 51 599 l 175 599 b 231 542 222 599 231 585 l 231 167 b 340 76 231 122 231 76 b 497 218 385 76 497 93 l 497 514 l 435 514 b 379 556 415 514 379 514 b 436 599 379 599 414 599 l 538 599 b 593 542 585 599 593 585 l 593 85 l 656 85 b 711 43 675 85 711 85 m 610 807 b 365 693 610 693 457 693 b 121 807 274 693 121 693 b 164 850 121 833 138 850 b 206 810 197 850 203 826 b 365 782 213 782 306 782 b 525 810 424 782 518 782 b 567 850 528 826 533 850 b 610 807 594 850 610 833 "},"Ů":{"ha":729,"x_min":0,"x_max":0,"o":"m 722 807 b 665 764 722 764 688 764 l 624 764 l 624 283 b 364 -15 624 113 503 -15 b 104 283 225 -15 104 113 l 104 764 l 63 764 b 6 807 42 764 6 764 b 63 849 6 849 42 849 l 242 849 b 299 807 263 849 299 849 b 242 764 299 764 263 764 l 200 764 l 200 290 b 364 69 200 142 290 69 b 528 290 436 69 528 142 l 528 764 l 486 764 b 429 807 465 764 429 764 b 486 849 429 849 465 849 l 665 849 b 722 807 686 849 722 849 m 431 965 b 365 1013 431 992 397 1013 b 300 965 333 1013 300 992 b 365 918 300 939 333 918 b 431 965 397 918 431 939 m 500 965 b 365 865 500 914 443 865 b 231 965 288 865 231 914 b 365 1065 231 1017 288 1065 b 500 965 443 1065 500 1017 "},"ů":{"ha":729,"x_min":0,"x_max":0,"o":"m 711 43 b 654 0 711 0 676 0 l 553 0 b 497 44 528 0 499 0 b 332 -8 446 6 389 -8 b 135 158 231 -8 135 25 l 135 514 l 72 514 b 17 556 53 514 17 514 b 74 599 17 599 51 599 l 175 599 b 231 542 222 599 231 585 l 231 167 b 340 76 231 122 231 76 b 497 218 385 76 497 93 l 497 514 l 435 514 b 379 556 415 514 379 514 b 436 599 379 599 414 599 l 538 599 b 593 542 585 599 593 585 l 593 85 l 656 85 b 711 43 675 85 711 85 m 431 783 b 365 831 431 810 397 831 b 300 783 333 831 300 810 b 365 736 300 757 333 736 b 431 783 397 736 431 757 m 500 783 b 365 683 500 732 443 683 b 231 783 288 683 231 732 b 365 883 231 835 288 883 b 500 783 443 883 500 835 "},"Ű":{"ha":729,"x_min":0,"x_max":0,"o":"m 722 807 b 665 764 722 764 688 764 l 624 764 l 624 283 b 364 -15 624 113 503 -15 b 104 283 225 -15 104 113 l 104 764 l 63 764 b 6 807 42 764 6 764 b 63 849 6 849 42 849 l 242 849 b 299 807 263 849 299 849 b 242 764 299 764 263 764 l 200 764 l 200 290 b 364 69 200 142 290 69 b 528 290 436 69 528 142 l 528 764 l 486 764 b 429 807 465 764 429 764 b 486 849 429 849 465 849 l 665 849 b 722 807 686 849 722 849 m 321 1113 b 317 1044 339 1093 336 1063 l 210 947 b 140 951 189 929 158 931 b 144 1019 122 971 125 1001 l 251 1117 b 321 1113 272 1135 303 1133 m 590 1113 b 586 1044 608 1093 606 1063 l 479 947 b 410 951 458 929 428 931 b 414 1019 392 971 394 1001 l 521 1117 b 590 1113 542 1135 572 1133 "},"ű":{"ha":729,"x_min":0,"x_max":0,"o":"m 711 43 b 654 0 711 0 676 0 l 553 0 b 497 44 528 0 499 0 b 332 -8 446 6 389 -8 b 135 158 231 -8 135 25 l 135 514 l 72 514 b 17 556 53 514 17 514 b 74 599 17 599 51 599 l 175 599 b 231 542 222 599 231 585 l 231 167 b 340 76 231 122 231 76 b 497 218 385 76 497 93 l 497 514 l 435 514 b 379 556 415 514 379 514 b 436 599 379 599 414 599 l 538 599 b 593 542 585 599 593 585 l 593 85 l 656 85 b 711 43 675 85 711 85 m 321 851 b 317 783 339 832 336 801 l 210 686 b 140 690 189 668 158 669 b 144 758 122 710 125 740 l 251 856 b 321 851 272 874 303 872 m 590 851 b 586 783 608 832 606 801 l 479 686 b 410 690 458 668 428 669 b 414 758 392 710 394 740 l 521 856 b 590 851 542 874 572 872 "},"Ų":{"ha":729,"x_min":0,"x_max":0,"o":"m 722 807 b 665 764 722 764 688 764 l 624 764 l 624 283 b 413 -10 624 133 529 15 b 339 -153 367 -42 339 -94 b 400 -207 339 -186 375 -207 b 475 -156 428 -207 460 -178 b 526 -149 483 -147 514 -142 b 533 -200 538 -158 543 -187 b 394 -282 500 -246 447 -282 b 257 -150 307 -282 257 -210 b 329 -12 257 -99 289 -49 b 104 283 206 7 104 126 l 104 764 l 63 764 b 6 807 42 764 6 764 b 63 849 6 849 42 849 l 242 849 b 299 807 263 849 299 849 b 242 764 299 764 263 764 l 200 764 l 200 290 b 364 69 200 142 290 69 b 528 290 436 69 528 142 l 528 764 l 486 764 b 429 807 465 764 429 764 b 486 849 429 849 465 849 l 665 849 b 722 807 686 849 722 849 "},"ų":{"ha":729,"x_min":0,"x_max":0,"o":"m 733 -200 b 594 -282 700 -246 647 -282 b 457 -150 507 -282 457 -210 b 546 0 457 -92 499 -36 b 497 44 522 0 499 4 b 332 -8 446 6 389 -8 b 135 158 231 -8 135 25 l 135 514 l 72 514 b 17 556 53 514 17 514 b 74 599 17 599 51 599 l 175 599 b 231 542 222 599 231 585 l 231 167 b 340 76 231 122 231 76 b 497 218 385 76 497 93 l 497 514 l 435 514 b 379 556 415 514 379 514 b 436 599 379 599 414 599 l 538 599 b 593 542 585 599 593 585 l 593 85 l 656 85 b 711 43 675 85 711 85 b 654 0 711 0 676 0 l 629 0 b 539 -153 575 -31 539 -87 b 600 -207 539 -186 575 -207 b 675 -156 628 -207 660 -178 b 726 -149 683 -147 714 -142 b 733 -200 738 -158 743 -187 "},"Ŵ":{"ha":729,"x_min":0,"x_max":0,"o":"m 713 806 b 660 764 713 764 675 764 l 560 38 b 503 -11 553 -11 519 -11 b 447 24 493 -11 457 -11 b 365 407 446 26 371 344 l 364 407 b 279 17 358 351 283 26 b 225 -11 265 -11 238 -11 b 168 38 208 -11 175 -11 l 68 764 l 67 764 b 15 806 54 764 15 764 b 72 849 15 849 51 849 l 182 849 b 238 806 204 849 238 849 b 182 764 238 764 203 764 l 147 764 l 219 214 b 231 106 229 139 231 113 l 232 106 b 308 479 239 192 304 469 b 364 510 322 510 350 510 b 421 478 376 510 408 510 b 496 106 422 469 488 194 l 497 106 b 519 301 499 144 508 217 l 581 764 l 546 764 b 490 806 525 764 490 764 b 546 849 490 849 524 849 l 656 849 b 713 806 676 849 713 849 m 543 1001 b 517 924 592 983 567 908 l 365 969 l 214 924 b 189 1001 164 908 139 983 l 353 1061 b 379 1061 361 1064 371 1064 l 543 1001 "},"ŵ":{"ha":729,"x_min":0,"x_max":0,"o":"m 706 557 b 635 514 706 514 676 514 l 551 47 b 490 -6 546 17 542 -6 b 432 18 474 -6 449 -6 b 368 264 426 29 375 192 l 367 264 b 326 92 363 233 361 214 b 242 -6 301 7 297 -6 b 176 47 186 -6 182 15 l 93 514 b 22 557 51 514 22 514 b 81 599 22 599 56 599 l 240 599 b 299 556 267 599 299 599 b 240 514 299 514 265 514 l 172 514 l 244 100 l 246 100 b 311 329 251 128 307 319 b 367 360 326 360 353 360 b 444 257 415 360 419 344 b 485 100 461 200 479 136 l 486 100 l 556 514 l 488 514 b 429 557 461 514 429 514 b 488 599 429 599 463 599 l 647 599 b 706 557 672 599 706 599 m 551 753 b 508 685 597 724 554 657 l 365 771 l 222 685 b 179 754 176 657 133 725 l 343 858 b 385 858 356 867 372 867 l 551 753 "},"Ŷ":{"ha":729,"x_min":0,"x_max":0,"o":"m 701 806 b 646 764 701 764 667 764 l 617 764 l 413 339 l 413 85 l 447 85 b 503 42 469 85 503 85 b 447 0 503 0 468 0 l 282 0 b 226 43 260 0 226 0 b 282 85 226 85 261 85 l 317 85 l 317 339 l 111 764 l 82 764 b 26 807 60 764 26 764 b 82 849 26 849 61 849 l 226 849 b 282 807 247 849 282 849 b 218 764 282 764 251 764 b 364 436 232 735 344 507 l 510 764 b 446 807 476 764 446 764 b 501 849 446 849 481 849 l 646 849 b 701 806 668 849 701 849 m 543 1001 b 517 924 592 983 567 908 l 365 969 l 214 924 b 189 1001 164 908 139 983 l 353 1061 b 379 1061 361 1064 371 1064 l 543 1001 "},"ŷ":{"ha":729,"x_min":0,"x_max":0,"o":"m 694 556 b 639 514 694 514 660 514 l 597 514 l 382 -118 b 175 -317 376 -133 314 -317 b 60 -203 107 -317 60 -261 b 121 -142 60 -167 83 -142 b 181 -201 156 -142 181 -167 b 174 -232 181 -219 174 -232 b 285 -151 194 -231 244 -228 b 338 0 303 -117 338 0 b 332 18 338 0 338 4 l 135 514 l 92 514 b 36 556 71 514 36 514 b 92 599 36 599 69 599 l 254 599 b 310 556 276 599 310 599 b 254 514 310 514 275 514 l 219 514 l 349 181 b 378 99 358 154 371 125 l 379 99 b 415 218 389 142 397 167 l 515 514 l 476 514 b 421 557 454 514 421 514 b 476 599 421 599 456 599 l 639 599 b 694 556 661 599 694 599 m 551 753 b 508 685 597 724 554 657 l 365 771 l 222 685 b 179 754 176 657 133 725 l 343 858 b 385 858 356 867 372 867 l 551 753 "},"Ÿ":{"ha":729,"x_min":0,"x_max":0,"o":"m 701 806 b 646 764 701 764 667 764 l 617 764 l 413 339 l 413 85 l 447 85 b 503 42 469 85 503 85 b 447 0 503 0 468 0 l 282 0 b 226 43 260 0 226 0 b 282 85 226 85 261 85 l 317 85 l 317 339 l 111 764 l 82 764 b 26 807 60 764 26 764 b 82 849 26 849 61 849 l 226 849 b 282 807 247 849 282 849 b 218 764 282 764 251 764 b 364 436 232 735 344 507 l 510 764 b 446 807 476 764 446 764 b 501 849 446 849 481 849 l 646 849 b 701 806 668 849 701 849 m 292 983 b 229 921 292 949 264 921 b 167 983 194 921 167 949 b 229 1046 167 1019 194 1046 b 292 983 264 1046 292 1019 m 563 983 b 500 921 563 949 535 921 b 438 983 465 921 438 949 b 500 1046 438 1019 465 1046 b 563 983 535 1046 563 1019 "},"Ź":{"ha":729,"x_min":0,"x_max":0,"o":"m 668 57 b 613 0 668 13 658 0 l 124 0 b 67 47 97 0 67 0 b 81 90 67 61 67 69 l 538 764 l 179 764 l 179 690 b 131 633 179 663 179 633 b 83 690 83 633 83 664 l 83 792 b 140 849 83 838 94 849 l 604 849 b 661 801 631 849 661 849 b 647 758 661 788 661 779 l 190 85 l 572 85 l 572 185 b 621 242 572 213 572 242 b 668 185 668 242 668 211 l 668 57 m 513 1072 b 474 1024 513 1057 507 1039 l 289 942 b 264 935 281 938 274 935 b 218 990 228 935 218 979 b 253 1031 218 1015 233 1022 l 438 1114 b 464 1121 453 1121 464 1121 b 513 1072 492 1121 513 1100 "},"ź":{"ha":729,"x_min":0,"x_max":0,"o":"m 660 57 b 629 0 660 36 660 8 l 103 0 b 46 47 76 0 46 0 b 76 103 46 71 47 75 l 510 514 l 164 514 l 164 478 b 115 421 164 450 164 421 b 68 478 68 421 68 451 l 68 542 b 125 599 68 588 79 599 l 597 599 b 654 551 624 599 654 599 b 624 496 654 528 653 524 l 190 85 l 564 85 l 564 138 b 613 194 564 165 564 194 b 660 138 660 194 660 164 l 660 57 m 513 815 b 474 767 513 800 507 782 l 289 685 b 264 678 281 681 274 678 b 218 733 228 678 218 722 b 253 774 218 758 233 765 l 438 857 b 464 864 453 864 464 864 b 513 815 492 864 513 843 "},"Ż":{"ha":729,"x_min":0,"x_max":0,"o":"m 668 57 b 613 0 668 13 658 0 l 124 0 b 67 47 97 0 67 0 b 81 90 67 61 67 69 l 538 764 l 179 764 l 179 690 b 131 633 179 663 179 633 b 83 690 83 633 83 664 l 83 792 b 140 849 83 838 94 849 l 604 849 b 661 801 631 849 661 849 b 647 758 661 788 661 779 l 190 85 l 572 85 l 572 185 b 621 242 572 213 572 242 b 668 185 668 242 668 211 l 668 57 m 435 1006 b 365 936 435 967 404 936 b 296 1006 326 936 296 967 b 365 1075 296 1044 326 1075 b 435 1006 404 1075 435 1044 "},"ż":{"ha":729,"x_min":0,"x_max":0,"o":"m 660 57 b 629 0 660 36 660 8 l 103 0 b 46 47 76 0 46 0 b 76 103 46 71 47 75 l 510 514 l 164 514 l 164 478 b 115 421 164 450 164 421 b 68 478 68 421 68 451 l 68 542 b 125 599 68 588 79 599 l 597 599 b 654 551 624 599 654 599 b 624 496 654 528 653 524 l 190 85 l 564 85 l 564 138 b 613 194 564 165 564 194 b 660 138 660 194 660 164 l 660 57 m 435 771 b 365 701 435 732 404 701 b 296 771 326 701 296 732 b 365 840 296 810 326 840 b 435 771 404 840 435 810 "},"Ž":{"ha":729,"x_min":0,"x_max":0,"o":"m 668 57 b 613 0 668 13 658 0 l 124 0 b 67 47 97 0 67 0 b 81 90 67 61 67 69 l 538 764 l 179 764 l 179 690 b 131 633 179 663 179 633 b 83 690 83 633 83 664 l 83 792 b 140 849 83 838 94 849 l 604 849 b 661 801 631 849 661 849 b 647 758 661 788 661 779 l 190 85 l 572 85 l 572 185 b 621 242 572 213 572 242 b 668 185 668 242 668 211 l 668 57 m 378 924 b 351 924 369 921 360 921 l 188 983 b 214 1061 139 1001 164 1076 l 365 1015 l 517 1061 b 542 983 567 1076 592 1001 "},"ž":{"ha":729,"x_min":0,"x_max":0,"o":"m 660 57 b 629 0 660 36 660 8 l 103 0 b 46 47 76 0 46 0 b 76 103 46 71 47 75 l 510 514 l 164 514 l 164 478 b 115 421 164 450 164 421 b 68 478 68 421 68 451 l 68 542 b 125 599 68 588 79 599 l 597 599 b 654 551 624 599 654 599 b 624 496 654 528 653 524 l 190 85 l 564 85 l 564 138 b 613 194 564 165 564 194 b 660 138 660 194 660 164 l 660 57 m 388 683 b 346 683 375 675 358 675 l 179 789 b 222 857 133 818 176 885 l 365 771 l 508 857 b 551 788 554 885 597 817 "},"ſ":{"ha":729,"x_min":0,"x_max":0,"o":"m 607 774 b 547 713 607 735 575 713 b 486 772 499 713 486 767 b 351 664 444 772 351 772 l 351 85 l 492 85 b 549 42 513 85 549 85 b 492 0 549 0 513 0 l 115 0 b 58 43 94 0 58 0 b 115 85 58 85 94 85 l 256 85 l 256 514 l 115 514 b 60 556 94 514 60 514 b 117 599 60 599 94 599 l 256 599 l 256 672 b 474 857 256 793 363 857 b 607 774 496 857 607 857 "},"Ǝ":{"ha":729,"x_min":0,"x_max":0,"o":"m 697 42 b 640 0 697 0 661 0 l 92 0 b 36 57 46 0 36 13 l 36 181 b 83 238 36 207 36 238 b 132 181 132 238 132 208 l 132 85 l 503 85 l 503 397 l 321 397 b 272 318 321 340 321 318 b 225 375 225 318 225 349 l 225 504 b 272 561 225 531 225 561 b 321 482 321 561 321 539 l 503 482 l 503 764 l 163 764 l 163 690 b 115 633 163 664 163 633 b 67 690 67 633 67 663 l 67 792 b 122 849 67 835 75 849 l 640 849 b 697 807 661 849 697 849 b 640 764 697 764 661 764 l 599 764 l 599 85 l 640 85 b 697 42 663 85 697 85 "},"ƒ":{"ha":729,"x_min":0,"x_max":0,"o":"m 607 774 b 547 713 607 735 575 713 b 486 772 499 713 486 767 b 351 664 444 772 351 772 l 351 599 l 521 599 b 576 556 543 599 576 599 b 521 514 576 514 542 514 l 351 514 l 351 85 l 492 85 b 549 42 513 85 549 85 b 492 0 549 0 513 0 l 115 0 b 58 43 94 0 58 0 b 115 85 58 85 94 85 l 256 85 l 256 514 l 115 514 b 60 556 94 514 60 514 b 117 599 60 599 94 599 l 256 599 l 256 672 b 474 857 256 793 363 857 b 607 774 496 857 607 857 "},"Ơ":{"ha":729,"x_min":0,"x_max":0,"o":"m 688 893 b 618 761 688 839 663 786 b 649 424 649 679 649 535 b 603 54 649 297 649 125 b 363 -15 557 -15 454 -15 b 124 54 272 -15 168 -15 b 78 424 78 125 78 297 b 124 794 78 551 78 724 b 363 864 168 864 272 864 b 564 832 433 864 511 864 b 593 853 575 833 585 840 b 549 918 565 863 549 889 b 618 988 549 953 576 986 b 688 893 671 986 688 935 m 551 442 b 522 725 551 539 551 672 b 363 779 493 778 425 779 b 204 725 301 779 233 778 b 174 442 174 672 174 539 b 204 129 174 335 174 188 b 363 69 232 75 300 69 b 522 129 425 69 494 75 b 551 442 551 188 551 335 "},"ơ":{"ha":729,"x_min":0,"x_max":0,"o":"m 647 299 b 564 82 647 218 618 140 b 363 -8 513 26 440 -8 b 163 82 286 -8 214 26 b 79 299 108 140 79 218 b 163 518 79 381 107 458 b 363 610 214 575 286 610 b 494 574 410 610 454 597 b 515 581 500 578 508 581 b 547 603 528 581 539 589 b 503 667 519 613 503 639 b 572 736 503 703 531 735 b 642 643 626 736 642 685 b 571 510 642 588 615 533 b 647 299 621 451 647 376 m 551 311 b 496 463 551 367 532 421 b 363 525 463 500 414 525 b 231 463 313 525 264 500 b 175 311 194 421 175 367 b 231 146 175 251 193 192 b 363 78 264 104 311 78 b 496 146 415 78 463 104 b 551 311 533 192 551 251 "},"Ư":{"ha":729,"x_min":0,"x_max":0,"o":"m 729 894 b 624 758 729 829 683 776 l 624 283 b 549 74 624 206 599 132 b 363 -15 501 19 435 -15 b 176 74 292 -15 224 19 b 103 283 128 132 103 206 l 103 764 l 44 764 b 6 803 22 764 6 781 l 6 810 b 44 849 6 831 22 849 l 258 849 b 297 810 281 849 297 831 l 297 803 b 258 764 297 781 281 764 l 200 764 l 200 283 b 250 129 200 225 217 171 b 363 69 281 92 321 69 b 476 129 406 69 446 92 b 526 283 510 171 526 225 l 526 764 l 468 764 b 429 803 446 764 429 781 l 429 810 b 468 849 429 831 446 849 l 585 849 b 606 842 592 849 600 846 b 628 856 614 846 621 850 b 590 918 604 868 590 892 b 660 988 590 953 618 986 b 729 894 713 986 729 936 "},"ư":{"ha":729,"x_min":0,"x_max":0,"o":"m 711 39 b 671 0 711 18 693 0 l 536 0 b 496 39 514 0 496 18 l 496 44 b 338 -8 453 11 397 -8 b 189 29 279 -8 231 -1 b 133 153 150 58 133 104 l 133 513 l 54 513 b 15 551 33 513 15 531 l 15 558 b 54 597 15 581 33 597 l 190 597 b 229 558 213 597 229 581 l 229 153 b 251 97 229 126 238 107 b 344 78 272 82 300 78 b 496 203 429 78 496 133 l 496 513 l 418 513 b 379 551 396 513 379 531 l 379 558 b 418 597 379 581 396 597 l 554 597 b 576 590 563 597 571 594 b 604 606 588 594 597 600 b 568 667 582 618 568 642 b 638 736 568 703 596 736 b 707 644 690 736 707 685 b 593 507 707 575 657 525 l 593 85 l 671 85 b 711 46 693 85 711 68 l 711 39 "},"ǝ":{"ha":729,"x_min":0,"x_max":0,"o":"m 644 301 b 346 -8 644 131 511 -8 b 76 286 165 -8 76 128 b 132 338 76 338 103 338 l 546 338 b 315 526 524 457 419 526 b 171 443 276 526 201 514 b 125 413 161 417 150 413 b 76 451 117 413 76 413 b 325 611 76 486 142 611 b 644 301 504 611 644 471 m 175 254 b 346 76 188 111 274 76 b 544 254 443 76 525 153 "},"Ǧ":{"ha":729,"x_min":0,"x_max":0,"o":"m 689 333 b 624 290 689 290 657 290 l 624 57 b 576 0 624 31 624 0 b 528 58 528 0 528 28 b 363 -15 500 26 442 -15 b 53 425 197 -15 53 169 b 363 864 53 676 196 864 b 525 801 421 864 476 843 b 582 864 546 849 553 864 b 624 807 624 864 624 829 l 624 614 b 575 557 624 586 624 557 b 528 597 539 557 531 574 b 368 779 504 747 417 779 b 149 424 260 779 149 636 b 367 69 149 219 254 69 b 525 290 440 69 508 135 l 467 290 b 411 333 444 290 411 290 b 467 375 411 375 446 375 l 632 375 b 689 333 653 375 689 375 m 378 924 b 351 924 369 921 360 921 l 188 983 b 214 1061 139 1001 164 1076 l 365 1015 l 517 1061 b 542 983 567 1076 592 1001 "},"ǧ":{"ha":729,"x_min":0,"x_max":0,"o":"m 707 539 b 651 482 707 499 675 482 b 597 529 638 482 606 492 b 517 506 579 528 546 522 b 553 385 540 467 553 426 b 324 161 553 261 451 161 b 199 196 256 161 203 193 b 190 157 193 182 190 163 b 207 107 190 157 192 126 b 253 88 224 88 232 88 b 293 85 264 85 282 85 l 390 85 b 592 44 515 85 574 54 b 688 -114 663 7 688 -62 b 364 -318 688 -232 542 -318 b 40 -114 186 -318 40 -233 b 143 58 40 -99 40 -4 b 111 158 131 75 111 110 b 139 253 111 200 124 231 b 94 385 118 279 94 325 b 324 607 94 503 193 607 b 458 565 388 607 436 581 b 606 614 522 613 590 614 b 707 539 681 614 707 571 m 457 385 b 324 524 457 458 399 524 b 190 383 251 524 190 463 b 324 244 190 310 249 244 b 457 385 396 244 457 306 m 607 -114 b 326 6 607 6 450 6 b 178 -17 225 6 213 6 b 121 -114 133 -44 121 -89 b 364 -235 121 -175 225 -235 b 607 -114 503 -235 607 -175 m 338 683 b 296 683 325 675 308 675 l 129 789 b 172 857 83 818 126 885 l 315 771 l 458 857 b 501 788 504 885 547 817 "},"Ǫ":{"ha":729,"x_min":0,"x_max":0,"o":"m 650 424 b 394 -15 650 39 622 -11 b 328 -153 354 -47 328 -97 b 389 -207 328 -186 364 -207 b 464 -156 417 -207 449 -178 b 515 -149 472 -147 503 -142 b 522 -200 526 -158 532 -187 b 383 -282 489 -246 436 -282 b 246 -150 296 -282 246 -210 b 315 -15 246 -100 276 -50 b 78 424 103 -8 78 49 b 364 864 78 826 107 864 b 650 424 621 864 650 825 m 554 436 b 538 690 554 521 554 625 b 364 779 517 767 468 779 b 189 681 250 779 207 763 b 174 436 174 617 174 522 b 190 168 174 360 174 239 b 364 69 207 99 242 69 b 539 176 488 69 524 99 b 554 436 554 251 554 350 "},"ǫ":{"ha":729,"x_min":0,"x_max":0,"o":"m 649 300 b 401 -6 649 139 538 14 b 321 -153 351 -37 321 -92 b 382 -207 321 -186 357 -207 b 457 -156 410 -207 442 -178 b 508 -149 465 -147 496 -142 b 515 -200 519 -158 525 -187 b 376 -282 482 -246 429 -282 b 239 -150 289 -282 239 -210 b 321 -4 239 -94 276 -40 b 79 300 188 18 79 140 b 364 611 79 474 208 611 b 649 300 519 611 649 474 m 553 310 b 364 526 553 436 464 526 b 175 310 265 526 175 436 b 364 76 175 181 261 76 b 553 310 467 76 553 181 "},"Ǵ":{"ha":729,"x_min":0,"x_max":0,"o":"m 689 333 b 624 290 689 290 657 290 l 624 57 b 576 0 624 31 624 0 b 528 58 528 0 528 28 b 363 -15 500 26 442 -15 b 53 425 197 -15 53 169 b 363 864 53 676 196 864 b 525 801 421 864 476 843 b 582 864 546 849 553 864 b 624 807 624 864 624 829 l 624 614 b 575 557 624 586 624 557 b 528 597 539 557 531 574 b 368 779 504 747 417 779 b 149 424 260 779 149 636 b 367 69 149 219 254 69 b 525 290 440 69 508 135 l 467 290 b 411 333 444 290 411 290 b 467 375 411 375 446 375 l 632 375 b 689 333 653 375 689 375 m 513 1072 b 474 1024 513 1057 507 1039 l 289 942 b 264 935 281 938 274 935 b 218 990 228 935 218 979 b 253 1031 218 1015 233 1022 l 438 1114 b 464 1121 453 1121 464 1121 b 513 1072 492 1121 513 1100 "},"ǵ":{"ha":729,"x_min":0,"x_max":0,"o":"m 707 539 b 651 482 707 499 675 482 b 597 529 638 482 606 492 b 517 506 579 528 546 522 b 553 385 540 467 553 426 b 324 161 553 261 451 161 b 199 196 256 161 203 193 b 190 157 193 182 190 163 b 207 107 190 157 192 126 b 253 88 224 88 232 88 b 293 85 264 85 282 85 l 390 85 b 592 44 515 85 574 54 b 688 -114 663 7 688 -62 b 364 -318 688 -232 542 -318 b 40 -114 186 -318 40 -233 b 143 58 40 -99 40 -4 b 111 158 131 75 111 110 b 139 253 111 200 124 231 b 94 385 118 279 94 325 b 324 607 94 503 193 607 b 458 565 388 607 436 581 b 606 614 522 613 590 614 b 707 539 681 614 707 571 m 457 385 b 324 524 457 458 399 524 b 190 383 251 524 190 463 b 324 244 190 310 249 244 b 457 385 396 244 457 306 m 607 -114 b 326 6 607 6 450 6 b 178 -17 225 6 213 6 b 121 -114 133 -44 121 -89 b 364 -235 121 -175 225 -235 b 607 -114 503 -235 607 -175 m 463 815 b 424 767 463 800 457 782 l 239 685 b 214 678 231 681 224 678 b 168 733 178 678 168 722 b 203 774 168 758 183 765 l 388 857 b 414 864 403 864 414 864 b 463 815 442 864 463 843 "},"Ǻ":{"ha":729,"x_min":0,"x_max":0,"o":"m 690 42 b 631 0 690 0 654 0 l 489 0 b 431 42 464 0 431 0 b 508 85 431 85 458 85 l 476 229 l 251 229 l 219 85 b 297 42 269 85 297 85 b 239 0 297 0 264 0 l 97 0 b 38 42 74 0 38 0 b 61 82 38 60 46 74 b 121 85 69 85 101 85 l 289 813 b 364 865 301 865 324 865 b 439 811 407 865 426 864 l 607 85 b 667 81 628 85 658 85 b 690 42 683 74 690 60 m 364 750 l 272 314 l 456 314 m 431 965 b 365 1013 431 992 397 1013 b 300 965 333 1013 300 992 b 365 918 300 939 333 918 b 431 965 397 918 431 939 m 500 965 b 365 865 500 914 443 865 b 231 965 288 865 231 914 b 365 1065 231 1017 288 1065 b 500 965 443 1065 500 1017 m 513 1231 b 474 1182 513 1215 507 1197 l 289 1100 b 264 1093 281 1096 274 1093 b 218 1149 228 1093 218 1138 b 253 1189 218 1174 233 1181 l 438 1272 b 464 1279 453 1279 464 1279 b 513 1231 492 1279 513 1258 "},"ǻ":{"ha":729,"x_min":0,"x_max":0,"o":"m 728 43 b 658 0 728 0 697 0 b 508 44 606 0 539 1 b 306 -8 443 1 357 -8 b 76 178 164 -8 76 82 b 493 385 76 311 247 381 b 315 526 493 483 421 526 b 265 525 303 526 285 526 b 236 510 238 522 236 521 b 175 446 235 458 196 446 b 113 510 142 446 113 468 b 314 611 113 611 254 611 b 589 396 514 611 589 494 l 589 96 b 672 85 600 92 614 85 b 728 43 693 85 728 85 m 493 303 b 172 178 292 297 172 246 b 315 76 172 124 229 76 b 439 100 326 76 389 76 b 493 186 493 125 493 154 m 431 783 b 365 831 431 810 397 831 b 300 783 333 831 300 810 b 365 736 300 757 333 736 b 431 783 397 736 431 757 m 500 783 b 365 683 500 732 443 683 b 231 783 288 683 231 732 b 365 883 231 835 288 883 b 500 783 443 883 500 835 m 513 1049 b 474 1000 513 1033 507 1015 l 289 918 b 264 911 281 914 274 911 b 218 967 228 911 218 956 b 253 1007 218 992 233 999 l 438 1090 b 464 1097 453 1097 464 1097 b 513 1049 492 1097 513 1076 "},"Ǽ":{"ha":729,"x_min":0,"x_max":0,"o":"m 693 57 b 638 0 693 13 683 0 l 368 0 b 311 43 346 0 311 0 b 367 85 311 85 347 85 l 367 254 l 213 254 l 178 85 b 242 42 210 85 242 85 b 186 0 242 0 207 0 l 88 0 b 32 42 67 0 32 0 b 99 85 32 85 63 85 l 236 764 b 181 807 214 764 181 764 b 236 849 181 849 215 849 l 626 849 b 682 792 674 849 682 835 l 682 690 b 643 633 682 671 682 633 b 604 690 604 633 604 671 l 604 764 l 444 764 l 444 482 l 604 482 b 660 439 626 482 660 482 b 604 397 660 397 625 397 l 444 397 l 444 85 l 615 85 l 615 181 b 654 238 615 200 615 238 b 693 181 693 238 693 200 l 693 57 m 367 764 l 315 764 l 229 339 l 367 339 m 513 1072 b 474 1024 513 1057 507 1039 l 289 942 b 264 935 281 938 274 935 b 218 990 228 935 218 979 b 253 1031 218 1015 233 1022 l 438 1114 b 464 1121 453 1121 464 1121 b 513 1072 492 1121 513 1100 "},"ǽ":{"ha":729,"x_min":0,"x_max":0,"o":"m 700 151 b 540 -8 700 124 658 -8 b 383 88 450 -8 393 74 b 204 -8 347 26 274 -8 b 46 164 104 -8 46 82 b 325 344 46 279 169 343 l 325 390 b 214 526 325 478 282 526 b 178 521 197 526 178 526 b 179 508 178 517 179 513 b 118 446 175 450 129 446 b 56 510 85 446 56 468 b 218 611 56 556 90 611 b 378 511 293 611 344 571 b 526 611 419 583 478 611 b 700 324 626 611 700 508 b 644 265 700 281 694 265 l 406 265 b 547 76 417 147 486 76 b 622 156 578 76 608 101 b 661 190 625 164 631 190 b 700 151 683 190 700 172 m 621 349 b 526 526 614 482 568 526 b 406 349 467 526 414 438 l 621 349 m 325 263 b 124 165 215 258 124 225 b 213 76 124 124 156 76 b 293 106 222 76 261 79 b 324 186 324 131 324 160 b 325 263 324 226 324 247 m 513 815 b 474 767 513 800 507 782 l 289 685 b 264 678 281 681 274 678 b 218 733 228 678 218 722 b 253 774 218 758 233 765 l 438 857 b 464 864 453 864 464 864 b 513 815 492 864 513 843 "},"Ǿ":{"ha":729,"x_min":0,"x_max":0,"o":"m 650 424 b 364 -15 650 22 619 -15 b 267 -12 332 -15 303 -15 l 246 -76 b 204 -118 240 -94 233 -118 b 160 -76 204 -118 160 -115 b 183 6 160 -76 160 -65 b 85 204 114 36 96 96 b 78 424 78 271 78 361 b 364 864 78 826 107 864 b 461 861 396 864 425 864 l 482 925 b 524 967 488 943 494 967 b 568 925 524 967 568 964 b 544 843 568 925 568 914 b 650 424 635 804 650 708 m 572 425 b 514 750 572 707 543 728 l 294 74 b 310 71 294 74 303 71 b 364 69 325 69 328 69 b 554 163 474 69 531 79 b 572 425 572 229 572 340 m 433 775 b 418 778 433 775 425 778 b 364 779 403 779 400 779 b 174 686 254 779 197 769 b 156 424 156 619 156 508 b 214 99 156 142 185 121 l 433 775 m 494 1072 b 456 1024 494 1057 489 1039 l 271 942 b 246 935 263 938 256 935 b 200 990 210 935 200 979 b 235 1031 200 1015 215 1022 l 419 1114 b 446 1121 435 1121 446 1121 b 494 1072 474 1121 494 1100 "},"ǿ":{"ha":729,"x_min":0,"x_max":0,"o":"m 668 751 b 658 722 668 747 668 739 l 554 542 b 665 300 622 479 665 393 b 364 -8 665 128 528 -8 b 249 15 339 -8 296 -6 l 142 -168 b 104 -194 136 -179 126 -194 b 60 -153 88 -194 60 -181 b 83 -100 60 -142 74 -117 l 175 58 b 63 300 93 129 63 219 b 364 611 63 469 196 611 b 482 586 419 611 458 596 l 586 767 b 624 793 593 779 601 793 b 668 751 640 793 668 779 m 588 300 b 511 469 588 350 569 418 l 292 88 b 364 76 318 79 326 76 b 588 300 486 76 588 175 m 439 514 b 364 526 411 524 403 526 b 140 300 242 526 140 425 b 217 131 140 251 156 188 l 439 514 m 506 815 b 467 767 506 800 500 782 l 282 685 b 257 678 274 681 267 678 b 211 733 221 678 211 722 b 246 774 211 758 226 765 l 431 857 b 457 864 446 864 457 864 b 506 815 485 864 506 843 "},"Ȁ":{"ha":729,"x_min":0,"x_max":0,"o":"m 690 42 b 631 0 690 0 654 0 l 489 0 b 431 42 464 0 431 0 b 508 85 431 85 458 85 l 476 229 l 251 229 l 219 85 b 297 42 269 85 297 85 b 239 0 297 0 264 0 l 97 0 b 38 42 74 0 38 0 b 61 82 38 60 46 74 b 121 85 69 85 101 85 l 289 813 b 364 865 301 865 324 865 b 439 811 407 865 426 864 l 607 85 b 667 81 628 85 658 85 b 690 42 683 74 690 60 m 364 750 l 272 314 l 456 314 m 549 951 b 479 947 531 931 500 929 l 372 1044 b 368 1113 353 1063 350 1093 b 438 1117 386 1133 417 1135 l 544 1019 b 549 951 564 1001 567 971 m 279 951 b 210 947 261 931 231 929 l 103 1044 b 99 1113 83 1063 81 1093 b 168 1117 117 1133 147 1135 l 275 1019 b 279 951 294 1001 297 971 "},"ȁ":{"ha":729,"x_min":0,"x_max":0,"o":"m 728 43 b 658 0 728 0 697 0 b 508 44 606 0 539 1 b 306 -8 443 1 357 -8 b 76 178 164 -8 76 82 b 493 385 76 311 247 381 b 315 526 493 483 421 526 b 265 525 303 526 285 526 b 236 510 238 522 236 521 b 175 446 235 458 196 446 b 113 510 142 446 113 468 b 314 611 113 611 254 611 b 589 396 514 611 589 494 l 589 96 b 672 85 600 92 614 85 b 728 43 693 85 728 85 m 493 303 b 172 178 292 297 172 246 b 315 76 172 124 229 76 b 439 100 326 76 389 76 b 493 186 493 125 493 154 m 589 690 b 519 686 571 669 540 668 l 413 783 b 408 851 393 801 390 832 b 478 856 426 872 457 874 l 585 758 b 589 690 604 740 607 710 m 319 690 b 250 686 301 669 271 668 l 143 783 b 139 851 124 801 121 832 b 208 856 157 872 188 874 l 315 758 b 319 690 335 740 338 710 "},"Ȅ":{"ha":729,"x_min":0,"x_max":0,"o":"m 697 57 b 642 0 697 13 688 0 l 93 0 b 36 42 72 0 36 0 b 93 85 36 85 71 85 l 135 85 l 135 764 l 93 764 b 36 807 72 764 36 764 b 93 849 36 849 72 849 l 611 849 b 667 792 658 849 667 835 l 667 690 b 618 633 667 663 667 633 b 571 690 571 633 571 664 l 571 764 l 231 764 l 231 482 l 413 482 b 461 561 413 539 413 561 b 508 504 508 561 508 531 l 508 375 b 461 318 508 349 508 318 b 413 397 413 318 413 340 l 231 397 l 231 85 l 601 85 l 601 181 b 650 238 601 208 601 238 b 697 181 697 238 697 207 l 697 57 m 589 951 b 519 947 571 931 540 929 l 413 1044 b 408 1113 393 1063 390 1093 b 478 1117 426 1133 457 1135 l 585 1019 b 589 951 604 1001 607 971 m 319 951 b 250 947 301 931 271 929 l 143 1044 b 139 1113 124 1063 121 1093 b 208 1117 157 1133 188 1135 l 315 1019 b 319 951 335 1001 338 971 "},"ȅ":{"ha":729,"x_min":0,"x_max":0,"o":"m 644 151 b 396 -8 644 117 579 -8 b 76 301 217 -8 76 132 b 375 611 76 472 210 611 b 644 317 556 611 644 475 b 589 265 644 265 618 265 l 175 265 b 406 76 197 146 301 76 b 550 160 444 76 519 89 b 596 190 560 186 571 190 b 644 151 604 190 644 190 m 546 349 b 375 526 533 492 447 526 b 176 349 278 526 196 450 l 546 349 m 589 690 b 519 686 571 669 540 668 l 413 783 b 408 851 393 801 390 832 b 478 856 426 872 457 874 l 585 758 b 589 690 604 740 607 710 m 319 690 b 250 686 301 669 271 668 l 143 783 b 139 851 124 801 121 832 b 208 856 157 872 188 874 l 315 758 b 319 690 335 740 338 710 "},"Ȉ":{"ha":729,"x_min":0,"x_max":0,"o":"m 619 42 b 563 0 619 0 583 0 l 167 0 b 110 43 146 0 110 0 b 167 85 110 85 146 85 l 317 85 l 317 764 l 167 764 b 110 807 146 764 110 764 b 167 849 110 849 146 849 l 563 849 b 619 806 583 849 619 849 b 563 764 619 764 583 764 l 413 764 l 413 85 l 563 85 b 619 42 583 85 619 85 m 589 951 b 519 947 571 931 540 929 l 413 1044 b 408 1113 393 1063 390 1093 b 478 1117 426 1133 457 1135 l 585 1019 b 589 951 604 1001 607 971 m 319 951 b 250 947 301 931 271 929 l 143 1044 b 139 1113 124 1063 121 1093 b 208 1117 157 1133 188 1135 l 315 1019 b 319 951 335 1001 338 971 "},"ȉ":{"ha":729,"x_min":0,"x_max":0,"o":"m 632 42 b 575 0 632 0 596 0 l 165 0 b 108 42 144 0 108 0 b 165 85 108 85 143 85 l 333 85 l 333 514 l 176 514 b 119 557 156 514 119 514 b 176 599 119 599 156 599 l 374 599 b 429 542 421 599 429 585 l 429 85 l 575 85 b 632 42 596 85 632 85 m 589 690 b 519 686 571 669 540 668 l 413 783 b 408 851 393 801 390 832 b 478 856 426 872 457 874 l 585 758 b 589 690 604 740 607 710 m 319 690 b 250 686 301 669 271 668 l 143 783 b 139 851 124 801 121 832 b 208 856 157 872 188 874 l 315 758 b 319 690 335 740 338 710 "},"Ȍ":{"ha":729,"x_min":0,"x_max":0,"o":"m 650 424 b 364 -15 650 22 619 -15 b 78 424 107 -15 78 22 b 364 864 78 826 107 864 b 650 424 621 864 650 825 m 554 436 b 538 690 554 521 554 625 b 364 779 517 767 468 779 b 189 681 250 779 207 763 b 174 436 174 617 174 522 b 190 168 174 360 174 239 b 364 69 207 99 242 69 b 539 176 488 69 524 99 b 554 436 554 251 554 350 m 589 951 b 519 947 571 931 540 929 l 413 1044 b 408 1113 393 1063 390 1093 b 478 1117 426 1133 457 1135 l 585 1019 b 589 951 604 1001 607 971 m 319 951 b 250 947 301 931 271 929 l 143 1044 b 139 1113 124 1063 121 1093 b 208 1117 157 1133 188 1135 l 315 1019 b 319 951 335 1001 338 971 "},"ȍ":{"ha":729,"x_min":0,"x_max":0,"o":"m 649 300 b 364 -8 649 125 517 -8 b 79 300 211 -8 79 124 b 364 611 79 474 208 611 b 649 300 519 611 649 474 m 553 310 b 364 526 553 436 464 526 b 175 310 265 526 175 436 b 364 76 175 181 261 76 b 553 310 467 76 553 181 m 589 690 b 519 686 571 669 540 668 l 413 783 b 408 851 393 801 390 832 b 478 856 426 872 457 874 l 585 758 b 589 690 604 740 607 710 m 319 690 b 250 686 301 669 271 668 l 143 783 b 139 851 124 801 121 832 b 208 856 157 872 188 874 l 315 758 b 319 690 335 740 338 710 "},"Ȑ":{"ha":729,"x_min":0,"x_max":0,"o":"m 725 129 b 604 -15 725 76 692 -15 b 494 49 557 -15 518 7 b 468 225 468 93 468 135 b 438 343 468 283 468 314 b 325 382 393 382 351 382 l 217 382 l 217 85 l 251 85 b 307 42 274 85 307 85 b 251 0 307 0 272 0 l 86 0 b 31 42 65 0 31 0 b 86 85 31 85 64 85 l 121 85 l 121 764 l 86 764 b 31 806 65 764 31 764 b 86 849 31 849 64 849 l 332 849 b 601 615 496 849 601 735 b 483 422 601 558 575 474 b 551 338 503 407 535 378 b 564 207 564 306 564 294 b 603 69 564 133 564 69 b 629 132 626 69 629 121 b 676 174 631 174 663 174 b 725 129 692 174 725 174 m 506 615 b 317 764 506 682 444 764 l 217 764 l 217 467 l 317 467 b 506 615 443 467 506 547 m 549 951 b 479 947 531 931 500 929 l 372 1044 b 368 1113 353 1063 350 1093 b 438 1117 386 1133 417 1135 l 544 1019 b 549 951 564 1001 567 971 m 279 951 b 210 947 261 931 231 929 l 103 1044 b 99 1113 83 1063 81 1093 b 168 1117 117 1133 147 1135 l 275 1019 b 279 951 294 1001 297 971 "},"ȑ":{"ha":729,"x_min":0,"x_max":0,"o":"m 676 521 b 618 461 676 483 649 461 b 558 522 583 461 560 489 b 308 258 390 522 308 389 l 308 85 l 463 85 b 519 42 483 85 519 85 b 463 0 519 0 483 0 l 100 0 b 44 43 78 0 44 0 b 100 85 44 85 79 85 l 213 85 l 213 514 l 100 514 b 44 557 78 514 44 514 b 100 599 44 599 79 599 l 253 599 b 308 542 300 599 308 585 l 308 494 b 544 607 385 582 474 607 b 676 521 660 607 676 549 m 589 690 b 519 686 571 669 540 668 l 413 783 b 408 851 393 801 390 832 b 478 856 426 872 457 874 l 585 758 b 589 690 604 740 607 710 m 319 690 b 250 686 301 669 271 668 l 143 783 b 139 851 124 801 121 832 b 208 856 157 872 188 874 l 315 758 b 319 690 335 740 338 710 "},"Ȕ":{"ha":729,"x_min":0,"x_max":0,"o":"m 722 807 b 665 764 722 764 688 764 l 624 764 l 624 283 b 364 -15 624 113 503 -15 b 104 283 225 -15 104 113 l 104 764 l 63 764 b 6 807 42 764 6 764 b 63 849 6 849 42 849 l 242 849 b 299 807 263 849 299 849 b 242 764 299 764 263 764 l 200 764 l 200 290 b 364 69 200 142 290 69 b 528 290 436 69 528 142 l 528 764 l 486 764 b 429 807 465 764 429 764 b 486 849 429 849 465 849 l 665 849 b 722 807 686 849 722 849 m 589 951 b 519 947 571 931 540 929 l 413 1044 b 408 1113 393 1063 390 1093 b 478 1117 426 1133 457 1135 l 585 1019 b 589 951 604 1001 607 971 m 319 951 b 250 947 301 931 271 929 l 143 1044 b 139 1113 124 1063 121 1093 b 208 1117 157 1133 188 1135 l 315 1019 b 319 951 335 1001 338 971 "},"ȕ":{"ha":729,"x_min":0,"x_max":0,"o":"m 711 43 b 654 0 711 0 676 0 l 553 0 b 497 44 528 0 499 0 b 332 -8 446 6 389 -8 b 135 158 231 -8 135 25 l 135 514 l 72 514 b 17 556 53 514 17 514 b 74 599 17 599 51 599 l 175 599 b 231 542 222 599 231 585 l 231 167 b 340 76 231 122 231 76 b 497 218 385 76 497 93 l 497 514 l 435 514 b 379 556 415 514 379 514 b 436 599 379 599 414 599 l 538 599 b 593 542 585 599 593 585 l 593 85 l 656 85 b 711 43 675 85 711 85 m 589 690 b 519 686 571 669 540 668 l 413 783 b 408 851 393 801 390 832 b 478 856 426 872 457 874 l 585 758 b 589 690 604 740 607 710 m 319 690 b 250 686 301 669 271 668 l 143 783 b 139 851 124 801 121 832 b 208 856 157 872 188 874 l 315 758 b 319 690 335 740 338 710 "},"Ș":{"ha":729,"x_min":0,"x_max":0,"o":"m 656 231 b 394 -15 656 107 556 -15 b 165 49 306 -15 221 7 b 114 -15 153 4 144 -15 b 72 42 72 -15 72 19 l 72 225 b 121 282 72 253 72 282 b 168 233 165 282 167 257 b 233 113 169 208 175 150 b 396 69 289 75 357 69 b 565 224 506 69 565 151 b 411 381 565 344 450 372 l 251 418 b 72 636 136 451 72 543 b 331 864 72 754 176 864 b 525 799 393 864 468 847 b 576 864 536 840 543 864 b 618 807 618 864 618 829 l 618 624 b 569 567 618 596 618 567 b 522 606 542 567 526 575 b 329 779 514 649 493 779 b 163 642 231 779 163 713 b 274 511 163 576 215 528 l 386 486 b 589 396 494 461 532 451 b 656 231 606 378 656 319 m 451 -150 b 311 -321 451 -264 344 -321 b 278 -287 294 -321 278 -303 b 307 -258 278 -267 297 -261 b 385 -172 319 -254 369 -237 b 364 -176 378 -175 369 -176 b 299 -110 329 -176 299 -150 b 365 -46 299 -76 324 -46 b 451 -150 411 -46 451 -86 "},"ș":{"ha":729,"x_min":0,"x_max":0,"o":"m 638 174 b 374 -8 638 107 593 -8 b 193 44 335 -8 261 -6 b 142 -8 176 -7 154 -8 b 100 49 100 -8 100 26 l 100 183 b 149 240 100 211 100 240 b 197 200 185 240 190 225 b 375 76 232 92 310 76 b 553 174 501 76 553 122 b 374 276 553 247 442 265 b 100 447 246 296 100 319 b 364 611 100 497 132 611 b 513 582 390 611 451 611 b 554 611 515 592 521 611 b 596 554 596 611 596 576 l 596 458 b 547 401 596 431 596 401 b 500 449 504 401 501 425 b 361 526 496 485 476 526 b 185 447 229 526 185 483 b 319 371 185 393 279 376 l 414 354 b 638 174 458 347 638 318 m 451 -150 b 311 -321 451 -264 344 -321 b 278 -287 294 -321 278 -303 b 307 -258 278 -267 297 -261 b 385 -172 319 -254 369 -237 b 364 -176 378 -175 369 -176 b 299 -110 329 -176 299 -150 b 365 -46 299 -76 324 -46 b 451 -150 411 -46 451 -86 "},"Ț":{"ha":729,"x_min":0,"x_max":0,"o":"m 692 690 b 643 633 692 663 692 633 b 596 690 596 633 596 664 l 596 764 l 413 764 l 413 85 l 485 85 b 540 42 507 85 540 85 b 485 0 540 0 506 0 l 244 0 b 189 43 222 0 189 0 b 244 85 189 85 224 85 l 317 85 l 317 764 l 132 764 l 132 690 b 83 633 132 663 132 633 b 36 690 36 633 36 664 l 36 792 b 93 849 36 838 47 849 l 636 849 b 692 792 683 849 692 835 l 692 690 m 451 -150 b 311 -321 451 -264 344 -321 b 278 -287 294 -321 278 -303 b 307 -258 278 -267 297 -261 b 385 -172 319 -254 369 -237 b 364 -176 378 -175 369 -176 b 299 -110 329 -176 299 -150 b 365 -46 299 -76 324 -46 b 451 -150 411 -46 451 -86 "},"ț":{"ha":729,"x_min":0,"x_max":0,"o":"m 624 175 b 408 -8 624 51 511 -8 b 213 175 307 -8 213 42 l 213 514 l 90 514 b 35 556 69 514 35 514 b 92 599 35 599 69 599 l 213 599 l 213 713 b 261 769 213 740 213 769 b 308 713 308 769 308 739 l 308 599 l 536 599 b 592 556 558 599 592 599 b 536 514 592 514 557 514 l 308 514 l 308 183 b 415 76 308 149 308 76 b 528 176 447 76 526 90 b 575 229 528 200 529 229 b 624 175 624 229 624 200 m 451 -150 b 311 -321 451 -264 344 -321 b 278 -287 294 -321 278 -303 b 307 -258 278 -267 297 -261 b 385 -172 319 -254 369 -237 b 364 -176 378 -175 369 -176 b 299 -110 329 -176 299 -150 b 365 -46 299 -76 324 -46 b 451 -150 411 -46 451 -86 "},"ɘ":{"ha":729,"x_min":0,"x_max":0,"o":"m 644 301 b 325 -8 644 132 504 -8 b 76 151 142 -8 76 117 b 125 190 76 190 117 190 b 171 160 150 190 161 186 b 315 76 201 89 276 76 b 546 265 419 76 524 146 l 132 265 b 76 317 103 265 76 265 b 346 611 76 475 165 611 b 644 301 511 611 644 472 m 544 349 b 346 526 525 450 443 526 b 175 349 274 526 188 492 l 544 349 "}}}
